{"glyphs":{"0":{"ha":719,"x_min":77,"x_max":588,"o":"m 190 309 l 454 646 q 436 697 444 678 q 414 739 428 717 q 380 772 400 762 q 333 783 359 783 q 182 406 182 783 q 190 309 182 357 m 479 555 l 213 215 q 256 125 229 158 q 334 93 283 93 q 387 106 363 93 q 425 139 410 119 q 452 191 441 159 q 469 253 463 223 q 478 323 475 283 q 482 393 481 363 q 483 460 483 422 q 479 555 483 513 m 332 887 q 437 860 391 887 q 511 791 484 833 q 557 689 539 749 q 581 572 574 630 q 588 448 588 513 q 334 -11 588 -11 q 230 14 275 -11 q 156 80 184 39 q 109 178 127 121 q 84 294 91 235 q 77 418 77 352 q 80 509 77 465 q 92 601 83 553 q 113 689 100 648 q 145 767 125 730 q 192 830 165 804 q 254 872 218 857 q 332 887 290 887 z "},"1":{"ha":719,"x_min":73,"x_max":471,"o":"m 336 883 l 471 875 l 471 -6 l 359 -6 l 358 715 q 142 530 305 649 l 73 632 q 152 684 115 657 q 215 734 189 710 q 261 779 241 758 q 295 819 282 800 q 317 850 309 838 q 331 873 326 863 q 336 883 336 882 z "},"2":{"ha":719,"x_min":81,"x_max":597,"o":"m 204 581 l 102 557 q 89 633 91 593 q 89 642 89 636 q 88 650 88 647 q 159 822 88 759 q 334 886 229 886 q 584 629 584 886 q 476 409 584 524 q 376 320 448 380 q 269 225 304 260 q 218 160 235 193 q 200 105 201 127 l 597 106 l 597 1 l 82 1 q 81 33 82 12 q 81 66 81 54 q 85 121 81 98 q 201 313 103 221 q 302 398 237 346 q 394 475 368 450 q 454 554 432 511 q 476 628 476 596 q 443 736 476 693 q 340 780 409 780 q 233 741 271 780 q 195 624 195 703 q 204 581 195 606 z "},"3":{"ha":719,"x_min":53,"x_max":597,"o":"m 53 227 l 160 228 q 202 129 161 167 q 316 90 243 90 q 442 134 396 90 q 488 254 488 178 q 468 351 488 312 q 400 417 448 391 q 339 441 372 433 q 287 451 307 450 q 231 452 267 452 l 231 559 l 241 559 q 350 576 297 559 q 415 620 395 592 q 436 697 436 648 q 400 758 436 735 q 310 780 363 780 q 172 685 220 780 l 76 739 q 85 758 78 745 q 110 793 92 770 q 153 836 129 817 q 217 869 177 854 q 303 884 257 884 l 311 884 q 425 866 374 884 q 510 805 476 848 q 543 701 543 762 q 518 584 543 635 q 447 513 492 534 q 597 255 597 441 q 580 157 597 208 q 532 68 564 106 q 316 -15 460 -15 q 124 53 196 -15 q 53 227 53 121 z "},"4":{"ha":719,"x_min":53,"x_max":603,"o":"m 410 387 l 410 671 q 310 525 375 609 q 195 387 245 440 l 410 387 m 53 368 q 96 422 55 371 q 183 533 137 473 q 280 664 230 594 q 366 794 331 733 q 406 886 401 854 l 516 886 l 516 387 l 603 387 l 603 282 l 516 282 l 516 -1 l 410 -1 l 410 280 l 94 280 l 53 368 z "},"5":{"ha":719,"x_min":72,"x_max":605,"o":"m 329 496 q 176 425 245 496 q 174 422 174 423 l 88 459 l 119 873 l 526 872 l 526 768 l 215 768 l 199 566 q 327 603 261 603 q 458 574 397 603 q 563 471 520 541 q 605 305 605 401 q 526 79 605 158 q 320 -1 448 0 l 319 -1 q 175 43 237 -1 q 72 157 113 88 l 162 216 q 231 135 193 165 q 321 104 269 104 q 452 156 406 104 q 498 304 498 208 q 410 478 498 437 q 329 496 373 496 z "},"6":{"ha":719,"x_min":64,"x_max":608,"o":"m 524 785 q 331 722 414 775 q 215 587 248 669 q 184 463 196 541 q 214 487 205 480 q 244 505 222 493 q 292 520 265 516 q 355 525 318 525 q 538 451 467 525 q 608 258 608 376 q 532 64 608 130 q 330 -2 456 -2 q 133 93 201 -2 q 64 345 64 189 q 116 629 64 498 q 262 806 159 739 q 508 889 364 873 l 524 785 m 178 298 q 220 157 178 213 q 330 102 263 102 q 453 142 406 102 q 500 258 500 182 q 459 374 500 329 q 349 420 418 420 q 235 382 284 420 q 178 298 186 345 z "},"7":{"ha":719,"x_min":48,"x_max":677,"o":"m 102 876 q 195 874 132 876 q 285 872 259 872 l 618 872 l 646 872 l 677 817 q 584 652 636 739 q 498 510 532 565 q 428 388 464 456 q 371 266 392 321 q 337 143 351 212 q 324 0 324 75 l 212 0 q 218 91 212 45 q 231 174 223 136 q 255 259 238 213 q 285 339 272 306 q 324 423 298 373 q 367 503 351 473 q 419 590 384 534 q 473 675 454 646 q 534 768 492 705 q 399 767 498 767 l 312 767 q 168 772 282 767 q 140 694 157 750 l 48 735 q 74 803 55 755 q 102 876 94 851 z "},"8":{"ha":719,"x_min":44,"x_max":616,"o":"m 199 140 q 223 120 199 140 q 330 100 247 100 q 461 140 414 100 q 509 250 509 180 q 494 317 509 286 q 452 372 480 348 q 397 412 425 395 q 330 446 370 428 q 263 412 291 428 q 208 372 236 395 q 166 317 180 348 q 152 250 152 286 q 199 140 152 180 m 330 557 q 419 603 384 570 q 454 671 454 636 q 421 742 454 713 q 329 770 387 770 q 237 742 271 770 q 203 671 203 713 q 240 604 203 637 q 330 557 276 570 m 159 818 q 190 847 159 818 q 329 877 220 877 q 499 818 437 877 q 561 668 561 759 q 527 569 561 617 q 446 500 492 521 q 565 404 513 468 q 616 256 616 340 q 538 68 616 142 q 330 -6 460 -6 q 122 68 201 -6 q 44 256 44 142 q 96 404 44 340 q 215 500 147 468 q 133 570 168 522 q 97 668 97 618 q 159 818 97 759 z "},"9":{"ha":719,"x_min":44,"x_max":614,"o":"m 342 781 q 221 747 269 781 q 173 646 173 713 q 221 552 173 584 q 337 521 269 521 q 440 555 397 521 q 494 629 483 589 q 444 734 488 688 q 342 781 399 781 m 65 648 q 138 819 65 755 q 325 883 210 883 q 422 869 379 883 q 495 832 465 855 q 547 775 525 810 q 582 704 569 740 q 602 620 595 667 q 612 530 610 572 q 614 437 614 488 q 608 306 614 366 q 582 188 601 247 q 532 89 563 130 q 450 24 501 49 q 330 -1 399 -1 q 145 52 211 -1 q 44 213 79 105 l 148 243 q 172 180 161 203 q 204 138 184 157 q 254 112 224 119 q 330 104 284 104 q 395 116 367 104 q 443 149 424 127 q 476 198 463 171 q 496 262 489 226 q 506 333 503 298 q 509 409 509 368 q 507 481 509 410 q 432 433 473 448 q 328 418 391 418 q 139 478 213 418 q 65 648 65 538 z "}," ":{"ha":719,"x_min":0,"x_max":0,"o":""},"!":{"ha":719,"x_min":263,"x_max":433,"o":"m 416 895 l 405 292 l 292 292 l 281 895 l 416 895 m 263 183 l 433 183 l 433 0 l 263 0 l 263 183 z "},"\"":{"ha":719,"x_min":159,"x_max":536,"o":"m 410 993 l 536 993 q 530 744 536 844 q 507 545 524 644 l 420 557 q 430 699 430 612 q 410 853 430 785 l 410 993 m 159 993 l 284 993 q 278 744 284 844 q 255 545 272 644 l 168 557 q 178 699 178 613 q 159 853 178 785 l 159 993 z "},"#":{"ha":719,"x_min":23,"x_max":614,"o":"m 283 539 q 265 367 280 503 q 337 368 293 368 l 387 368 q 398 463 391 401 q 406 541 404 524 q 336 540 378 541 q 283 539 294 539 m 231 -13 l 117 -12 q 141 254 123 102 q 57 241 94 254 l 23 341 q 155 362 62 355 q 166 461 161 394 q 173 536 172 528 l 163 536 q 62 521 90 531 l 26 621 q 78 633 46 629 q 127 640 111 638 q 189 644 144 641 q 198 740 195 699 q 201 826 200 781 q 204 903 202 871 q 240 903 213 903 q 280 903 267 903 q 314 903 304 903 q 295 648 304 739 l 418 648 q 451 899 439 825 l 562 898 q 522 648 539 790 l 614 648 l 614 539 q 510 542 538 542 l 490 369 l 611 369 l 611 260 q 481 262 556 262 q 456 -15 468 141 l 345 -14 q 373 261 368 212 l 357 261 q 252 258 309 261 l 231 -13 z "},"$":{"ha":719,"x_min":41,"x_max":650,"o":"m 168 481 q 82 553 116 505 q 49 671 49 602 q 87 780 49 735 q 185 845 125 825 q 319 865 244 865 l 325 865 l 331 1024 l 450 1015 l 435 857 q 563 807 503 846 q 650 709 623 767 l 555 657 q 427 751 529 730 l 410 526 q 501 496 464 514 q 603 412 564 467 q 643 275 643 357 q 621 165 643 212 q 559 92 598 119 q 473 52 519 65 q 373 37 427 39 l 365 -119 l 243 -110 l 263 44 q 41 298 41 86 l 148 298 q 179 197 148 232 q 271 147 211 161 l 293 441 q 168 481 209 462 m 317 760 q 157 674 157 759 q 226 574 157 606 q 301 549 258 559 l 317 760 m 380 140 q 495 176 456 145 q 534 270 534 206 q 510 351 534 321 q 441 399 486 380 q 401 414 429 405 l 380 140 z "},"%":{"ha":719,"x_min":22,"x_max":692,"o":"m 24 26 q 288 445 121 197 q 604 898 454 694 l 692 833 q 380 389 538 626 q 126 -29 221 152 l 24 26 m 374 49 q 349 75 374 49 q 323 172 323 100 q 374 296 323 244 q 498 347 426 347 q 621 296 570 347 q 673 172 673 244 q 621 49 673 100 q 498 -3 570 -3 q 374 49 426 -3 m 446 224 q 435 213 446 224 q 425 172 425 203 q 446 120 425 142 q 498 99 467 99 q 550 120 528 99 q 571 172 571 142 q 550 224 571 203 q 498 245 528 245 q 446 224 467 245 m 74 575 q 48 601 74 575 q 22 699 22 627 q 74 823 22 772 q 197 874 125 874 q 321 823 270 874 q 372 699 372 772 q 321 575 372 627 q 197 524 270 524 q 74 575 125 524 m 145 751 q 135 740 145 751 q 124 699 124 730 q 145 647 124 669 q 197 626 167 626 q 249 647 228 626 q 271 699 271 669 q 249 751 271 730 q 197 772 228 772 q 145 751 167 772 z "},"&":{"ha":719,"x_min":32,"x_max":668,"o":"m 444 166 q 378 255 420 198 q 302 357 335 313 q 238 439 269 401 q 140 255 140 353 q 183 136 140 182 q 288 90 227 90 q 444 166 378 90 m 375 725 q 352 789 375 768 q 288 810 328 810 q 225 779 254 810 q 197 708 197 747 q 207 661 197 685 q 229 621 218 637 q 260 583 240 606 q 350 665 320 625 q 375 725 375 699 m 668 43 l 585 -22 q 556 17 583 -18 q 509 79 529 52 q 284 -15 422 -15 q 104 58 176 -15 q 32 249 32 130 q 172 523 32 412 q 135 571 149 550 q 105 629 120 591 q 90 703 90 667 q 148 851 90 789 q 289 913 207 913 q 425 866 368 913 q 481 736 481 819 q 472 674 481 704 q 449 623 463 645 q 411 578 435 602 q 369 539 388 554 q 321 503 351 524 q 498 270 448 338 q 515 439 515 324 l 616 439 q 568 173 616 250 q 668 43 646 73 z "},"'":{"ha":719,"x_min":254,"x_max":397,"o":"m 254 993 l 397 993 q 391 744 397 844 q 368 545 385 644 l 263 557 q 273 699 273 613 q 254 853 273 785 l 254 993 z "},"(":{"ha":719,"x_min":168,"x_max":606,"o":"m 606 899 q 600 899 606 899 q 453 860 516 899 q 352 753 389 821 q 295 600 314 685 q 277 415 277 515 q 316 177 277 286 q 432 2 356 68 q 605 -65 507 -65 l 605 -178 q 433 -137 513 -177 q 295 -23 354 -96 q 202 164 236 51 q 168 415 168 277 q 279 845 168 690 q 606 1006 390 1000 l 606 899 z "},")":{"ha":719,"x_min":99,"x_max":536,"o":"m 99 899 l 99 1006 q 426 845 315 1000 q 536 415 536 690 q 503 164 536 277 q 410 -23 469 51 q 271 -137 351 -96 q 100 -178 192 -177 l 100 -65 q 273 2 197 -65 q 388 177 349 68 q 428 415 428 286 q 409 600 428 515 q 353 753 391 685 q 252 860 315 821 q 105 899 189 899 l 99 899 z "},"*":{"ha":719,"x_min":33,"x_max":676,"o":"m 294 467 l 292 755 l 406 755 l 405 466 l 626 565 l 676 471 l 430 368 l 614 150 l 529 75 l 354 323 l 188 75 l 98 146 l 272 368 l 33 464 l 77 562 l 294 467 z "},"+":{"ha":719,"x_min":42,"x_max":659,"o":"m 293 651 l 398 651 l 398 407 l 659 407 l 659 301 l 398 301 l 398 35 l 293 35 l 293 301 l 42 301 l 42 407 l 293 407 l 293 651 z "},",":{"ha":719,"x_min":235,"x_max":447,"o":"m 272 186 l 442 186 l 447 7 l 447 5 q 277 -267 447 -189 l 235 -172 q 308 -105 284 -145 q 332 3 332 -64 l 272 3 l 272 186 z "},"-":{"ha":719,"x_min":103,"x_max":637,"o":"m 103 407 l 637 407 l 637 301 l 103 301 l 103 407 z "},".":{"ha":719,"x_min":269,"x_max":439,"o":"m 269 182 l 439 182 l 439 0 l 269 0 l 269 182 z "},"/":{"ha":719,"x_min":68,"x_max":602,"o":"m 68 -54 q 75 -38 68 -53 q 90 -7 82 -24 q 103 22 98 9 q 501 975 434 797 l 602 936 q 168 -96 536 769 l 68 -54 z "},":":{"ha":719,"x_min":267,"x_max":437,"o":"m 267 692 l 437 692 l 437 509 l 267 509 l 267 692 m 267 184 l 437 184 l 437 1 l 267 1 l 267 184 z "},";":{"ha":719,"x_min":230,"x_max":441,"o":"m 264 692 l 435 692 l 435 509 l 264 509 l 264 692 m 267 186 l 437 186 l 441 7 l 441 5 q 271 -267 441 -189 l 230 -172 q 302 -105 279 -145 q 326 3 326 -64 l 267 3 l 267 186 z "},"<":{"ha":719,"x_min":89,"x_max":593,"o":"m 593 51 l 508 -20 q 429 54 490 5 q 253 188 388 89 q 89 307 118 287 l 89 389 q 500 702 395 640 q 559 730 541 725 l 591 624 q 497 566 553 604 q 406 500 442 528 q 299 417 370 473 q 214 351 229 362 q 283 303 228 341 q 374 240 338 266 q 458 177 410 214 q 541 108 507 140 q 593 51 575 76 z "},"=":{"ha":719,"x_min":31,"x_max":608,"o":"m 34 237 q 282 242 129 242 q 448 239 344 242 q 608 237 552 237 l 607 127 q 439 129 549 127 q 267 131 330 131 q 216 131 250 131 q 164 132 182 132 q 34 128 92 132 l 34 237 m 33 559 q 206 555 111 555 l 269 555 q 436 556 333 555 q 607 558 539 558 l 607 450 q 438 448 542 450 q 267 445 334 445 q 31 452 151 445 q 33 559 31 525 z "},">":{"ha":719,"x_min":111,"x_max":628,"o":"m 628 401 l 628 321 q 512 228 615 312 q 310 72 410 144 q 157 -20 211 -1 l 111 74 q 503 357 228 136 q 174 610 263 528 q 128 661 140 642 l 208 730 q 327 624 240 692 q 518 480 414 555 q 628 401 622 406 z "},"?":{"ha":719,"x_min":78,"x_max":575,"o":"m 342 907 q 516 845 458 907 q 575 673 575 784 q 565 613 575 643 q 544 563 555 583 q 511 519 533 543 q 477 485 488 495 q 441 454 465 474 q 368 323 368 392 l 368 292 l 249 292 l 249 322 q 272 423 249 380 q 341 507 295 466 q 379 539 353 517 q 416 571 405 560 q 441 598 427 581 q 461 633 456 616 q 467 671 467 650 q 434 766 467 730 q 337 802 401 802 q 228 768 271 802 q 184 671 185 735 q 222 586 184 632 l 131 525 q 78 667 78 602 q 99 774 78 727 q 158 849 121 821 q 242 892 195 878 q 342 907 289 907 m 226 183 l 395 183 l 395 0 l 226 0 l 226 183 z "},"@":{"ha":719,"x_min":28,"x_max":678,"o":"m 309 340 q 330 258 309 288 q 385 228 351 228 q 472 275 429 228 q 532 363 515 321 l 532 427 q 472 459 508 448 q 403 470 437 470 q 309 340 309 470 m 549 210 q 524 184 532 192 q 499 162 516 176 q 468 142 481 148 q 432 130 454 136 q 385 125 410 125 q 259 187 315 125 q 203 333 203 250 q 259 510 203 441 q 397 578 314 578 q 532 534 482 578 q 531 581 532 562 q 527 627 530 600 q 517 673 524 654 q 500 711 511 691 q 472 744 488 732 q 431 764 456 756 q 374 772 406 772 q 192 661 259 772 q 125 340 125 550 q 157 146 125 235 q 252 2 190 57 q 393 -53 314 -53 q 496 -17 439 -53 l 537 -109 q 385 -152 454 -152 q 237 -109 305 -152 q 123 3 168 -66 q 53 159 79 73 q 28 336 28 246 q 122 732 28 589 q 373 875 216 875 q 479 856 432 875 q 555 808 526 838 q 604 737 584 778 q 631 654 623 696 q 639 568 639 613 l 639 345 l 639 325 q 641 271 639 292 q 651 218 642 249 q 678 161 661 187 l 576 118 q 549 210 557 151 z "},"A":{"ha":719,"x_min":28,"x_max":688,"o":"m 486 342 l 354 741 l 228 329 q 363 340 258 336 l 486 342 m 294 882 l 410 882 l 667 117 q 688 0 686 52 l 576 0 q 572 40 576 12 q 563 83 567 69 l 515 225 q 482 224 509 225 q 445 223 456 224 q 407 222 433 223 q 367 221 381 222 q 329 219 352 220 q 289 217 305 218 q 255 213 273 215 q 222 209 237 212 q 195 203 207 206 l 155 82 q 138 0 138 35 l 28 0 q 36 50 29 14 q 50 108 43 85 l 294 882 z "},"B":{"ha":719,"x_min":58,"x_max":639,"o":"m 66 558 q 58 871 66 757 q 103 875 69 872 q 162 880 137 878 q 222 881 188 881 l 235 881 q 337 870 290 881 q 423 836 384 859 q 485 772 462 812 q 507 680 507 732 q 449 520 507 574 q 586 426 532 492 q 639 267 639 359 q 576 85 639 157 q 425 2 514 13 q 344 -3 382 -3 q 254 -1 317 -3 q 152 2 191 2 l 60 2 q 63 223 60 49 q 66 558 66 398 m 401 673 q 358 754 401 728 q 242 780 316 780 l 231 780 q 173 777 207 780 q 176 690 176 743 q 175 619 176 667 q 174 545 174 570 q 212 545 186 545 q 246 546 239 545 q 272 547 254 546 q 298 551 290 549 q 319 556 306 553 q 344 566 333 560 q 368 579 355 571 q 391 612 382 587 q 401 667 401 637 l 401 673 m 480 392 q 411 431 445 421 q 325 440 378 440 q 270 439 311 440 q 203 439 229 439 l 173 439 q 172 297 172 376 q 171 173 172 219 q 170 104 170 126 q 254 101 210 104 q 321 99 299 99 q 396 104 363 99 q 492 159 452 111 q 531 277 531 207 q 519 343 531 317 q 480 392 507 370 z "},"C":{"ha":719,"x_min":38,"x_max":660,"o":"m 386 781 q 287 755 332 781 q 215 692 242 730 q 146 424 146 592 q 233 152 146 233 q 292 113 264 123 q 363 102 321 102 l 373 102 q 566 232 509 107 l 660 180 q 551 47 620 97 q 390 -2 482 -2 l 388 -2 q 159 77 241 -2 q 38 422 38 201 q 128 752 38 621 q 236 848 168 810 q 388 886 304 886 q 523 843 460 886 q 629 721 585 801 l 537 666 q 386 781 479 781 z "},"D":{"ha":719,"x_min":43,"x_max":657,"o":"m 210 781 l 189 781 q 159 780 166 781 q 159 722 159 763 q 159 656 159 701 q 159 587 159 611 q 156 98 159 358 q 287 96 216 96 q 368 100 334 96 q 434 119 401 105 q 491 162 467 134 q 531 235 515 191 q 544 294 539 256 q 549 361 549 332 q 531 522 549 444 q 481 647 513 600 q 416 721 448 694 q 333 765 385 749 q 210 781 282 781 m 47 85 q 48 180 47 95 q 51 386 50 266 q 52 599 52 505 l 52 649 q 43 876 52 791 q 195 884 132 884 q 418 843 332 884 q 568 709 505 801 q 634 561 611 646 q 657 385 657 476 q 643 250 657 321 q 548 71 620 135 q 379 -2 476 7 q 270 -7 327 -7 q 165 -4 244 -7 q 45 -2 87 -2 q 47 85 45 20 z "},"E":{"ha":719,"x_min":69,"x_max":640,"o":"m 69 877 q 208 880 107 880 q 274 880 208 880 l 349 880 q 489 879 406 880 q 592 878 573 878 l 603 878 l 603 776 l 176 776 l 176 553 l 473 553 l 473 452 l 176 452 l 176 431 q 175 234 176 352 q 174 100 174 115 l 530 101 q 567 105 547 101 q 598 114 587 110 l 610 119 l 640 18 q 617 12 633 16 q 592 4 601 7 q 567 0 583 2 q 532 -2 550 -2 l 69 -2 l 69 877 z "},"F":{"ha":719,"x_min":79,"x_max":651,"o":"m 188 -1 l 79 2 l 79 880 l 543 880 q 651 857 609 878 l 613 758 q 594 767 601 764 q 566 773 587 770 q 514 777 545 777 l 467 777 q 184 775 433 777 l 184 553 q 289 554 225 553 q 394 555 353 555 q 418 554 406 555 q 440 553 431 553 q 458 551 450 552 q 474 549 467 550 q 485 547 480 548 q 492 546 489 547 l 494 545 l 507 542 l 482 444 q 392 453 443 453 q 184 451 258 453 q 186 218 184 408 q 188 -1 188 28 z "},"G":{"ha":719,"x_min":14,"x_max":673,"o":"m 584 497 q 673 502 623 497 l 673 410 q 659 227 673 302 q 615 106 644 151 q 552 38 587 62 q 469 2 517 15 q 366 -5 435 -5 q 235 17 294 -5 q 135 78 176 39 q 67 172 94 117 q 26 291 39 227 q 14 426 14 354 q 138 804 14 684 q 361 883 228 883 l 375 883 q 662 696 578 878 l 565 649 q 368 780 505 780 q 286 771 318 780 q 216 730 253 762 q 123 418 123 651 q 135 294 123 349 q 174 194 147 239 q 252 124 201 149 q 373 100 302 100 q 429 106 407 100 q 486 129 463 113 q 526 176 508 144 q 552 263 543 208 q 560 398 560 317 q 511 397 543 397 q 480 397 500 397 q 450 397 460 397 q 294 372 365 397 l 267 470 q 471 498 343 498 q 528 498 490 498 q 584 497 566 497 z "},"H":{"ha":719,"x_min":41,"x_max":618,"o":"m 149 879 l 149 508 q 357 527 232 527 l 511 527 q 511 730 511 629 q 511 876 511 830 l 618 876 l 618 0 l 511 0 l 511 424 l 424 424 q 149 405 238 424 q 149 161 149 275 q 150 0 150 47 l 41 0 l 41 878 l 149 879 z "},"I":{"ha":719,"x_min":103,"x_max":576,"o":"m 103 880 q 329 883 209 883 q 576 881 410 883 l 576 778 q 478 780 532 778 q 395 781 425 781 l 395 103 q 435 103 410 103 q 478 104 460 104 q 576 101 529 104 l 576 -1 q 433 3 507 3 q 384 3 418 3 q 328 3 349 3 q 237 0 310 3 q 105 -2 165 -2 l 105 99 q 235 102 177 102 l 286 102 l 286 781 q 107 776 156 779 l 103 880 z "},"J":{"ha":719,"x_min":27,"x_max":648,"o":"m 281 -5 q 183 11 227 -5 q 111 56 140 28 q 63 122 83 83 q 36 202 44 161 q 27 289 28 243 l 136 288 q 145 215 137 248 q 170 154 154 182 q 214 112 186 127 q 279 96 242 96 q 343 112 317 96 q 387 154 370 127 q 413 227 404 182 q 426 323 422 272 q 429 447 429 374 q 410 776 429 559 q 351 777 393 776 q 298 777 310 777 q 256 775 274 777 q 231 772 237 773 q 214 768 224 771 q 201 765 203 766 l 176 865 q 297 880 233 879 q 470 880 345 880 q 648 880 595 880 l 647 776 q 585 776 631 776 q 522 777 538 777 q 536 435 536 610 q 534 335 536 380 q 525 243 532 290 q 507 161 518 196 q 475 93 495 125 q 429 40 456 60 q 365 7 403 19 q 281 -5 328 -5 z "},"K":{"ha":719,"x_min":79,"x_max":680,"o":"m 328 492 q 529 261 401 420 q 680 40 656 102 l 589 -12 q 449 191 566 42 q 263 407 332 340 q 186 292 206 340 l 186 -3 l 79 -3 l 79 887 l 186 887 l 186 477 q 355 675 250 566 q 466 783 412 734 q 551 860 519 833 q 585 888 583 886 l 660 817 q 478 655 579 758 q 328 492 378 551 z "},"L":{"ha":719,"x_min":96,"x_max":668,"o":"m 96 -2 l 96 880 l 205 880 l 205 102 l 558 102 q 640 117 603 104 l 668 18 q 559 -2 608 -2 l 96 -2 z "},"M":{"ha":719,"x_min":40,"x_max":602,"o":"m 40 876 l 145 876 q 192 752 169 803 q 251 636 214 701 q 315 515 288 569 q 351 581 321 525 q 394 662 380 636 q 431 733 408 688 q 470 813 454 779 q 495 876 485 848 l 602 876 l 602 -3 l 496 -3 l 494 624 q 440 524 476 589 q 383 418 405 460 q 357 366 361 376 l 275 368 q 260 396 273 372 q 221 470 248 420 q 170 568 195 519 q 149 610 155 600 l 149 -3 l 42 -3 l 40 876 z "},"N":{"ha":719,"x_min":51,"x_max":621,"o":"m 510 -4 q 158 679 357 332 l 158 541 q 158 233 158 429 q 159 -2 159 37 l 51 -2 l 51 880 l 159 878 q 335 581 220 787 q 511 242 449 374 q 509 513 509 374 q 517 880 509 725 l 621 880 q 616 591 616 777 q 617 352 616 515 q 618 110 618 189 q 618 52 618 90 q 618 -3 618 14 l 510 -4 z "},"O":{"ha":719,"x_min":16,"x_max":647,"o":"m 342 899 q 385 896 363 899 q 438 879 408 892 q 496 847 469 867 q 552 790 524 827 q 600 707 580 754 q 633 588 620 659 q 647 431 646 517 l 647 423 q 629 271 647 345 q 585 145 611 197 q 481 31 546 71 q 334 -9 417 -9 q 209 15 268 -9 q 110 88 149 39 q 16 388 16 203 q 43 636 16 546 q 115 787 71 727 q 209 867 151 837 q 342 899 267 898 m 180 166 q 334 95 234 95 q 492 197 437 95 q 526 298 512 228 q 540 425 539 368 l 540 438 q 492 690 540 597 q 346 795 439 795 q 265 780 298 795 q 203 725 233 764 q 123 391 123 622 q 139 267 123 332 q 180 166 154 201 z "},"P":{"ha":719,"x_min":71,"x_max":642,"o":"m 532 610 q 517 696 532 663 q 468 747 502 729 q 392 772 434 765 q 281 781 349 779 q 223 779 258 781 q 179 777 188 777 l 179 692 l 178 416 q 248 415 203 415 q 466 457 400 415 q 532 610 532 498 m 178 -7 l 71 -6 l 71 878 q 165 880 109 878 q 267 883 220 883 q 352 881 318 883 q 424 874 386 880 q 488 857 461 868 q 542 827 515 846 q 591 781 568 808 q 642 614 642 720 q 595 426 642 493 q 479 335 548 357 q 282 312 411 312 q 178 314 233 312 q 178 126 178 216 q 178 -7 178 37 z "},"Q":{"ha":719,"x_min":34,"x_max":660,"o":"m 603 -99 q 485 -74 535 -99 q 422 10 435 -49 q 340 -2 377 -2 q 134 82 216 -2 q 34 427 34 186 q 118 780 34 672 q 214 862 163 838 q 332 885 265 885 q 577 745 499 885 q 619 640 604 697 q 636 547 633 583 q 639 460 639 510 q 576 157 639 264 q 513 63 532 85 q 536 15 518 27 q 595 1 553 2 l 603 1 q 660 7 633 1 l 660 -93 q 603 -99 633 -99 m 340 292 q 484 194 460 292 q 531 450 531 253 l 531 469 q 529 544 531 514 q 516 616 527 573 q 484 694 505 659 q 420 758 460 734 q 330 781 380 781 q 190 700 239 781 q 142 469 142 618 q 193 179 142 254 q 219 234 202 211 q 258 270 237 258 q 300 287 280 281 q 340 292 320 292 m 412 113 q 392 185 410 163 q 331 206 373 206 q 273 184 297 206 q 249 129 249 161 l 249 126 q 332 98 275 98 q 412 113 376 98 z "},"R":{"ha":719,"x_min":58,"x_max":671,"o":"m 442 366 q 475 315 446 360 q 514 253 503 271 q 547 202 526 235 q 584 150 569 170 q 609 117 598 130 q 617 110 610 116 q 628 100 624 104 q 640 91 633 96 q 655 82 647 85 q 671 76 663 78 l 631 -15 q 576 6 602 -11 q 532 45 550 23 q 321 362 467 117 q 168 385 269 368 l 168 0 l 61 0 l 61 755 q 58 873 61 822 q 205 884 164 884 q 301 882 263 884 q 383 874 340 880 q 457 856 427 867 q 518 823 488 844 q 572 772 548 802 q 613 700 597 741 q 629 616 629 658 q 442 366 629 397 m 524 607 q 485 711 524 667 q 389 765 452 749 q 209 780 326 780 q 166 779 186 780 l 168 488 q 226 476 184 484 q 293 464 267 467 q 344 460 319 460 q 377 462 361 460 q 441 474 416 467 q 486 498 465 482 q 515 540 506 513 q 524 607 524 566 z "},"S":{"ha":719,"x_min":29,"x_max":644,"o":"m 168 481 q 82 553 116 505 q 49 671 49 602 q 126 829 49 774 q 319 883 203 883 l 325 883 q 617 689 582 880 l 509 669 q 448 755 491 732 q 322 779 404 779 q 180 734 226 779 q 157 674 157 709 q 175 613 157 635 q 226 574 193 590 q 353 540 253 562 q 501 496 454 518 q 603 407 562 467 q 644 263 644 346 q 621 144 644 197 q 559 60 599 92 q 467 11 519 27 q 353 -6 415 -6 l 340 -6 q 191 19 254 -4 q 95 83 129 43 q 45 172 60 123 q 29 280 29 220 l 136 280 q 186 145 136 194 q 345 96 236 96 q 535 258 535 96 q 510 346 535 310 q 441 399 484 381 q 310 437 405 415 q 168 481 215 459 z "},"T":{"ha":719,"x_min":26,"x_max":640,"o":"m 273 -6 l 273 776 q 119 775 196 776 q 26 775 42 775 l 26 880 q 269 881 62 880 q 545 881 475 881 q 640 871 578 881 l 617 768 q 541 776 575 776 l 382 776 l 382 -6 l 273 -6 z "},"U":{"ha":719,"x_min":41,"x_max":633,"o":"m 527 890 l 633 882 q 627 775 627 841 q 628 636 627 723 q 629 515 629 550 l 629 476 q 627 357 629 402 q 618 255 625 313 q 594 155 611 197 q 550 81 577 112 q 458 16 511 35 q 334 -7 405 -4 q 202 13 256 -7 q 116 75 149 33 q 67 171 83 116 q 46 303 51 226 q 41 528 41 374 q 47 883 41 722 l 155 883 q 149 494 149 659 q 154 298 149 355 q 205 144 163 192 q 325 96 247 96 q 409 111 378 98 q 469 153 441 123 q 522 476 522 211 q 520 613 522 514 q 518 774 518 712 q 527 890 518 836 z "},"V":{"ha":719,"x_min":5,"x_max":670,"o":"m 280 -3 q 163 417 269 88 q 5 872 58 747 l 109 908 q 225 584 163 770 q 335 220 288 398 q 568 899 395 474 l 670 863 q 503 403 608 718 q 389 -3 397 89 l 280 -3 z "},"W":{"ha":719,"x_min":4,"x_max":696,"o":"m 225 0 l 136 0 q 68 434 120 64 q 4 872 17 804 l 109 894 q 159 579 144 702 q 180 366 174 457 q 197 202 186 275 q 260 456 229 308 q 295 649 291 604 q 408 657 385 649 q 427 555 411 644 q 452 424 444 466 q 475 314 460 381 q 505 203 491 248 q 516 350 511 261 q 535 561 520 439 q 589 892 550 683 l 696 870 q 625 409 676 774 q 566 0 574 44 l 474 0 q 353 416 375 291 q 225 0 322 267 z "},"X":{"ha":719,"x_min":16,"x_max":663,"o":"m 538 909 l 629 851 l 385 446 q 448 347 408 410 q 507 253 488 283 q 555 181 526 224 q 610 109 585 139 q 663 52 635 79 l 593 -24 q 562 6 577 -9 q 535 36 547 22 q 508 69 524 49 q 484 100 492 90 q 458 137 475 111 q 434 172 441 162 q 408 212 427 182 q 382 252 388 243 q 353 298 376 261 q 324 345 330 334 l 109 -21 l 19 37 l 258 444 q 185 575 234 484 q 97 730 136 667 q 16 840 58 792 l 100 903 q 177 799 140 859 q 258 657 214 739 q 322 542 301 576 l 538 909 z "},"Y":{"ha":719,"x_min":22,"x_max":656,"o":"m 271 -4 l 271 92 q 273 242 271 119 q 275 408 275 365 q 145 625 238 460 q 22 852 52 790 l 117 901 q 222 708 149 840 q 334 515 295 576 q 460 721 380 581 q 562 909 541 861 l 656 856 q 503 582 581 707 q 451 502 479 545 q 406 433 422 458 q 384 400 389 408 q 383 351 384 385 q 382 299 382 318 q 379 85 379 150 l 379 -4 l 271 -4 z "},"Z":{"ha":719,"x_min":19,"x_max":656,"o":"m 83 -3 l 19 56 l 512 780 q 261 778 431 780 q 60 777 91 777 l 60 880 q 290 882 95 880 q 555 883 486 883 q 589 882 572 883 q 616 879 606 880 q 637 874 626 877 q 650 872 648 872 q 637 779 646 825 l 178 102 l 509 102 q 573 105 551 102 q 629 119 595 108 l 656 18 q 549 -2 599 -2 l 384 -2 q 195 -3 298 -2 q 88 -3 91 -3 l 83 -3 z "},"[":{"ha":719,"x_min":239,"x_max":602,"o":"m 572 1006 l 594 901 q 347 892 549 897 l 347 -68 q 496 -66 434 -66 l 505 -66 q 602 -72 574 -66 l 602 -182 q 510 -176 551 -176 q 384 -177 493 -176 q 240 -179 275 -179 q 241 -30 240 -119 q 241 120 241 59 q 240 385 241 142 q 239 559 240 448 q 239 711 239 671 l 239 997 q 381 999 274 997 q 502 1002 488 1002 q 572 1006 547 1004 z "},"\\":{"ha":719,"x_min":81,"x_max":614,"o":"m 614 -54 l 514 -96 q 81 936 155 749 l 182 975 q 368 520 230 848 q 581 22 506 193 q 614 -54 586 7 z "},"]":{"ha":719,"x_min":105,"x_max":469,"o":"m 135 1006 q 205 1002 160 1004 q 326 999 219 1002 q 469 997 433 997 l 469 711 q 468 559 469 671 q 467 385 467 448 q 466 120 466 142 q 467 -30 466 59 q 467 -179 467 -119 q 323 -177 433 -179 q 197 -176 214 -176 q 105 -182 156 -176 l 105 -72 q 202 -66 134 -66 l 211 -66 q 360 -68 273 -66 l 360 892 q 113 901 158 897 l 135 1006 z "},"^":{"ha":719,"x_min":35,"x_max":663,"o":"m 353 747 l 663 400 l 582 317 l 354 562 l 113 317 l 35 391 l 353 747 z "},"_":{"ha":719,"x_min":28,"x_max":673,"o":"m 673 -227 l 28 -227 l 28 -121 l 673 -121 l 673 -227 z "},"`":{"ha":719,"x_min":145,"x_max":561,"o":"m 243 1008 q 305 937 261 981 q 397 851 349 892 q 491 776 445 810 q 561 734 538 743 l 492 628 q 309 758 389 693 q 145 914 229 823 l 243 1008 z "},"a":{"ha":719,"x_min":50,"x_max":660,"o":"m 159 211 q 185 129 159 158 q 260 99 212 99 q 337 111 300 99 q 397 138 374 123 q 443 175 421 153 q 474 209 465 197 q 491 234 483 220 l 491 298 q 332 342 420 342 q 209 305 260 341 q 159 211 159 269 m 597 216 q 606 117 597 129 q 619 105 610 112 q 641 89 627 98 q 660 74 654 79 l 604 -7 q 583 8 599 -3 q 560 25 567 19 q 543 44 553 32 q 525 71 532 56 q 515 106 519 86 q 471 66 491 82 q 419 33 451 51 q 347 5 387 14 q 260 -4 307 -4 q 113 57 174 -4 q 53 204 53 119 q 68 286 53 244 q 113 357 84 328 q 210 421 159 404 q 326 439 260 439 q 491 405 435 439 q 453 549 491 503 q 329 595 414 595 q 217 572 256 595 q 138 477 178 549 l 50 533 q 164 660 97 622 q 328 697 232 697 q 524 626 450 697 q 597 439 597 555 l 597 216 z "},"b":{"ha":719,"x_min":63,"x_max":614,"o":"m 508 324 q 321 587 508 587 q 299 584 310 587 q 279 579 288 581 q 259 569 271 576 q 242 559 248 562 q 225 545 237 556 q 211 532 213 534 q 195 517 208 530 l 182 505 l 182 208 q 255 123 221 146 q 355 100 289 100 q 473 157 438 100 q 508 324 508 214 m 614 311 q 600 185 614 241 q 555 85 585 129 q 474 19 525 42 q 355 -5 424 -5 q 182 57 252 -5 q 175 -8 182 37 l 63 5 q 76 165 76 90 l 76 181 q 76 475 76 263 q 75 785 75 687 q 65 951 75 852 l 173 958 q 182 781 182 880 l 182 644 q 217 668 205 661 q 254 684 228 675 q 312 692 280 692 q 614 311 614 692 z "},"c":{"ha":719,"x_min":48,"x_max":657,"o":"m 156 357 q 164 264 156 306 q 185 197 173 223 q 217 152 197 170 q 255 123 237 133 q 296 109 272 114 q 335 103 321 104 q 371 102 350 102 l 380 102 q 498 129 454 102 q 572 205 542 155 l 657 143 q 645 126 656 142 q 626 101 635 111 q 600 73 616 91 q 563 44 583 56 q 516 20 543 32 q 456 2 490 8 q 382 -5 421 -5 q 261 6 315 -5 q 163 50 208 17 q 74 174 100 98 q 48 357 48 250 q 70 514 48 450 q 136 617 92 579 q 240 673 180 656 q 382 690 300 690 q 538 643 476 690 q 615 535 585 607 l 511 494 q 504 515 507 507 q 491 538 501 524 q 468 563 481 553 q 430 579 454 572 q 375 587 406 587 q 209 532 262 587 q 156 357 156 478 z "},"d":{"ha":719,"x_min":50,"x_max":600,"o":"m 157 324 q 191 157 157 214 q 308 100 225 100 q 385 112 354 100 q 435 145 415 123 q 481 208 455 166 l 481 505 q 401 562 450 536 q 311 589 353 589 q 192 528 227 589 q 157 324 157 468 m 588 181 l 588 163 q 600 5 588 84 l 489 -8 q 481 57 482 37 q 308 -5 412 -5 q 112 81 175 -5 q 50 311 50 166 q 57 439 50 384 q 82 544 64 494 q 130 625 100 593 q 208 675 160 657 q 320 694 256 694 q 481 644 403 694 l 481 784 q 471 951 481 852 l 579 957 q 589 781 589 880 l 588 181 z "},"e":{"ha":719,"x_min":53,"x_max":626,"o":"m 160 393 q 518 411 376 395 q 463 541 510 492 q 346 589 416 589 q 212 532 262 589 q 160 393 161 475 m 345 692 q 441 677 398 692 q 513 640 484 663 q 563 584 541 616 q 596 519 585 551 q 615 452 608 488 q 624 391 622 416 q 626 341 626 366 q 625 312 626 317 q 160 290 322 292 q 209 151 160 205 q 357 97 258 97 q 467 124 422 97 q 537 187 511 151 l 621 113 q 597 88 606 97 q 562 59 589 79 q 509 26 535 38 q 441 4 484 14 q 354 -7 399 -7 q 130 90 207 -7 q 53 350 53 186 q 130 597 53 501 q 345 692 206 692 z "},"f":{"ha":719,"x_min":76,"x_max":686,"o":"m 385 859 q 336 850 356 859 q 305 831 316 842 q 288 799 294 819 q 281 762 282 779 q 279 719 279 745 l 279 692 q 370 692 302 692 q 463 692 438 692 q 572 678 534 690 l 553 579 q 486 588 526 588 l 279 588 q 281 0 281 275 l 175 0 q 173 588 175 438 l 76 588 l 76 692 l 174 692 q 173 706 174 697 q 173 722 173 715 q 176 784 173 756 q 192 847 180 812 q 225 906 204 882 q 287 945 247 929 q 380 962 326 962 q 575 936 504 962 q 686 831 646 910 l 600 779 q 533 843 575 828 q 385 859 491 859 z "},"g":{"ha":719,"x_min":54,"x_max":654,"o":"m 161 -52 q 195 -135 161 -113 q 301 -157 229 -157 l 372 -157 q 432 -151 404 -157 q 487 -130 460 -144 q 529 -86 513 -115 q 545 -17 545 -57 q 361 48 545 48 q 218 47 317 48 q 176 9 191 36 q 161 -52 161 -18 m 323 378 q 434 404 391 378 q 477 479 477 431 q 440 567 477 541 q 334 593 404 593 q 218 560 264 593 q 172 481 172 528 q 323 378 172 378 m 64 474 q 136 638 64 580 q 334 696 208 696 q 506 655 439 696 q 565 689 533 681 q 654 697 596 697 l 654 586 q 625 589 634 589 q 563 574 578 589 q 583 481 583 538 q 513 331 583 387 q 326 276 442 276 q 191 298 248 276 q 162 231 162 264 q 284 151 162 151 q 345 152 293 151 q 407 153 397 153 q 499 144 458 153 q 576 117 541 136 q 632 64 612 98 q 652 -16 652 31 q 575 -203 652 -142 q 368 -263 499 -263 l 298 -263 q 120 -211 186 -263 q 54 -56 54 -159 q 113 93 54 41 q 56 222 56 136 q 106 357 56 300 q 64 474 64 404 z "},"h":{"ha":719,"x_min":68,"x_max":665,"o":"m 501 391 q 495 487 501 452 q 472 547 490 522 q 423 579 454 571 q 340 588 393 588 q 245 559 292 588 q 182 496 199 530 l 182 134 q 176 0 182 62 l 68 5 q 76 138 76 73 l 75 951 l 183 951 l 183 637 q 261 677 224 663 q 345 692 298 692 q 469 678 420 692 q 555 621 519 665 q 598 541 589 581 q 608 435 608 501 l 608 391 q 607 258 608 331 q 607 151 607 184 q 620 106 607 124 q 665 68 633 89 l 606 -12 q 566 14 582 2 q 534 43 550 25 q 509 85 517 61 q 501 141 501 110 l 501 391 z "},"i":{"ha":719,"x_min":62,"x_max":698,"o":"m 212 954 l 372 954 l 372 801 l 212 801 l 212 954 m 283 687 l 361 687 l 362 142 q 385 94 364 104 q 458 84 405 84 q 565 97 511 84 q 652 134 619 109 l 698 56 q 591 5 656 22 q 458 -12 526 -12 q 319 14 367 -12 q 256 140 256 48 l 256 581 q 81 562 163 581 l 62 659 q 283 687 184 687 z "},"j":{"ha":719,"x_min":62,"x_max":538,"o":"m 380 952 l 538 950 l 538 798 l 380 800 l 380 952 m 425 -77 l 425 586 l 414 586 q 251 566 335 586 l 232 663 q 452 691 355 691 l 531 691 l 531 -80 q 526 -137 531 -111 q 506 -186 520 -163 q 469 -227 492 -210 q 411 -253 447 -243 q 328 -262 375 -262 q 262 -258 292 -262 q 197 -238 233 -253 q 126 -191 161 -223 q 62 -109 92 -158 l 147 -42 q 195 -106 171 -81 q 241 -141 218 -131 q 278 -154 263 -151 q 314 -157 294 -157 l 326 -157 q 373 -148 352 -157 q 404 -125 393 -139 q 419 -100 414 -112 q 425 -77 425 -87 z "},"k":{"ha":719,"x_min":77,"x_max":652,"o":"m 397 384 q 475 420 446 384 q 503 505 503 457 q 498 539 503 525 q 474 575 492 559 q 427 591 456 591 q 370 576 400 591 q 199 480 274 531 l 199 419 q 333 393 252 411 q 397 384 374 384 m 199 597 q 311 660 249 631 q 421 689 374 689 q 546 650 492 689 q 606 552 600 612 q 610 496 610 526 q 604 433 610 462 q 571 369 600 409 q 495 308 541 330 q 541 253 524 286 q 570 179 557 220 q 596 117 583 138 q 652 60 614 88 l 595 -13 q 553 15 572 -2 q 523 46 534 33 q 500 84 512 60 q 485 118 488 109 q 473 154 481 127 q 470 161 471 159 q 426 225 458 196 q 353 273 393 255 q 273 303 312 292 q 199 318 234 314 q 198 87 198 189 q 198 39 198 69 q 199 0 199 9 l 92 0 l 92 833 q 77 938 92 888 l 180 968 q 199 877 199 921 l 199 597 z "},"l":{"ha":719,"x_min":56,"x_max":698,"o":"m 281 965 l 360 965 q 362 144 360 965 q 385 95 364 105 q 458 85 405 85 q 565 98 511 85 q 652 135 619 111 l 698 58 q 591 6 656 24 q 458 -11 526 -11 q 319 15 367 -11 q 256 141 256 50 l 254 860 q 233 860 250 860 q 204 861 216 861 q 75 849 125 861 l 56 946 q 281 965 138 965 z "},"m":{"ha":719,"x_min":18,"x_max":696,"o":"m 519 696 q 578 675 553 696 q 614 622 602 654 q 630 559 625 589 q 634 501 634 530 l 634 146 q 653 104 634 123 q 696 76 672 85 l 655 -14 q 616 -1 635 -10 q 579 25 597 9 q 550 68 562 41 q 539 130 539 96 l 539 131 l 539 515 l 539 524 q 496 592 539 592 q 386 469 442 592 l 386 0 l 290 0 l 290 547 q 289 568 290 559 q 280 584 288 576 q 258 592 272 592 q 198 562 230 592 q 136 469 165 532 l 136 0 l 41 0 l 39 553 q 18 683 39 625 l 120 710 q 134 658 127 695 q 141 595 140 621 q 205 666 165 637 q 281 696 245 696 q 356 665 328 696 q 385 595 385 633 q 519 696 440 696 z "},"n":{"ha":719,"x_min":54,"x_max":680,"o":"m 183 629 q 300 678 249 663 q 406 693 351 693 q 472 683 437 693 q 537 654 507 673 q 588 606 568 636 q 608 540 608 576 l 608 143 q 613 117 608 128 q 629 96 617 105 q 647 81 640 86 q 673 67 654 77 q 675 65 675 66 q 677 64 676 65 q 680 63 679 64 l 623 -13 q 578 12 595 1 q 541 40 561 22 q 511 83 521 58 q 501 138 501 107 l 501 519 q 466 572 501 553 q 391 591 430 591 q 313 573 360 591 q 183 515 267 555 l 183 0 l 76 -1 l 76 478 q 74 572 76 537 q 68 624 71 607 q 54 680 64 641 l 163 705 q 183 629 176 674 z "},"o":{"ha":719,"x_min":49,"x_max":612,"o":"m 444 146 q 504 359 504 203 q 504 372 504 359 q 463 534 503 473 q 339 595 424 595 q 251 576 288 595 q 195 518 215 556 q 165 432 174 480 q 156 318 156 383 q 200 162 156 218 q 328 106 244 106 q 392 115 367 106 q 444 146 418 124 m 327 1 q 120 85 191 1 q 49 315 49 169 q 57 431 49 376 q 86 535 66 486 q 136 621 106 585 q 212 679 166 657 q 316 700 258 700 q 474 666 414 700 q 572 564 535 633 q 612 368 612 486 q 603 255 612 307 q 574 156 595 203 q 523 74 554 108 q 441 21 491 41 q 328 1 392 1 l 327 1 z "},"p":{"ha":719,"x_min":73,"x_max":624,"o":"m 517 357 q 483 525 517 468 q 366 582 448 582 q 289 570 319 582 q 238 537 258 558 q 192 473 218 515 l 192 178 q 254 123 235 136 q 328 100 289 100 q 517 357 517 100 m 86 501 l 86 517 q 73 677 86 592 l 184 690 q 192 625 191 646 q 365 687 261 687 q 561 601 498 687 q 624 370 624 515 q 318 -5 624 -5 q 294 -4 306 -5 q 275 -1 283 -3 q 257 3 267 0 q 242 8 247 7 q 228 15 237 10 q 216 22 219 20 q 203 30 213 24 q 192 38 194 37 l 192 -102 q 203 -269 192 -164 l 95 -275 q 85 -99 85 -198 l 86 501 z "},"q":{"ha":719,"x_min":77,"x_max":628,"o":"m 183 357 q 373 100 183 100 q 409 106 391 100 q 436 116 427 112 q 465 137 446 121 q 487 155 484 153 q 509 178 490 158 l 509 473 q 463 537 483 515 q 412 570 443 558 q 336 582 382 582 q 218 525 253 582 q 183 357 183 467 m 616 517 l 616 -102 q 626 -269 616 -170 l 518 -275 q 509 -99 509 -204 l 509 38 q 499 31 507 37 q 488 24 490 26 q 477 18 485 22 q 465 11 469 13 q 453 6 460 9 q 438 1 445 3 q 422 -2 431 0 q 403 -4 413 -3 q 382 -5 393 -5 q 77 370 77 -5 q 92 497 77 440 q 136 596 106 553 q 217 663 166 640 q 336 687 268 687 q 509 625 440 687 q 517 690 510 646 l 628 677 q 616 517 616 596 z "},"r":{"ha":719,"x_min":73,"x_max":633,"o":"m 251 593 q 353 672 297 650 q 490 695 408 695 q 602 645 570 695 q 633 494 633 594 l 633 490 l 528 490 q 527 512 528 497 q 526 534 526 528 q 524 551 526 540 q 518 567 522 562 q 509 577 515 571 q 493 585 503 583 q 471 587 484 587 q 416 580 441 587 q 360 556 390 573 q 301 502 330 538 q 248 411 273 465 l 248 0 l 142 1 l 142 518 q 142 530 142 524 q 138 542 141 536 q 134 552 136 547 q 127 562 132 556 q 120 571 122 568 q 110 581 117 574 q 99 591 102 588 q 86 602 96 594 q 73 614 77 610 l 144 709 q 164 693 149 705 q 185 677 179 682 q 203 661 191 672 q 222 641 215 650 q 237 620 229 633 q 251 593 245 607 z "},"s":{"ha":719,"x_min":80,"x_max":608,"o":"m 182 386 q 103 531 103 428 q 170 656 104 614 q 332 698 235 698 q 477 674 404 698 q 590 602 551 650 l 513 527 q 437 577 487 557 q 342 597 387 597 q 247 581 284 597 q 210 534 210 565 q 219 496 210 510 q 250 473 229 483 q 318 447 279 461 q 384 424 357 433 q 444 401 412 414 q 498 375 476 388 q 543 345 520 363 q 578 305 565 326 q 600 255 591 284 q 608 191 608 226 q 564 65 608 114 q 458 0 519 16 q 340 -14 399 -14 q 146 49 213 -14 q 80 224 80 112 l 186 223 q 338 83 186 83 q 454 112 406 83 q 503 194 503 141 q 489 242 503 224 q 444 285 475 261 q 315 337 416 305 q 182 386 214 369 z "},"t":{"ha":719,"x_min":65,"x_max":662,"o":"m 243 296 l 243 269 q 343 103 243 113 q 416 101 361 101 q 521 117 492 101 q 576 188 557 137 l 662 150 q 660 142 662 149 q 655 131 657 135 q 650 119 654 127 q 643 104 647 111 q 634 89 640 98 q 621 73 628 80 q 606 57 614 65 q 587 40 597 48 q 564 25 576 32 q 418 -4 514 -4 q 348 -2 376 -4 q 288 7 319 0 q 236 26 258 14 q 196 59 215 38 q 162 109 176 79 q 136 267 136 163 l 136 296 q 139 429 137 333 q 144 587 142 524 l 134 587 q 79 579 106 587 l 65 678 q 134 686 87 686 l 144 686 q 145 766 144 710 q 145 845 145 821 l 252 844 q 251 690 252 782 l 334 690 l 536 691 l 549 691 l 549 591 l 334 591 q 293 590 318 591 q 253 589 269 589 q 247 413 250 509 q 243 296 244 316 z "},"u":{"ha":719,"x_min":62,"x_max":670,"o":"m 614 -7 q 576 23 590 11 q 547 57 562 35 q 524 107 531 80 q 423 30 476 58 q 300 1 370 3 l 294 1 q 153 30 195 1 q 77 145 77 82 q 77 262 77 186 q 76 395 77 339 q 75 514 76 452 q 70 617 73 576 q 62 674 67 658 l 170 692 q 177 641 174 675 q 181 550 180 608 q 182 446 182 492 q 183 310 182 401 q 183 170 183 220 q 217 118 189 139 q 289 106 234 106 q 397 134 355 109 q 413 144 399 136 q 433 155 427 152 q 451 168 438 159 q 470 185 463 178 q 486 206 477 193 q 501 233 495 219 l 501 692 l 608 692 l 608 162 q 670 73 610 121 l 614 -7 z "},"v":{"ha":719,"x_min":16,"x_max":618,"o":"m 104 711 q 153 647 137 675 q 184 576 169 618 q 232 448 186 570 q 307 238 278 325 q 340 120 336 151 q 457 323 405 195 q 512 554 509 452 q 513 620 513 573 q 511 686 513 673 l 614 688 q 618 557 618 670 q 556 292 617 438 q 416 48 495 146 q 352 7 390 16 q 249 -2 315 -2 q 184 253 249 60 q 71 569 120 446 q 48 607 66 580 q 16 646 29 633 l 104 711 z "},"w":{"ha":719,"x_min":4,"x_max":671,"o":"m 4 662 l 104 713 q 164 539 144 645 q 182 414 175 481 q 191 308 189 347 q 195 193 193 269 q 198 101 197 117 q 289 174 258 101 q 321 380 321 248 l 321 559 l 416 559 l 416 353 q 417 309 416 330 q 422 267 418 288 q 428 231 425 245 q 437 194 431 216 q 445 162 443 171 q 455 129 448 153 q 465 100 463 104 q 545 191 513 100 q 576 462 576 281 q 559 692 576 597 l 665 692 q 671 481 671 641 q 610 119 671 238 q 439 0 550 0 l 426 0 l 403 0 q 385 64 400 11 q 364 142 370 117 q 152 -2 299 0 l 148 -2 l 144 -2 q 103 6 121 -1 q 101 72 103 10 q 96 185 98 134 q 88 307 93 237 q 75 436 83 376 q 56 536 66 496 q 33 602 49 564 q 4 662 16 641 z "},"x":{"ha":719,"x_min":44,"x_max":644,"o":"m 583 585 q 504 459 555 537 q 415 331 453 382 q 474 248 436 303 q 539 154 512 193 q 572 112 566 116 q 609 106 581 106 q 644 110 623 106 l 644 6 q 602 2 617 2 q 521 29 559 2 q 479 68 504 40 q 437 123 455 97 q 388 194 418 149 q 345 257 358 239 q 126 -12 273 163 l 44 57 q 82 105 47 62 q 173 218 116 148 q 278 347 231 289 q 54 651 168 500 l 142 720 q 272 537 193 650 q 351 423 351 425 q 486 631 403 486 q 509 691 500 657 l 616 692 q 583 585 608 624 z "},"y":{"ha":719,"x_min":38,"x_max":632,"o":"m 228 -151 q 250 -147 239 -151 q 271 -134 261 -143 q 289 -117 281 -125 q 305 -92 297 -108 q 319 -66 313 -77 q 332 -37 325 -56 q 343 -8 340 -18 q 353 21 347 1 q 362 46 360 41 q 124 568 243 460 q 50 589 101 589 l 50 692 q 125 687 87 692 q 425 195 260 667 q 493 447 465 312 q 525 692 521 582 l 632 692 q 623 578 632 631 q 420 -96 558 228 q 346 -214 391 -172 q 231 -255 302 -255 q 38 0 38 -255 l 144 0 q 164 -119 144 -86 q 228 -151 184 -151 z "},"z":{"ha":719,"x_min":48,"x_max":646,"o":"m 65 593 l 83 695 q 272 692 115 692 l 596 692 l 612 614 q 581 578 612 613 q 493 481 551 544 q 374 355 436 418 q 292 270 319 298 q 228 194 264 241 q 167 106 191 148 l 532 105 q 646 83 580 105 l 619 -15 q 604 -10 615 -14 q 588 -6 592 -7 q 574 -3 584 -5 q 555 -1 565 -1 q 533 0 546 0 l 48 0 l 48 14 q 63 128 48 97 q 97 189 78 159 q 142 250 115 218 q 187 302 169 282 q 242 362 205 323 q 296 419 280 402 q 457 584 383 515 l 436 584 q 358 585 415 584 q 270 585 301 585 q 65 593 113 585 z "},"{":{"ha":719,"x_min":186,"x_max":600,"o":"m 186 359 l 186 468 q 236 483 217 477 q 281 502 256 489 q 320 527 306 514 q 345 562 334 541 q 355 610 355 583 q 341 680 355 640 q 336 693 340 683 q 331 707 332 704 q 326 721 330 711 q 321 735 323 730 q 317 749 320 740 q 313 764 314 758 q 310 778 312 769 q 307 792 308 786 q 306 807 307 799 q 305 821 305 814 q 342 921 305 877 q 394 964 365 947 q 461 990 424 981 q 526 1001 498 998 q 597 1006 555 1004 l 600 899 q 479 887 507 895 q 420 815 422 867 q 440 714 420 782 q 461 606 461 646 q 420 480 461 533 q 328 414 380 427 q 420 348 380 401 q 461 222 461 294 q 440 114 461 182 q 420 12 420 45 q 429 -24 420 -9 q 451 -47 437 -39 q 487 -60 464 -56 q 530 -67 510 -65 q 583 -70 551 -68 q 600 -71 594 -71 l 597 -178 q 526 -173 553 -176 q 461 -162 498 -170 q 394 -137 424 -154 q 342 -94 365 -119 q 305 6 305 -50 q 306 22 305 14 q 308 39 307 30 q 311 54 310 47 q 315 71 312 60 q 319 86 318 81 q 325 102 321 90 q 330 117 329 114 q 336 133 331 119 q 341 147 340 146 q 355 218 355 188 q 345 266 355 244 q 320 300 334 287 q 281 326 306 313 q 236 345 256 338 q 186 359 217 351 z "},"|":{"ha":719,"x_min":258,"x_max":375,"o":"m 264 103 q 261 546 264 233 q 258 949 258 858 l 258 1012 l 367 1012 l 367 913 q 371 547 367 825 q 375 152 375 270 l 375 50 q 371 -134 375 -52 l 262 -134 q 265 -25 265 -81 q 265 29 265 -12 q 264 103 264 71 z "},"}":{"ha":719,"x_min":117,"x_max":531,"o":"m 531 359 q 481 345 500 351 q 437 326 462 338 q 397 300 412 313 q 373 266 383 287 q 362 218 362 244 q 376 147 362 188 q 381 134 377 144 q 387 120 385 123 q 391 107 388 117 q 396 92 395 97 q 400 78 397 87 q 405 64 404 69 q 408 50 406 58 q 410 35 410 41 q 412 21 411 28 q 412 6 412 13 q 375 -94 412 -50 q 323 -137 353 -119 q 256 -162 294 -154 q 192 -173 219 -170 q 121 -178 164 -176 l 117 -71 q 236 -60 210 -66 q 297 2 292 -45 q 298 12 298 7 q 277 114 298 45 q 256 222 256 182 q 297 348 256 294 q 390 414 338 401 q 297 480 338 427 q 256 606 256 533 q 277 714 256 646 q 298 815 298 782 q 293 847 298 833 q 274 869 288 861 q 250 884 260 878 q 214 892 239 889 q 176 896 189 895 q 131 899 163 897 q 117 899 122 899 l 121 1006 q 191 1001 163 1004 q 257 990 220 998 q 323 964 294 981 q 375 921 353 947 q 412 821 412 877 q 412 805 412 813 q 409 789 411 798 q 407 773 408 780 q 402 756 406 767 q 398 742 399 746 q 393 725 397 737 q 388 711 389 713 q 382 695 387 708 q 376 680 377 682 q 362 610 362 640 q 373 562 362 583 q 397 527 383 541 q 437 502 412 514 q 481 483 462 489 q 531 468 500 477 l 531 359 z "},"~":{"ha":719,"x_min":21,"x_max":673,"o":"m 227 509 q 303 490 263 509 q 371 449 342 471 q 430 409 399 427 q 480 390 460 390 q 518 401 501 390 q 547 432 536 413 q 565 470 558 452 q 576 507 572 488 l 673 466 q 477 286 626 286 q 415 298 446 286 q 360 328 385 311 q 312 362 335 345 q 265 392 289 380 q 220 404 241 404 q 163 378 193 404 q 109 306 134 351 l 21 368 q 105 475 59 441 q 227 509 151 509 z "}," ":{"ha":719,"x_min":0,"x_max":0,"o":""},"¡":{"ha":719,"x_min":267,"x_max":437,"o":"m 287 -205 l 296 397 l 408 397 l 421 -205 l 287 -205 m 437 507 l 268 506 l 267 689 l 437 690 l 437 507 z "},"¢":{"ha":719,"x_min":96,"x_max":576,"o":"m 343 193 q 345 193 343 193 q 425 207 389 193 q 475 240 461 220 l 483 251 l 576 195 l 568 184 q 395 92 514 105 l 395 -6 l 286 -6 l 286 94 q 191 132 230 105 q 118 214 139 166 q 96 332 96 262 l 96 340 q 150 511 96 448 q 286 587 202 570 l 286 701 l 396 701 l 396 588 q 543 471 507 572 l 436 433 l 433 448 q 410 481 428 473 q 348 488 392 488 q 238 446 273 488 q 206 349 206 409 q 238 236 206 279 q 332 192 271 192 q 337 192 334 192 q 343 193 341 193 z "},"£":{"ha":719,"x_min":41,"x_max":675,"o":"m 209 126 q 182 156 198 136 q 159 182 167 177 q 148 164 153 178 q 143 136 143 151 l 143 132 q 164 94 145 94 q 209 126 183 94 m 584 469 q 411 463 534 463 l 332 463 q 357 261 356 340 q 344 156 357 208 q 430 106 399 120 q 504 93 462 93 q 559 102 549 93 q 569 145 569 112 l 569 155 l 675 157 l 675 129 q 633 25 673 60 q 522 -11 594 -10 q 300 64 417 -11 q 235 11 275 31 q 151 -9 195 -9 q 71 31 101 -9 q 41 130 41 71 q 111 279 41 239 q 145 288 126 288 l 151 288 q 190 276 170 288 q 222 254 211 264 q 249 227 233 243 q 250 269 250 240 q 224 465 250 338 q 128 466 189 466 l 117 466 l 117 569 l 204 569 q 188 707 188 658 q 241 863 188 810 q 392 916 294 916 q 510 872 463 916 q 573 758 556 827 l 473 729 q 464 760 469 747 q 450 785 458 772 q 426 805 441 798 q 392 812 412 812 l 388 812 q 295 713 295 812 q 313 566 295 671 l 412 568 l 451 568 q 584 572 540 568 l 584 469 z "},"¤":{"ha":719,"x_min":73,"x_max":647,"o":"m 466 354 q 440 459 466 419 q 371 504 414 500 l 361 503 q 258 313 258 492 q 281 208 258 242 q 359 173 305 173 q 439 222 412 173 q 466 354 466 272 m 146 313 l 146 317 q 176 473 146 398 l 81 576 l 161 648 l 241 562 q 357 611 286 608 l 368 611 q 439 600 410 611 q 494 565 468 589 l 570 642 l 647 574 l 555 473 q 576 353 576 419 q 542 193 574 256 l 640 87 l 560 16 l 475 108 q 355 66 422 66 q 230 113 285 67 l 145 29 l 73 96 l 163 203 q 146 313 146 247 z "},"¥":{"ha":719,"x_min":22,"x_max":656,"o":"m 273 254 q 197 254 273 254 q 53 250 117 254 l 53 360 l 64 360 q 275 365 210 365 l 275 416 q 250 456 270 422 q 54 465 199 456 l 54 509 q 56 572 54 551 q 185 566 116 569 q 22 870 67 777 l 117 919 q 200 762 136 880 q 310 565 264 644 l 360 565 q 478 766 412 646 q 562 928 544 886 l 656 873 q 503 593 580 718 l 487 569 q 618 571 546 571 l 631 571 l 631 463 l 618 463 q 416 458 587 463 q 402 437 410 448 q 391 418 395 425 q 384 408 386 412 q 383 364 384 379 q 497 362 421 363 q 616 359 573 360 l 627 359 l 625 250 l 613 250 q 511 251 595 250 q 381 254 427 253 q 379 87 379 142 l 379 -4 l 271 -4 l 271 97 q 273 254 271 129 z "},"¦":{"ha":719,"x_min":258,"x_max":378,"o":"m 375 358 q 378 105 378 208 q 373 -132 378 -44 l 264 -132 q 267 -20 267 -69 l 267 80 q 264 358 267 190 l 375 358 m 263 526 q 258 949 258 842 l 258 1012 l 367 1012 l 367 926 q 373 526 367 907 l 263 526 z "},"§":{"ha":719,"x_min":81,"x_max":609,"o":"m 460 216 q 491 237 484 226 q 498 266 498 248 l 498 277 q 473 322 495 302 q 337 421 433 359 q 233 490 242 484 q 196 466 204 477 q 189 432 189 455 q 216 386 189 410 q 288 329 247 358 q 382 267 329 300 q 460 216 435 234 m 111 705 q 131 802 111 758 q 184 872 151 846 q 256 913 217 899 q 335 928 295 928 q 486 877 427 928 q 547 733 545 826 l 445 732 q 437 774 444 762 q 412 802 431 787 q 335 823 386 823 q 252 792 287 821 q 216 715 216 763 q 217 691 216 702 q 221 669 218 680 q 227 652 225 659 q 237 636 229 646 q 249 623 245 627 q 265 609 252 618 q 283 595 278 599 q 307 579 289 591 q 334 561 326 566 q 396 520 346 553 q 481 461 446 488 q 547 403 516 435 q 609 275 609 342 q 593 192 609 224 q 542 134 576 160 q 581 4 578 82 l 581 -2 q 559 -98 581 -56 q 504 -166 538 -141 q 430 -205 470 -192 q 350 -218 391 -218 q 197 -167 257 -218 q 134 -21 137 -116 l 239 -20 q 251 -65 244 -52 q 273 -92 257 -79 q 349 -113 301 -113 q 436 -84 400 -112 q 471 -6 471 -56 q 466 37 471 15 q 353 149 454 83 q 313 174 344 155 q 267 203 283 193 q 226 232 252 214 q 179 268 200 250 q 138 305 157 286 q 81 435 81 366 q 99 513 81 484 q 153 570 117 543 q 122 634 134 597 q 111 705 111 671 z "},"¨":{"ha":719,"x_min":94,"x_max":529,"o":"m 94 892 l 254 890 l 254 737 l 94 739 l 94 892 m 370 890 l 529 888 l 529 735 l 370 737 l 370 890 z "},"©":{"ha":719,"x_min":11,"x_max":720,"o":"m 141 544 q 124 511 141 544 q 106 402 106 479 q 141 261 106 326 q 237 159 176 196 q 368 121 297 121 q 498 159 439 121 q 591 261 557 196 q 625 402 625 326 q 591 544 625 479 q 498 646 557 608 q 368 683 439 683 q 237 646 297 683 q 141 544 176 608 m 39 256 q 25 291 39 256 q 11 402 11 326 q 39 548 11 478 q 115 668 67 617 q 228 748 162 718 q 366 777 294 777 q 477 758 423 777 q 575 705 532 739 q 652 624 619 670 q 703 520 685 578 q 720 401 720 463 q 703 283 720 340 q 652 180 685 226 q 575 99 619 134 q 478 45 532 64 q 366 26 424 26 q 228 56 294 26 q 115 136 162 86 q 39 256 67 186 m 373 506 q 313 474 334 506 q 291 394 291 443 q 312 326 291 357 q 372 295 333 295 q 421 304 403 295 q 454 342 440 314 l 537 296 q 372 202 485 202 q 309 213 339 202 q 253 244 279 223 q 211 304 227 266 q 195 393 195 342 q 245 542 195 484 q 375 599 294 599 q 462 576 417 599 q 528 510 507 553 l 446 461 q 416 496 430 487 q 373 506 403 506 z "},"ª":{"ha":719,"x_min":96,"x_max":614,"o":"m 96 458 l 609 458 l 609 362 l 96 362 l 96 458 m 193 672 q 210 625 193 642 q 260 608 228 608 q 377 633 332 608 q 455 716 422 659 q 321 760 414 760 q 227 734 260 760 q 193 672 193 708 m 107 983 q 328 1042 201 1042 q 451 1012 400 1042 q 526 928 502 981 q 551 801 551 874 l 551 731 q 562 636 551 650 q 614 589 581 609 l 557 509 q 477 605 508 540 q 260 511 399 511 q 142 553 187 511 q 96 662 96 594 q 115 744 96 708 q 163 801 133 780 q 230 833 194 822 q 307 844 267 844 q 394 833 353 844 q 454 809 435 823 q 426 910 454 873 q 329 946 398 946 q 229 937 267 946 q 155 901 191 928 l 107 983 z "},"«":{"ha":719,"x_min":48,"x_max":597,"o":"m 286 391 q 415 517 357 440 q 493 663 472 593 l 597 625 q 415 350 545 467 q 582 91 537 244 l 586 79 l 481 43 q 410 189 456 127 q 286 305 364 252 l 286 391 m 48 389 q 84 422 56 397 q 123 456 113 447 q 157 489 134 466 q 192 524 181 511 q 219 556 202 536 q 245 592 237 577 q 261 626 253 608 q 272 662 269 644 l 378 637 q 348 550 368 591 q 296 472 328 509 q 239 411 264 435 q 174 351 214 387 q 297 217 250 281 q 366 74 345 154 l 262 37 q 195 166 245 106 q 48 311 145 225 l 48 389 z "},"¬":{"ha":719,"x_min":100,"x_max":616,"o":"m 100 401 q 336 407 205 407 q 417 407 336 407 q 603 406 458 407 l 616 406 q 616 118 616 406 l 511 118 l 511 301 q 335 304 389 304 q 104 298 220 304 l 104 355 l 100 401 z "},"­":{"ha":719,"x_min":100,"x_max":615,"o":"m 100 401 q 336 407 205 407 q 417 407 336 407 q 603 406 458 407 l 615 406 l 615 302 l 603 302 q 335 304 511 304 q 104 298 220 304 l 104 355 l 100 401 z "},"®":{"ha":719,"x_min":11,"x_max":720,"o":"m 438 355 q 486 293 452 328 q 538 254 519 259 l 490 186 q 407 254 449 201 q 349 343 364 307 q 327 348 339 345 q 307 353 315 351 l 299 355 l 300 192 l 222 192 l 222 499 q 219 594 222 550 q 364 609 311 609 q 487 576 445 609 q 528 465 528 543 q 502 400 528 433 q 438 355 476 368 m 448 464 q 430 510 448 495 q 366 524 411 524 q 298 519 334 524 l 299 437 q 378 417 345 417 q 430 432 411 417 q 448 464 448 447 m 141 544 q 124 511 141 544 q 106 402 106 479 q 141 261 106 326 q 237 159 176 196 q 368 121 297 121 q 498 159 439 121 q 591 261 557 196 q 625 402 625 326 q 591 544 625 479 q 498 646 557 608 q 368 683 439 683 q 237 646 297 683 q 141 544 176 608 m 39 256 q 25 291 39 256 q 11 402 11 326 q 39 548 11 478 q 115 668 67 617 q 228 748 162 718 q 366 777 294 777 q 477 758 423 777 q 575 705 532 739 q 652 624 619 670 q 703 520 685 578 q 720 401 720 463 q 703 283 720 340 q 652 180 685 226 q 575 99 619 134 q 478 45 532 64 q 366 26 424 26 q 228 56 294 26 q 115 136 162 86 q 39 256 67 186 z "},"¯":{"ha":719,"x_min":155,"x_max":463,"o":"m 155 909 q 239 905 185 905 q 288 906 254 905 q 340 906 322 906 l 463 906 l 463 803 l 451 803 q 314 802 412 802 q 259 802 314 802 q 155 804 188 802 l 155 909 z "},"°":{"ha":719,"x_min":134,"x_max":484,"o":"m 185 620 q 159 646 185 620 q 134 743 134 671 q 185 867 134 815 q 309 918 236 918 q 432 867 381 918 q 484 743 484 815 q 432 620 484 671 q 309 568 381 568 q 185 620 236 568 m 257 795 q 246 784 257 795 q 235 743 235 774 q 257 691 235 713 q 309 670 278 670 q 360 691 339 670 q 382 743 382 713 q 360 795 382 774 q 309 817 339 817 q 257 795 278 817 z "},"±":{"ha":719,"x_min":56,"x_max":641,"o":"m 56 557 q 289 550 184 550 l 290 795 l 399 794 l 397 549 q 496 553 435 550 q 629 555 557 555 l 641 555 l 641 454 l 629 454 q 541 453 573 454 q 473 450 509 452 q 397 446 437 448 l 397 439 q 397 332 397 401 q 396 233 396 262 q 512 230 451 232 q 629 227 572 229 l 641 227 l 641 125 l 629 125 q 289 130 298 130 q 73 126 203 130 l 60 126 l 60 228 l 72 228 q 154 230 113 229 q 223 233 195 232 q 288 233 251 233 q 288 333 288 264 q 289 440 289 403 l 289 447 q 56 456 212 447 l 56 557 z "},"²":{"ha":719,"x_min":153,"x_max":560,"o":"m 161 891 q 228 1000 172 964 q 363 1036 283 1036 q 498 995 444 1036 q 552 880 552 954 q 551 852 552 865 q 545 827 549 839 q 538 806 541 815 q 525 787 534 798 q 511 771 516 777 q 491 755 505 764 q 470 740 477 745 q 443 724 462 734 q 413 708 424 713 q 379 690 403 703 q 358 680 373 687 q 338 669 344 672 q 320 660 332 666 q 303 649 309 653 q 291 639 298 645 q 281 628 284 633 q 276 618 277 623 l 560 621 l 560 522 l 155 522 q 153 586 153 565 q 176 667 153 631 q 192 686 181 676 q 213 703 203 696 q 242 721 223 711 q 271 736 261 732 q 303 753 280 741 q 332 767 326 764 q 415 814 388 795 q 449 847 443 834 q 456 878 456 859 q 429 922 456 905 q 366 939 402 939 q 291 922 315 939 q 260 867 267 905 l 161 891 z "},"³":{"ha":719,"x_min":137,"x_max":556,"o":"m 209 669 q 270 622 239 636 q 347 607 301 607 q 430 625 404 607 q 456 673 456 644 q 319 750 456 750 l 323 828 q 351 827 344 827 q 433 896 433 827 q 411 932 433 918 q 350 946 389 946 q 254 912 288 946 l 188 990 q 345 1038 248 1038 l 352 1038 q 476 1000 429 1038 q 522 901 522 962 q 480 799 522 833 q 556 674 556 758 q 499 553 556 594 q 347 513 443 513 q 228 532 274 513 q 137 601 181 552 l 209 669 z "},"´":{"ha":719,"x_min":150,"x_max":518,"o":"m 150 915 q 302 989 221 939 q 444 1097 384 1040 l 518 997 q 371 892 465 944 q 195 814 277 841 l 150 915 z "},"µ":{"ha":719,"x_min":62,"x_max":670,"o":"m 614 -7 q 576 23 590 11 q 547 57 562 35 q 524 107 531 80 q 423 30 476 58 q 300 1 370 3 l 294 1 q 182 15 219 1 l 180 -271 l 74 -271 l 77 145 q 77 262 77 186 q 76 395 77 339 q 75 514 76 452 q 70 617 73 576 q 62 674 67 658 l 170 692 q 177 641 174 675 q 181 550 180 608 q 182 446 182 492 q 183 310 182 401 q 183 170 183 220 q 217 118 189 139 q 289 106 234 106 q 397 134 355 109 q 413 144 399 136 q 433 155 427 152 q 451 168 438 159 q 470 185 463 178 q 486 206 477 193 q 501 233 495 219 l 502 692 l 609 692 l 608 162 q 670 73 610 121 l 614 -7 z "},"¶":{"ha":719,"x_min":24,"x_max":616,"o":"m 512 706 l 512 793 q 471 794 500 793 q 421 796 441 795 q 421 585 421 722 q 422 336 422 448 q 423 125 422 224 q 416 46 423 83 q 401 -5 409 10 l 395 -20 l 290 15 q 298 30 294 20 q 310 76 302 39 q 318 155 318 112 l 317 321 q 168 353 227 327 q 70 435 109 378 q 33 522 42 475 q 24 627 24 568 q 74 796 24 736 q 138 852 102 831 q 221 884 174 874 q 311 898 268 895 q 420 901 355 901 q 522 898 467 901 q 616 895 578 895 l 616 -6 l 513 -7 q 513 322 513 98 q 512 706 512 546 z "},"·":{"ha":719,"x_min":326,"x_max":496,"o":"m 326 445 l 496 445 l 496 262 l 326 262 l 326 445 z "},"¸":{"ha":719,"x_min":273,"x_max":529,"o":"m 425 38 q 424 -13 424 33 q 501 -46 473 -16 q 529 -129 529 -76 q 490 -210 529 -178 q 404 -243 450 -243 q 273 -201 337 -243 l 298 -130 q 367 -157 342 -153 q 382 -158 375 -158 q 419 -148 402 -158 q 437 -119 435 -137 l 437 -117 q 420 -92 437 -102 q 378 -81 403 -81 q 359 -82 367 -81 q 347 -84 351 -83 q 337 -88 344 -85 q 326 -92 330 -91 l 326 35 l 425 38 z "},"¹":{"ha":719,"x_min":141,"x_max":486,"o":"m 375 1036 l 486 1025 l 486 522 l 387 522 l 388 899 q 294 825 352 859 q 170 768 235 790 l 141 857 q 276 922 215 876 q 375 1036 338 968 z "},"º":{"ha":719,"x_min":96,"x_max":609,"o":"m 491 792 q 458 904 491 869 q 352 939 425 939 q 304 934 326 939 q 265 919 283 930 q 233 890 246 907 q 213 845 220 873 q 206 782 206 818 q 341 610 206 610 q 425 626 393 610 q 474 683 456 642 q 491 792 491 723 m 340 514 q 210 546 262 514 q 134 637 158 578 q 110 779 110 695 q 122 875 110 831 q 155 948 134 919 q 205 997 176 977 q 264 1026 233 1017 q 329 1035 295 1035 q 525 974 463 1035 q 587 801 587 912 q 573 665 587 720 q 529 577 559 610 q 452 529 498 543 q 340 514 407 514 m 96 458 l 609 458 l 609 362 l 96 362 l 96 458 z "},"»":{"ha":719,"x_min":84,"x_max":631,"o":"m 387 306 q 257 181 315 257 q 178 35 199 105 l 74 75 q 258 348 128 232 q 94 608 137 455 l 90 621 l 195 656 q 264 509 219 571 q 388 392 310 446 l 387 306 m 625 306 q 588 273 617 298 q 549 239 560 248 q 515 207 539 230 q 480 172 491 185 q 452 140 470 160 q 426 104 435 119 q 410 71 418 89 q 399 35 402 52 l 293 61 q 324 147 303 106 q 377 225 344 188 q 434 286 409 262 q 500 345 459 310 q 377 480 424 416 q 310 623 330 543 l 413 659 q 480 530 430 590 q 625 384 529 470 l 625 306 z "},"¼":{"ha":719,"x_min":53,"x_max":659,"o":"m 53 458 l 659 458 l 659 362 l 53 362 l 53 458 m 399 -14 l 399 160 q 256 -14 332 68 l 399 -14 m 139 -11 q 393 296 299 165 l 494 296 l 494 -12 l 581 -9 l 581 -110 l 494 -108 l 496 -214 l 395 -214 l 397 -108 l 174 -108 l 139 -11 m 375 1036 l 486 1025 l 486 522 l 387 522 l 388 899 q 294 825 352 859 q 170 768 235 790 l 141 857 q 276 922 215 876 q 375 1036 338 968 z "},"½":{"ha":719,"x_min":53,"x_max":659,"o":"m 53 458 l 659 458 l 659 362 l 53 362 l 53 458 m 161 159 q 228 267 172 231 q 363 303 283 303 q 498 262 444 303 q 552 147 552 222 q 551 119 552 132 q 545 95 549 106 q 538 74 541 83 q 525 55 534 65 q 511 38 516 45 q 491 22 505 32 q 470 7 477 13 q 443 -8 462 2 q 413 -24 424 -19 q 379 -42 403 -30 q 358 -53 373 -45 q 338 -63 344 -60 q 320 -73 332 -66 q 303 -83 309 -79 q 291 -93 298 -87 q 281 -104 284 -99 q 276 -115 277 -109 l 560 -111 l 560 -211 l 155 -211 q 153 -146 153 -168 q 176 -65 153 -102 q 192 -46 181 -56 q 213 -29 203 -37 q 242 -11 223 -22 q 271 4 261 -1 q 303 20 280 9 q 332 35 326 32 q 415 82 388 62 q 449 114 443 102 q 456 146 456 127 q 429 190 456 173 q 366 207 402 207 q 291 190 315 207 q 260 135 267 172 l 161 159 m 375 1036 l 486 1025 l 486 522 l 387 522 l 388 899 q 294 825 352 859 q 170 768 235 790 l 141 857 q 276 922 215 876 q 375 1036 338 968 z "},"¾":{"ha":719,"x_min":53,"x_max":659,"o":"m 53 458 l 659 458 l 659 362 l 53 362 l 53 458 m 399 -14 l 399 160 q 256 -14 332 68 l 399 -14 m 139 -11 q 393 296 299 165 l 494 296 l 494 -12 l 581 -9 l 581 -110 l 494 -108 l 496 -214 l 395 -214 l 397 -108 l 174 -108 l 139 -11 m 209 669 q 270 622 239 636 q 347 607 301 607 q 430 625 404 607 q 456 673 456 644 q 319 750 456 750 l 323 828 q 351 827 344 827 q 433 896 433 827 q 411 932 433 918 q 350 946 389 946 q 254 912 288 946 l 188 990 q 345 1038 248 1038 l 352 1038 q 476 1000 429 1038 q 522 901 522 962 q 480 799 522 833 q 556 674 556 758 q 499 553 556 594 q 347 513 443 513 q 228 532 274 513 q 137 601 181 552 l 209 669 z "},"¿":{"ha":719,"x_min":50,"x_max":547,"o":"m 283 -216 q 109 -154 167 -216 q 50 18 50 -93 q 60 78 50 48 q 81 128 70 108 q 115 172 92 148 q 148 207 137 196 q 184 237 160 217 q 258 368 258 299 l 258 399 l 376 399 l 376 369 q 353 268 376 311 q 284 184 330 225 q 246 152 272 174 q 210 120 220 131 q 184 93 199 110 q 164 58 170 75 q 159 20 159 41 q 191 -75 159 -39 q 288 -111 224 -111 q 397 -77 355 -111 q 441 20 440 -44 q 403 105 441 59 l 494 166 q 547 24 547 89 q 526 -83 547 -36 q 468 -158 505 -130 q 383 -201 431 -186 q 283 -216 336 -216 m 399 508 l 230 508 l 230 691 l 399 691 l 399 508 z "},"À":{"ha":719,"x_min":28,"x_max":688,"o":"m 523 995 l 477 895 q 290 986 401 919 q 123 1108 178 1053 l 206 1207 q 364 1081 273 1145 q 523 995 456 1017 m 486 342 l 354 741 l 228 329 q 363 340 258 336 l 486 342 m 294 882 l 410 882 l 667 117 q 688 0 686 52 l 576 0 q 572 40 576 12 q 563 83 567 69 l 515 225 q 482 224 509 225 q 445 223 456 224 q 407 222 433 223 q 367 221 381 222 q 329 219 352 220 q 289 217 305 218 q 255 213 273 215 q 222 209 237 212 q 195 203 207 206 l 155 82 q 138 0 138 35 l 28 0 q 36 50 29 14 q 50 108 43 85 l 294 882 z "},"Á":{"ha":719,"x_min":28,"x_max":688,"o":"m 151 1002 q 309 1088 218 1025 q 467 1215 401 1152 l 551 1116 q 384 993 496 1060 q 197 902 272 926 l 151 1002 m 486 342 l 354 741 l 228 329 q 363 340 258 336 l 486 342 m 294 882 l 410 882 l 667 117 q 688 0 686 52 l 576 0 q 572 40 576 12 q 563 83 567 69 l 515 225 q 482 224 509 225 q 445 223 456 224 q 407 222 433 223 q 367 221 381 222 q 329 219 352 220 q 289 217 305 218 q 255 213 273 215 q 222 209 237 212 q 195 203 207 206 l 155 82 q 138 0 138 35 l 28 0 q 36 50 29 14 q 50 108 43 85 l 294 882 z "},"Â":{"ha":719,"x_min":28,"x_max":688,"o":"m 342 1185 l 597 963 l 524 890 l 340 1040 l 163 890 l 93 963 l 342 1185 m 486 342 l 354 741 l 228 329 q 363 340 258 336 l 486 342 m 294 882 l 410 882 l 667 117 q 688 0 686 52 l 576 0 q 572 40 576 12 q 563 83 567 69 l 515 225 q 482 224 509 225 q 445 223 456 224 q 407 222 433 223 q 367 221 381 222 q 329 219 352 220 q 289 217 305 218 q 255 213 273 215 q 222 209 237 212 q 195 203 207 206 l 155 82 q 138 0 138 35 l 28 0 q 36 50 29 14 q 50 108 43 85 l 294 882 z "},"Ã":{"ha":719,"x_min":28,"x_max":688,"o":"m 250 1108 q 315 1095 284 1108 q 366 1067 347 1082 q 408 1039 385 1052 q 451 1026 431 1026 q 515 1048 487 1026 q 551 1112 544 1070 l 651 1077 q 580 968 634 1014 q 460 922 526 922 q 399 935 429 922 q 350 963 369 948 q 306 991 330 979 q 258 1004 281 1004 q 196 990 221 1004 q 153 926 171 975 l 60 977 q 100 1044 78 1017 q 146 1084 121 1071 q 196 1103 172 1098 q 250 1108 220 1108 m 486 342 l 354 741 l 228 329 q 363 340 258 336 l 486 342 m 294 882 l 410 882 l 667 117 q 688 0 686 52 l 576 0 q 572 40 576 12 q 563 83 567 69 l 515 225 q 482 224 509 225 q 445 223 456 224 q 407 222 433 223 q 367 221 381 222 q 329 219 352 220 q 289 217 305 218 q 255 213 273 215 q 222 209 237 212 q 195 203 207 206 l 155 82 q 138 0 138 35 l 28 0 q 36 50 29 14 q 50 108 43 85 l 294 882 z "},"Ä":{"ha":719,"x_min":28,"x_max":688,"o":"m 134 1090 l 293 1088 l 293 935 l 134 937 l 134 1090 m 409 1088 l 568 1086 l 568 933 l 409 935 l 409 1088 m 486 342 l 354 741 l 228 329 q 363 340 258 336 l 486 342 m 294 882 l 410 882 l 667 117 q 688 0 686 52 l 576 0 q 572 40 576 12 q 563 83 567 69 l 515 225 q 482 224 509 225 q 445 223 456 224 q 407 222 433 223 q 367 221 381 222 q 329 219 352 220 q 289 217 305 218 q 255 213 273 215 q 222 209 237 212 q 195 203 207 206 l 155 82 q 138 0 138 35 l 28 0 q 36 50 29 14 q 50 108 43 85 l 294 882 z "},"Å":{"ha":719,"x_min":28,"x_max":688,"o":"m 487 336 l 355 734 l 229 322 q 364 334 259 329 l 487 336 m 291 981 q 308 947 291 962 q 350 932 325 932 q 391 947 375 932 q 408 981 408 962 q 392 1014 408 1000 q 350 1028 376 1028 q 308 1014 324 1028 q 291 981 291 1000 m 203 980 q 247 1074 203 1036 q 351 1112 291 1112 q 454 1074 410 1112 q 497 980 497 1036 q 475 910 497 942 q 417 862 453 879 l 667 117 q 688 0 686 52 l 576 0 q 572 40 576 12 q 563 83 567 69 l 515 225 q 482 224 509 225 q 445 223 456 224 q 407 222 433 223 q 367 221 381 222 q 329 219 352 220 q 289 217 305 218 q 255 213 273 215 q 222 209 237 212 q 195 203 207 206 l 155 82 q 138 0 138 35 l 28 0 q 36 50 29 14 q 50 108 43 85 l 288 861 q 227 909 250 877 q 203 980 203 941 z "},"Æ":{"ha":719,"x_min":3,"x_max":707,"o":"m 319 332 l 284 742 l 187 322 q 319 332 234 331 m 326 235 q 237 230 277 234 q 180 222 197 225 l 164 218 l 130 82 q 113 0 113 12 l 3 0 q 25 108 5 35 l 237 877 q 420 878 279 878 q 549 878 478 878 q 648 878 620 878 l 648 776 l 373 776 l 391 553 l 594 553 l 594 452 l 404 452 l 432 100 l 597 101 q 634 105 614 101 q 665 114 654 110 l 677 119 l 707 18 q 685 12 700 16 q 661 4 669 7 q 636 0 652 2 q 603 -2 620 -2 l 599 -2 l 342 0 l 326 235 z "},"Ç":{"ha":719,"x_min":38,"x_max":660,"o":"m 386 797 q 287 771 332 797 q 215 706 242 745 q 146 433 146 604 q 233 155 146 238 q 293 115 264 126 q 363 104 321 104 l 373 104 q 566 237 509 109 l 660 184 q 564 58 624 107 q 424 0 504 9 l 424 -23 q 501 -56 473 -26 q 529 -139 529 -86 q 490 -220 529 -188 q 404 -253 450 -253 q 273 -212 337 -253 l 298 -140 q 367 -167 342 -163 q 382 -168 375 -168 q 419 -158 402 -168 q 437 -129 435 -147 l 437 -127 q 420 -102 437 -113 q 378 -91 403 -91 q 359 -92 367 -91 q 347 -94 351 -93 q 337 -98 344 -95 q 326 -102 330 -101 l 326 2 q 159 79 222 16 q 38 431 38 205 q 128 768 38 632 q 236 865 168 827 q 388 903 304 903 q 523 860 460 903 q 629 736 585 817 l 537 680 q 386 797 479 797 z "},"È":{"ha":719,"x_min":69,"x_max":640,"o":"m 507 1002 l 461 902 q 274 993 386 926 q 107 1116 162 1060 l 191 1215 q 349 1088 257 1152 q 507 1002 440 1025 m 69 877 q 208 880 107 880 q 274 880 208 880 l 349 880 q 489 879 406 880 q 592 878 573 878 l 603 878 l 603 776 l 176 776 l 176 553 l 473 553 l 473 452 l 176 452 l 176 431 q 175 234 176 352 q 174 100 174 115 l 530 101 q 567 105 547 101 q 598 114 587 110 l 610 119 l 640 18 q 617 12 633 16 q 592 4 601 7 q 567 0 583 2 q 532 -2 550 -2 l 69 -2 l 69 877 z "},"É":{"ha":719,"x_min":69,"x_max":640,"o":"m 136 1004 q 294 1090 203 1026 q 452 1216 386 1154 l 536 1117 q 369 995 481 1061 q 182 903 257 928 l 136 1004 m 69 877 q 208 880 107 880 q 274 880 208 880 l 349 880 q 489 879 406 880 q 592 878 573 878 l 603 878 l 603 776 l 176 776 l 176 553 l 473 553 l 473 452 l 176 452 l 176 431 q 175 234 176 352 q 174 100 174 115 l 530 101 q 567 105 547 101 q 598 114 587 110 l 610 119 l 640 18 q 617 12 633 16 q 592 4 601 7 q 567 0 583 2 q 532 -2 550 -2 l 69 -2 l 69 877 z "},"Ê":{"ha":719,"x_min":69,"x_max":640,"o":"m 338 1210 l 592 987 l 519 915 l 336 1065 l 159 915 l 88 987 l 338 1210 m 69 877 q 208 880 107 880 q 274 880 208 880 l 349 880 q 489 879 406 880 q 592 878 573 878 l 603 878 l 603 776 l 176 776 l 176 553 l 473 553 l 473 452 l 176 452 l 176 431 q 175 234 176 352 q 174 100 174 115 l 530 101 q 567 105 547 101 q 598 114 587 110 l 610 119 l 640 18 q 617 12 633 16 q 592 4 601 7 q 567 0 583 2 q 532 -2 550 -2 l 69 -2 l 69 877 z "},"Ë":{"ha":719,"x_min":69,"x_max":640,"o":"m 135 1120 l 294 1118 l 294 966 l 135 968 l 135 1120 m 410 1118 l 570 1116 l 570 964 l 410 966 l 410 1118 m 69 877 q 208 880 107 880 q 274 880 208 880 l 349 880 q 489 879 406 880 q 592 878 573 878 l 603 878 l 603 776 l 176 776 l 176 553 l 473 553 l 473 452 l 176 452 l 176 431 q 175 234 176 352 q 174 100 174 115 l 530 101 q 567 105 547 101 q 598 114 587 110 l 610 119 l 640 18 q 617 12 633 16 q 592 4 601 7 q 567 0 583 2 q 532 -2 550 -2 l 69 -2 l 69 877 z "},"Ì":{"ha":719,"x_min":103,"x_max":576,"o":"m 525 1017 l 479 917 q 292 1008 404 941 q 125 1131 180 1075 l 208 1230 q 366 1103 275 1167 q 525 1017 458 1040 m 103 880 q 329 883 209 883 q 576 881 410 883 l 576 778 q 478 780 532 778 q 395 781 425 781 l 395 103 q 435 103 410 103 q 478 104 460 104 q 576 101 529 104 l 576 -1 q 433 3 507 3 q 384 3 418 3 q 328 3 349 3 q 237 0 310 3 q 105 -2 165 -2 l 105 99 q 235 102 177 102 l 286 102 l 286 781 q 107 776 156 779 l 103 880 z "},"Í":{"ha":719,"x_min":103,"x_max":576,"o":"m 151 1009 q 309 1095 218 1031 q 467 1221 401 1159 l 551 1122 q 384 1000 496 1067 q 197 909 272 933 l 151 1009 m 103 880 q 329 883 209 883 q 576 881 410 883 l 576 778 q 478 780 532 778 q 395 781 425 781 l 395 103 q 435 103 410 103 q 478 104 460 104 q 576 101 529 104 l 576 -1 q 433 3 507 3 q 384 3 418 3 q 328 3 349 3 q 237 0 310 3 q 105 -2 165 -2 l 105 99 q 235 102 177 102 l 286 102 l 286 781 q 107 776 156 779 l 103 880 z "},"Î":{"ha":719,"x_min":83,"x_max":587,"o":"m 333 1208 l 587 985 l 515 913 l 331 1063 l 154 913 l 83 985 l 333 1208 m 103 880 q 329 883 209 883 q 576 881 410 883 l 576 778 q 478 780 532 778 q 395 781 425 781 l 395 103 q 435 103 410 103 q 478 104 460 104 q 576 101 529 104 l 576 -1 q 433 3 507 3 q 384 3 418 3 q 328 3 349 3 q 237 0 310 3 q 105 -2 165 -2 l 105 99 q 235 102 177 102 l 286 102 l 286 781 q 107 776 156 779 l 103 880 z "},"Ï":{"ha":719,"x_min":103,"x_max":576,"o":"m 105 1116 l 264 1114 l 264 962 l 105 964 l 105 1116 m 380 1114 l 540 1112 l 540 960 l 380 962 l 380 1114 m 103 880 q 329 883 209 883 q 576 881 410 883 l 576 778 q 478 780 532 778 q 395 781 425 781 l 395 103 q 435 103 410 103 q 478 104 460 104 q 576 101 529 104 l 576 -1 q 433 3 507 3 q 384 3 418 3 q 328 3 349 3 q 237 0 310 3 q 105 -2 165 -2 l 105 99 q 235 102 177 102 l 286 102 l 286 781 q 107 776 156 779 l 103 880 z "},"Ð":{"ha":719,"x_min":3,"x_max":657,"o":"m 52 625 l 52 663 q 43 893 52 807 q 195 903 139 903 q 418 860 332 903 q 568 723 505 817 q 634 572 611 659 q 657 393 657 486 q 643 255 657 328 q 548 72 620 138 q 379 -2 476 7 q 270 -7 327 -7 q 165 -4 244 -7 q 45 -2 87 -2 q 47 87 45 20 q 48 166 47 98 q 51 336 50 234 q 52 524 52 438 l 3 524 l 3 625 l 52 625 m 210 798 l 189 798 q 159 795 170 798 q 159 736 159 778 q 159 682 159 720 q 159 625 159 644 l 407 625 l 408 524 l 159 524 q 156 100 157 245 q 287 98 216 98 q 368 103 335 98 q 434 122 401 108 q 491 165 467 136 q 531 239 515 194 q 549 369 549 292 q 531 533 549 454 q 481 660 513 612 q 417 736 448 708 q 334 781 385 764 q 210 798 282 798 z "},"Ñ":{"ha":719,"x_min":51,"x_max":644,"o":"m 243 1120 q 309 1107 277 1120 q 359 1079 340 1095 q 401 1051 378 1064 q 444 1038 425 1038 q 509 1060 480 1038 q 544 1124 537 1082 l 644 1089 q 573 980 627 1026 q 454 935 519 935 q 392 947 422 935 q 343 976 362 960 q 299 1004 323 991 q 252 1017 274 1017 q 189 1002 214 1017 q 146 939 164 987 l 53 989 q 93 1056 71 1029 q 140 1097 115 1083 q 189 1115 165 1110 q 243 1120 213 1120 m 510 -4 q 158 679 357 332 l 158 541 q 158 233 158 429 q 159 -2 159 37 l 51 -2 l 51 880 l 159 878 q 335 581 220 787 q 511 242 449 374 q 509 513 509 374 q 517 880 509 725 l 621 880 q 616 591 616 777 q 617 352 616 515 q 618 110 618 189 q 618 52 618 90 q 618 -3 618 14 l 510 -4 z "},"Ò":{"ha":719,"x_min":16,"x_max":647,"o":"m 526 1025 l 480 925 q 293 1016 405 949 q 126 1139 181 1083 l 210 1238 q 368 1112 276 1175 q 526 1025 459 1048 m 342 899 q 385 896 363 899 q 438 879 408 892 q 496 847 469 867 q 552 790 524 827 q 600 707 580 754 q 633 588 620 659 q 647 431 646 517 l 647 423 q 629 271 647 345 q 585 145 611 197 q 481 31 546 71 q 334 -9 417 -9 q 209 15 268 -9 q 110 88 149 39 q 16 388 16 203 q 43 636 16 546 q 115 787 71 727 q 209 867 151 837 q 342 899 267 898 m 180 166 q 334 95 234 95 q 492 197 437 95 q 526 298 512 228 q 540 425 539 368 l 540 438 q 492 690 540 597 q 346 795 439 795 q 265 780 298 795 q 203 725 233 764 q 123 391 123 622 q 139 267 123 332 q 180 166 154 201 z "},"Ó":{"ha":719,"x_min":16,"x_max":647,"o":"m 184 1027 q 343 1113 252 1049 q 501 1239 435 1177 l 585 1140 q 418 1018 530 1084 q 231 926 306 951 l 184 1027 m 342 899 q 385 896 363 899 q 438 879 408 892 q 496 847 469 867 q 552 790 524 827 q 600 707 580 754 q 633 588 620 659 q 647 431 646 517 l 647 423 q 629 271 647 345 q 585 145 611 197 q 481 31 546 71 q 334 -9 417 -9 q 209 15 268 -9 q 110 88 149 39 q 16 388 16 203 q 43 636 16 546 q 115 787 71 727 q 209 867 151 837 q 342 899 267 898 m 180 166 q 334 95 234 95 q 492 197 437 95 q 526 298 512 228 q 540 425 539 368 l 540 438 q 492 690 540 597 q 346 795 439 795 q 265 780 298 795 q 203 725 233 764 q 123 391 123 622 q 139 267 123 332 q 180 166 154 201 z "},"Ô":{"ha":719,"x_min":16,"x_max":647,"o":"m 340 1212 l 594 989 l 522 917 l 338 1067 l 161 917 l 90 989 l 340 1212 m 342 899 q 385 896 363 899 q 438 879 408 892 q 496 847 469 867 q 552 790 524 827 q 600 707 580 754 q 633 588 620 659 q 647 431 646 517 l 647 423 q 629 271 647 345 q 585 145 611 197 q 481 31 546 71 q 334 -9 417 -9 q 209 15 268 -9 q 110 88 149 39 q 16 388 16 203 q 43 636 16 546 q 115 787 71 727 q 209 867 151 837 q 342 899 267 898 m 180 166 q 334 95 234 95 q 492 197 437 95 q 526 298 512 228 q 540 425 539 368 l 540 438 q 492 690 540 597 q 346 795 439 795 q 265 780 298 795 q 203 725 233 764 q 123 391 123 622 q 139 267 123 332 q 180 166 154 201 z "},"Õ":{"ha":719,"x_min":16,"x_max":650,"o":"m 250 1135 q 315 1122 283 1135 q 365 1094 346 1109 q 407 1065 384 1078 q 450 1053 431 1053 q 515 1075 486 1053 q 550 1139 543 1097 l 650 1103 q 579 995 633 1040 q 460 949 525 949 q 398 962 428 949 q 349 990 368 975 q 305 1018 330 1005 q 258 1031 280 1031 q 195 1016 220 1031 q 153 953 170 1002 l 59 1003 q 99 1070 77 1043 q 146 1111 121 1097 q 195 1129 171 1124 q 250 1135 219 1135 m 342 899 q 385 896 363 899 q 438 879 408 892 q 496 847 469 867 q 552 790 524 827 q 600 707 580 754 q 633 588 620 659 q 647 431 646 517 l 647 423 q 629 271 647 345 q 585 145 611 197 q 481 31 546 71 q 334 -9 417 -9 q 209 15 268 -9 q 110 88 149 39 q 16 388 16 203 q 43 636 16 546 q 115 787 71 727 q 209 867 151 837 q 342 899 267 898 m 180 166 q 334 95 234 95 q 492 197 437 95 q 526 298 512 228 q 540 425 539 368 l 540 438 q 492 690 540 597 q 346 795 439 795 q 265 780 298 795 q 203 725 233 764 q 123 391 123 622 q 139 267 123 332 q 180 166 154 201 z "},"Ö":{"ha":719,"x_min":16,"x_max":647,"o":"m 128 1110 l 288 1108 l 288 956 l 128 958 l 128 1110 m 404 1108 l 563 1106 l 563 954 l 404 956 l 404 1108 m 342 899 q 385 896 363 899 q 438 879 408 892 q 496 847 469 867 q 552 790 524 827 q 600 707 580 754 q 633 588 620 659 q 647 431 646 517 l 647 423 q 629 271 647 345 q 585 145 611 197 q 481 31 546 71 q 334 -9 417 -9 q 209 15 268 -9 q 110 88 149 39 q 16 388 16 203 q 43 636 16 546 q 115 787 71 727 q 209 867 151 837 q 342 899 267 898 m 180 166 q 334 95 234 95 q 492 197 437 95 q 526 298 512 228 q 540 425 539 368 l 540 438 q 492 690 540 597 q 346 795 439 795 q 265 780 298 795 q 203 725 233 764 q 123 391 123 622 q 139 267 123 332 q 180 166 154 201 z "},"×":{"ha":719,"x_min":43,"x_max":635,"o":"m 258 354 q 156 461 229 385 q 43 575 84 537 l 110 659 q 336 431 177 596 q 564 653 524 611 l 635 570 q 413 349 471 406 q 533 218 468 291 q 635 109 598 146 l 553 43 q 509 95 534 68 q 468 140 485 123 q 406 204 452 158 q 335 276 360 250 q 262 202 299 241 q 204 141 225 164 q 157 89 184 119 q 126 56 130 59 l 47 122 q 258 354 152 249 z "},"Ø":{"ha":719,"x_min":28,"x_max":659,"o":"m 507 696 q 256 118 474 618 q 345 100 293 100 q 504 201 450 100 q 538 304 524 233 q 552 432 552 374 q 550 484 552 452 q 538 585 549 516 q 511 687 528 654 q 509 691 511 688 q 507 696 507 694 m 175 200 q 427 781 385 682 q 365 795 400 795 q 284 779 317 795 q 223 723 252 762 q 160 588 185 673 q 136 397 136 504 q 146 294 136 349 q 175 200 156 239 m 125 86 q 123 89 125 87 q 121 91 122 90 q 28 394 28 208 q 135 787 28 638 q 229 868 171 837 q 361 901 286 899 q 467 880 418 901 q 488 933 477 903 l 589 894 q 556 813 572 852 q 659 437 657 694 l 659 430 q 642 276 659 350 q 597 149 624 201 q 494 34 559 74 q 345 -5 429 -5 q 213 21 273 -5 q 203 -3 209 12 q 194 -24 197 -18 l 94 17 q 125 86 113 54 z "},"Ù":{"ha":719,"x_min":41,"x_max":633,"o":"m 522 1019 l 476 918 q 289 1009 401 943 q 122 1132 177 1076 l 205 1231 q 363 1105 272 1168 q 522 1019 455 1041 m 527 890 l 633 882 q 627 775 627 841 q 628 636 627 723 q 629 515 629 550 l 629 476 q 627 357 629 402 q 618 255 625 313 q 594 155 611 197 q 550 81 577 112 q 458 16 511 35 q 334 -7 405 -4 q 202 13 256 -7 q 116 75 149 33 q 67 171 83 116 q 46 303 51 226 q 41 528 41 374 q 47 883 41 722 l 155 883 q 149 494 149 659 q 154 298 149 355 q 205 144 163 192 q 325 96 247 96 q 409 111 378 98 q 469 153 441 123 q 522 476 522 211 q 520 613 522 514 q 518 774 518 712 q 527 890 518 836 z "},"Ú":{"ha":719,"x_min":41,"x_max":633,"o":"m 176 1006 q 335 1093 243 1029 q 493 1219 427 1156 l 576 1120 q 410 997 522 1064 q 222 906 298 930 l 176 1006 m 527 890 l 633 882 q 627 775 627 841 q 628 636 627 723 q 629 515 629 550 l 629 476 q 627 357 629 402 q 618 255 625 313 q 594 155 611 197 q 550 81 577 112 q 458 16 511 35 q 334 -7 405 -4 q 202 13 256 -7 q 116 75 149 33 q 67 171 83 116 q 46 303 51 226 q 41 528 41 374 q 47 883 41 722 l 155 883 q 149 494 149 659 q 154 298 149 355 q 205 144 163 192 q 325 96 247 96 q 409 111 378 98 q 469 153 441 123 q 522 476 522 211 q 520 613 522 514 q 518 774 518 712 q 527 890 518 836 z "},"Û":{"ha":719,"x_min":41,"x_max":633,"o":"m 346 1220 l 600 998 l 528 925 l 344 1075 l 167 925 l 96 998 l 346 1220 m 527 890 l 633 882 q 627 775 627 841 q 628 636 627 723 q 629 515 629 550 l 629 476 q 627 357 629 402 q 618 255 625 313 q 594 155 611 197 q 550 81 577 112 q 458 16 511 35 q 334 -7 405 -4 q 202 13 256 -7 q 116 75 149 33 q 67 171 83 116 q 46 303 51 226 q 41 528 41 374 q 47 883 41 722 l 155 883 q 149 494 149 659 q 154 298 149 355 q 205 144 163 192 q 325 96 247 96 q 409 111 378 98 q 469 153 441 123 q 522 476 522 211 q 520 613 522 514 q 518 774 518 712 q 527 890 518 836 z "},"Ü":{"ha":719,"x_min":41,"x_max":633,"o":"m 124 1120 l 283 1118 l 283 966 l 124 968 l 124 1120 m 399 1118 l 559 1116 l 559 964 l 399 966 l 399 1118 m 527 890 l 633 882 q 627 775 627 841 q 628 636 627 723 q 629 515 629 550 l 629 476 q 627 357 629 402 q 618 255 625 313 q 594 155 611 197 q 550 81 577 112 q 458 16 511 35 q 334 -7 405 -4 q 202 13 256 -7 q 116 75 149 33 q 67 171 83 116 q 46 303 51 226 q 41 528 41 374 q 47 883 41 722 l 155 883 q 149 494 149 659 q 154 298 149 355 q 205 144 163 192 q 325 96 247 96 q 409 111 378 98 q 469 153 441 123 q 522 476 522 211 q 520 613 522 514 q 518 774 518 712 q 527 890 518 836 z "},"Ý":{"ha":719,"x_min":22,"x_max":656,"o":"m 156 1015 q 315 1101 223 1037 q 473 1227 406 1164 l 556 1128 q 389 1005 501 1072 q 202 914 277 939 l 156 1015 m 271 -4 l 271 92 q 273 242 271 119 q 275 408 275 365 q 145 625 238 460 q 22 852 52 790 l 117 901 q 222 708 149 840 q 334 515 295 576 q 460 721 380 581 q 562 909 541 861 l 656 856 q 503 582 581 707 q 451 502 479 545 q 406 433 422 458 q 384 400 389 408 q 383 351 384 385 q 382 299 382 318 q 379 85 379 150 l 379 -4 l 271 -4 z "},"Þ":{"ha":719,"x_min":71,"x_max":642,"o":"m 532 543 q 474 649 532 614 q 281 684 416 684 q 221 682 257 684 q 179 681 184 681 l 179 595 l 178 416 q 248 415 203 415 q 353 417 313 415 q 431 427 393 420 q 489 449 469 435 q 520 486 509 463 q 532 543 532 509 m 178 -7 l 71 -6 l 71 878 q 179 880 129 878 l 179 785 q 267 787 214 787 q 404 781 353 787 q 504 752 454 775 q 591 684 554 729 q 642 518 642 623 q 626 437 642 473 q 582 380 611 402 q 520 344 553 358 q 443 323 487 330 q 362 314 398 317 q 282 312 327 312 q 178 314 233 312 q 178 126 178 216 q 178 -7 178 37 z "},"ß":{"ha":719,"x_min":18,"x_max":640,"o":"m 54 680 q 78 784 54 735 q 151 867 102 833 q 264 901 200 901 q 443 847 374 901 q 511 686 511 793 q 454 528 511 582 q 640 258 640 477 q 585 72 640 144 q 423 -1 530 -1 q 260 51 323 -1 q 197 201 197 102 q 197 210 197 204 q 197 218 197 215 l 302 218 q 308 162 303 183 q 326 127 312 142 q 362 108 339 113 q 423 102 385 102 q 479 115 456 102 q 514 152 502 127 q 531 203 526 176 q 536 268 536 231 q 530 321 536 297 q 516 362 525 345 q 491 395 507 380 q 460 418 475 409 q 419 434 444 428 q 373 445 395 441 q 320 450 352 448 q 262 453 288 452 q 199 454 237 454 l 199 557 q 236 557 223 557 q 270 559 248 557 q 303 562 292 560 q 331 568 314 564 q 358 578 349 572 q 378 594 367 585 q 395 616 389 604 q 404 645 400 628 q 408 682 408 661 q 371 768 408 739 q 264 798 334 798 q 188 759 218 797 q 158 673 158 722 q 160 497 158 623 q 161 305 161 371 q 155 75 161 157 q 77 -25 149 11 l 18 59 q 45 77 37 68 q 60 152 60 92 q 60 304 60 229 q 57 495 60 368 q 54 680 54 623 z "},"à":{"ha":719,"x_min":50,"x_max":660,"o":"m 491 822 l 445 722 q 258 813 370 746 q 91 935 146 880 l 174 1034 q 332 908 241 972 q 491 822 424 844 m 159 211 q 185 129 159 158 q 260 99 212 99 q 337 111 300 99 q 397 138 374 123 q 443 175 421 153 q 474 209 465 197 q 491 234 483 220 l 491 298 q 332 342 420 342 q 209 305 260 341 q 159 211 159 269 m 597 216 q 606 117 597 129 q 619 105 610 112 q 641 89 627 98 q 660 74 654 79 l 604 -7 q 583 8 599 -3 q 560 25 567 19 q 543 44 553 32 q 525 71 532 56 q 515 106 519 86 q 471 66 491 82 q 419 33 451 51 q 347 5 387 14 q 260 -4 307 -4 q 113 57 174 -4 q 53 204 53 119 q 68 286 53 244 q 113 357 84 328 q 210 421 159 404 q 326 439 260 439 q 491 405 435 439 q 453 549 491 503 q 329 595 414 595 q 217 572 256 595 q 138 477 178 549 l 50 533 q 164 660 97 622 q 328 697 232 697 q 524 626 450 697 q 597 439 597 555 l 597 216 z "},"á":{"ha":719,"x_min":50,"x_max":660,"o":"m 145 822 q 304 908 212 844 q 462 1034 395 972 l 545 935 q 378 813 490 880 q 191 722 267 746 l 145 822 m 159 211 q 185 129 159 158 q 260 99 212 99 q 337 111 300 99 q 397 138 374 123 q 443 175 421 153 q 474 209 465 197 q 491 234 483 220 l 491 298 q 332 342 420 342 q 209 305 260 341 q 159 211 159 269 m 597 216 q 606 117 597 129 q 619 105 610 112 q 641 89 627 98 q 660 74 654 79 l 604 -7 q 583 8 599 -3 q 560 25 567 19 q 543 44 553 32 q 525 71 532 56 q 515 106 519 86 q 471 66 491 82 q 419 33 451 51 q 347 5 387 14 q 260 -4 307 -4 q 113 57 174 -4 q 53 204 53 119 q 68 286 53 244 q 113 357 84 328 q 210 421 159 404 q 326 439 260 439 q 491 405 435 439 q 453 549 491 503 q 329 595 414 595 q 217 572 256 595 q 138 477 178 549 l 50 533 q 164 660 97 622 q 328 697 232 697 q 524 626 450 697 q 597 439 597 555 l 597 216 z "},"â":{"ha":719,"x_min":50,"x_max":660,"o":"m 307 1017 l 562 794 l 489 722 l 305 871 l 128 722 l 58 794 l 307 1017 m 159 211 q 185 129 159 158 q 260 99 212 99 q 337 111 300 99 q 397 138 374 123 q 443 175 421 153 q 474 209 465 197 q 491 234 483 220 l 491 298 q 332 342 420 342 q 209 305 260 341 q 159 211 159 269 m 597 216 q 606 117 597 129 q 619 105 610 112 q 641 89 627 98 q 660 74 654 79 l 604 -7 q 583 8 599 -3 q 560 25 567 19 q 543 44 553 32 q 525 71 532 56 q 515 106 519 86 q 471 66 491 82 q 419 33 451 51 q 347 5 387 14 q 260 -4 307 -4 q 113 57 174 -4 q 53 204 53 119 q 68 286 53 244 q 113 357 84 328 q 210 421 159 404 q 326 439 260 439 q 491 405 435 439 q 453 549 491 503 q 329 595 414 595 q 217 572 256 595 q 138 477 178 549 l 50 533 q 164 660 97 622 q 328 697 232 697 q 524 626 450 697 q 597 439 597 555 l 597 216 z "},"ã":{"ha":719,"x_min":26,"x_max":660,"o":"m 217 925 q 282 912 251 925 q 332 884 313 899 q 375 856 351 869 q 418 843 398 843 q 482 865 454 843 q 517 929 511 887 l 618 894 q 547 785 601 831 q 427 739 492 739 q 366 752 395 739 q 316 780 336 765 q 272 808 297 795 q 225 821 248 821 q 163 807 188 821 q 120 743 138 792 l 26 793 q 66 861 45 833 q 113 901 88 888 q 162 920 138 915 q 217 925 186 925 m 159 211 q 185 129 159 158 q 260 99 212 99 q 337 111 300 99 q 397 138 374 123 q 443 175 421 153 q 474 209 465 197 q 491 234 483 220 l 491 298 q 332 342 420 342 q 209 305 260 341 q 159 211 159 269 m 597 216 q 606 117 597 129 q 619 105 610 112 q 641 89 627 98 q 660 74 654 79 l 604 -7 q 583 8 599 -3 q 560 25 567 19 q 543 44 553 32 q 525 71 532 56 q 515 106 519 86 q 471 66 491 82 q 419 33 451 51 q 347 5 387 14 q 260 -4 307 -4 q 113 57 174 -4 q 53 204 53 119 q 68 286 53 244 q 113 357 84 328 q 210 421 159 404 q 326 439 260 439 q 491 405 435 439 q 453 549 491 503 q 329 595 414 595 q 217 572 256 595 q 138 477 178 549 l 50 533 q 164 660 97 622 q 328 697 232 697 q 524 626 450 697 q 597 439 597 555 l 597 216 z "},"ä":{"ha":719,"x_min":50,"x_max":660,"o":"m 104 954 l 263 951 l 263 799 l 104 801 l 104 954 m 379 951 l 538 949 l 538 797 l 379 799 l 379 951 m 159 211 q 185 129 159 158 q 260 99 212 99 q 337 111 300 99 q 397 138 374 123 q 443 175 421 153 q 474 209 465 197 q 491 234 483 220 l 491 298 q 332 342 420 342 q 209 305 260 341 q 159 211 159 269 m 597 216 q 606 117 597 129 q 619 105 610 112 q 641 89 627 98 q 660 74 654 79 l 604 -7 q 583 8 599 -3 q 560 25 567 19 q 543 44 553 32 q 525 71 532 56 q 515 106 519 86 q 471 66 491 82 q 419 33 451 51 q 347 5 387 14 q 260 -4 307 -4 q 113 57 174 -4 q 53 204 53 119 q 68 286 53 244 q 113 357 84 328 q 210 421 159 404 q 326 439 260 439 q 491 405 435 439 q 453 549 491 503 q 329 595 414 595 q 217 572 256 595 q 138 477 178 549 l 50 533 q 164 660 97 622 q 328 697 232 697 q 524 626 450 697 q 597 439 597 555 l 597 216 z "},"å":{"ha":719,"x_min":50,"x_max":660,"o":"m 266 871 q 283 838 266 852 q 325 823 300 823 q 366 838 350 823 q 382 871 382 852 q 367 904 382 890 q 325 918 351 918 q 282 904 299 918 q 266 871 266 890 m 222 776 q 200 795 222 776 q 178 870 178 814 q 222 964 178 926 q 326 1002 266 1002 q 429 964 385 1002 q 472 870 472 926 q 429 776 472 814 q 326 738 385 738 q 222 776 266 738 m 159 211 q 185 129 159 158 q 260 99 212 99 q 337 111 300 99 q 397 138 374 123 q 443 175 421 153 q 474 209 465 197 q 491 234 483 220 l 491 298 q 332 342 420 342 q 209 305 260 341 q 159 211 159 269 m 597 216 q 606 117 597 129 q 619 105 610 112 q 641 89 627 98 q 660 74 654 79 l 604 -7 q 583 8 599 -3 q 560 25 567 19 q 543 44 553 32 q 525 71 532 56 q 515 106 519 86 q 471 66 491 82 q 419 33 451 51 q 347 5 387 14 q 260 -4 307 -4 q 113 57 174 -4 q 53 204 53 119 q 68 286 53 244 q 113 357 84 328 q 210 421 159 404 q 326 439 260 439 q 491 405 435 439 q 453 549 491 503 q 329 595 414 595 q 217 572 256 595 q 138 477 178 549 l 50 533 q 164 660 97 622 q 328 697 232 697 q 524 626 450 697 q 597 439 597 555 l 597 216 z "},"æ":{"ha":719,"x_min":11,"x_max":670,"o":"m 120 220 q 204 110 120 110 q 269 143 245 110 q 299 222 292 176 l 299 321 q 205 345 260 345 q 143 309 166 345 q 120 220 120 273 m 403 417 q 559 422 484 422 q 556 479 559 452 q 546 532 553 507 q 527 574 539 558 q 497 589 514 589 q 454 582 471 589 q 427 561 437 574 q 411 525 416 548 q 404 478 406 501 q 403 417 403 454 m 342 66 q 212 3 287 3 q 88 39 139 3 q 16 210 16 90 q 21 278 16 245 q 40 342 26 311 q 74 397 54 374 q 125 434 94 420 q 197 448 157 448 q 242 445 222 448 q 272 437 263 441 q 299 427 281 434 q 295 480 299 455 q 282 532 292 506 q 252 574 272 559 q 203 590 232 590 l 197 590 q 173 589 182 590 q 151 581 163 587 q 126 560 139 574 q 97 520 113 545 l 90 511 l 11 561 l 18 573 q 101 668 62 642 q 203 694 141 694 q 260 686 235 694 q 314 656 285 679 q 348 616 332 641 q 379 656 364 641 q 423 682 394 671 q 491 694 452 694 q 552 680 525 694 q 597 644 580 665 q 628 589 615 623 q 647 526 640 555 q 657 454 653 496 q 661 386 661 412 q 662 322 662 359 l 403 315 l 403 149 q 442 121 417 133 q 497 109 467 109 q 597 183 545 109 l 670 115 q 578 30 627 56 q 484 3 529 3 q 342 66 401 3 z "},"ç":{"ha":719,"x_min":48,"x_max":657,"o":"m 156 357 q 164 264 156 306 q 185 197 173 223 q 217 152 197 170 q 255 123 237 133 q 296 109 272 114 q 335 103 321 104 q 371 102 350 102 l 380 102 q 498 129 454 102 q 572 205 542 155 l 657 143 q 646 128 656 142 q 629 105 637 114 q 607 80 621 96 q 575 52 592 64 q 536 28 558 41 q 485 8 513 16 q 424 -3 456 1 l 424 -13 q 501 -46 473 -16 q 529 -129 529 -76 q 490 -210 529 -178 q 404 -243 450 -243 q 273 -201 337 -243 l 298 -130 q 367 -157 342 -153 q 382 -158 375 -158 q 419 -148 402 -158 q 437 -119 435 -137 l 437 -117 q 420 -92 437 -102 q 378 -81 403 -81 q 359 -82 367 -81 q 347 -84 351 -83 q 337 -88 344 -85 q 326 -92 330 -91 l 326 -3 q 163 50 223 5 q 74 174 100 98 q 48 357 48 250 q 70 514 48 450 q 136 617 92 579 q 240 673 180 656 q 382 690 300 690 q 538 643 476 690 q 615 535 585 607 l 511 494 q 504 515 507 507 q 491 538 501 524 q 468 563 481 553 q 430 579 454 572 q 375 587 406 587 q 209 532 262 587 q 156 357 156 478 z "},"è":{"ha":719,"x_min":53,"x_max":626,"o":"m 532 823 l 486 723 q 299 814 411 747 q 132 937 187 881 l 216 1036 q 374 909 282 973 q 532 823 465 846 m 160 393 q 518 411 376 395 q 463 541 510 492 q 346 589 416 589 q 212 532 262 589 q 160 393 161 475 m 345 692 q 441 677 398 692 q 513 640 484 663 q 563 584 541 616 q 596 519 585 551 q 615 452 608 488 q 624 391 622 416 q 626 341 626 366 q 625 312 626 317 q 160 290 322 292 q 209 151 160 205 q 357 97 258 97 q 467 124 422 97 q 537 187 511 151 l 621 113 q 597 88 606 97 q 562 59 589 79 q 509 26 535 38 q 441 4 484 14 q 354 -7 399 -7 q 130 90 207 -7 q 53 350 53 186 q 130 597 53 501 q 345 692 206 692 z "},"é":{"ha":719,"x_min":53,"x_max":626,"o":"m 163 819 q 321 905 230 842 q 479 1031 413 969 l 563 932 q 396 810 508 877 q 209 719 284 743 l 163 819 m 160 393 q 518 411 376 395 q 463 541 510 492 q 346 589 416 589 q 212 532 262 589 q 160 393 161 475 m 345 692 q 441 677 398 692 q 513 640 484 663 q 563 584 541 616 q 596 519 585 551 q 615 452 608 488 q 624 391 622 416 q 626 341 626 366 q 625 312 626 317 q 160 290 322 292 q 209 151 160 205 q 357 97 258 97 q 467 124 422 97 q 537 187 511 151 l 621 113 q 597 88 606 97 q 562 59 589 79 q 509 26 535 38 q 441 4 484 14 q 354 -7 399 -7 q 130 90 207 -7 q 53 350 53 186 q 130 597 53 501 q 345 692 206 692 z "},"ê":{"ha":719,"x_min":53,"x_max":626,"o":"m 337 1015 l 591 792 l 519 720 l 335 869 l 158 720 l 87 792 l 337 1015 m 160 393 q 518 411 376 395 q 463 541 510 492 q 346 589 416 589 q 212 532 262 589 q 160 393 161 475 m 345 692 q 441 677 398 692 q 513 640 484 663 q 563 584 541 616 q 596 519 585 551 q 615 452 608 488 q 624 391 622 416 q 626 341 626 366 q 625 312 626 317 q 160 290 322 292 q 209 151 160 205 q 357 97 258 97 q 467 124 422 97 q 537 187 511 151 l 621 113 q 597 88 606 97 q 562 59 589 79 q 509 26 535 38 q 441 4 484 14 q 354 -7 399 -7 q 130 90 207 -7 q 53 350 53 186 q 130 597 53 501 q 345 692 206 692 z "},"ë":{"ha":719,"x_min":53,"x_max":626,"o":"m 136 951 l 296 949 l 296 797 l 136 799 l 136 951 m 412 949 l 571 947 l 571 795 l 412 797 l 412 949 m 160 393 q 518 411 376 395 q 463 541 510 492 q 346 589 416 589 q 212 532 262 589 q 160 393 161 475 m 345 692 q 441 677 398 692 q 513 640 484 663 q 563 584 541 616 q 596 519 585 551 q 615 452 608 488 q 624 391 622 416 q 626 341 626 366 q 625 312 626 317 q 160 290 322 292 q 209 151 160 205 q 357 97 258 97 q 467 124 422 97 q 537 187 511 151 l 621 113 q 597 88 606 97 q 562 59 589 79 q 509 26 535 38 q 441 4 484 14 q 354 -7 399 -7 q 130 90 207 -7 q 53 350 53 186 q 130 597 53 501 q 345 692 206 692 z "},"ì":{"ha":719,"x_min":54,"x_max":698,"o":"m 454 850 l 408 750 q 221 841 333 774 q 54 964 109 908 l 138 1063 q 296 937 204 1000 q 454 850 387 873 m 283 687 l 361 687 q 362 142 361 687 q 385 94 364 104 q 458 84 405 84 q 565 97 511 84 q 652 134 619 109 l 698 56 q 591 5 656 22 q 458 -12 526 -12 q 319 14 367 -12 q 256 140 256 48 l 256 581 q 81 562 163 581 l 62 659 q 283 687 184 687 z "},"í":{"ha":719,"x_min":62,"x_max":698,"o":"m 159 826 q 317 912 226 848 q 475 1038 409 976 l 559 939 q 392 817 504 884 q 205 726 280 750 l 159 826 m 283 687 l 361 687 q 362 142 361 687 q 385 94 364 104 q 458 84 405 84 q 565 97 511 84 q 652 134 619 109 l 698 56 q 591 5 656 22 q 458 -12 526 -12 q 319 14 367 -12 q 256 140 256 48 l 256 581 q 81 562 163 581 l 62 659 q 283 687 184 687 z "},"î":{"ha":719,"x_min":62,"x_max":698,"o":"m 315 1019 l 569 796 l 496 724 l 313 873 l 136 724 l 65 796 l 315 1019 m 283 687 l 361 687 q 362 142 361 687 q 385 94 364 104 q 458 84 405 84 q 565 97 511 84 q 652 134 619 109 l 698 56 q 591 5 656 22 q 458 -12 526 -12 q 319 14 367 -12 q 256 140 256 48 l 256 581 q 81 562 163 581 l 62 659 q 283 687 184 687 z "},"ï":{"ha":719,"x_min":62,"x_max":698,"o":"m 85 954 l 244 951 l 244 799 l 85 801 l 85 954 m 360 951 l 519 949 l 519 797 l 360 799 l 360 951 m 283 687 l 361 687 q 362 142 361 687 q 385 94 364 104 q 458 84 405 84 q 565 97 511 84 q 652 134 619 109 l 698 56 q 591 5 656 22 q 458 -12 526 -12 q 319 14 367 -12 q 256 140 256 48 l 256 581 q 81 562 163 581 l 62 659 q 283 687 184 687 z "},"ð":{"ha":719,"x_min":49,"x_max":612,"o":"m 408 586 q 300 573 346 586 q 227 538 254 559 q 184 485 200 517 q 162 418 168 452 q 156 342 156 385 q 201 172 156 238 q 328 106 246 106 q 392 115 367 106 q 444 146 418 124 q 505 367 505 203 q 408 586 505 481 m 409 791 q 452 731 423 771 q 492 674 480 691 q 525 624 504 656 q 556 572 547 591 q 578 525 565 554 q 597 474 592 496 q 607 423 603 451 q 612 366 612 395 q 604 260 612 310 q 575 161 595 210 q 523 78 554 113 q 441 22 491 43 q 328 1 391 1 l 327 1 q 121 96 193 1 q 49 338 49 190 q 52 398 49 369 q 62 462 54 427 q 83 526 71 496 q 119 586 96 556 q 171 636 141 615 q 243 672 200 658 q 337 690 286 687 q 286 762 330 701 l 147 730 l 125 822 l 229 846 q 187 909 189 904 l 294 968 q 352 876 328 913 l 500 911 l 522 819 l 409 791 z "},"ñ":{"ha":719,"x_min":54,"x_max":680,"o":"m 249 951 q 314 938 283 951 q 364 910 345 925 q 407 882 383 895 q 450 869 430 869 q 514 891 486 869 q 549 955 543 913 l 650 920 q 578 811 633 857 q 459 765 524 765 q 397 778 427 765 q 348 806 368 791 q 304 834 329 821 q 257 847 279 847 q 195 832 220 847 q 152 769 170 818 l 58 819 q 98 886 77 859 q 145 927 120 913 q 194 946 170 941 q 249 951 218 951 m 183 629 q 300 678 249 663 q 406 693 351 693 q 472 683 437 693 q 537 654 507 673 q 588 606 568 636 q 608 540 608 576 l 608 143 q 613 117 608 128 q 629 96 617 105 q 647 81 640 86 q 673 67 654 77 q 675 65 675 66 q 677 64 676 65 q 680 63 679 64 l 623 -13 q 578 12 595 1 q 541 40 561 22 q 511 83 521 58 q 501 138 501 107 l 501 519 q 466 572 501 553 q 391 591 430 591 q 313 573 360 591 q 183 515 267 555 l 183 0 l 76 -1 l 76 478 q 74 572 76 537 q 68 624 71 607 q 54 680 64 641 l 163 705 q 183 629 176 674 z "},"ò":{"ha":719,"x_min":49,"x_max":612,"o":"m 473 823 l 427 723 q 240 814 352 747 q 73 937 128 881 l 157 1036 q 315 909 223 973 q 473 823 406 846 m 444 146 q 504 359 504 203 q 504 372 504 359 q 463 534 503 473 q 339 595 424 595 q 251 576 288 595 q 195 518 215 556 q 165 432 174 480 q 156 318 156 383 q 200 162 156 218 q 328 106 244 106 q 392 115 367 106 q 444 146 418 124 m 327 1 q 120 85 191 1 q 49 315 49 169 q 57 431 49 376 q 86 535 66 486 q 136 621 106 585 q 212 679 166 657 q 316 700 258 700 q 474 666 414 700 q 572 564 535 633 q 612 368 612 486 q 603 255 612 307 q 574 156 595 203 q 523 74 554 108 q 441 21 491 41 q 328 1 392 1 l 327 1 z "},"ó":{"ha":719,"x_min":49,"x_max":612,"o":"m 164 823 q 323 909 231 846 q 481 1036 414 973 l 564 937 q 397 814 509 881 q 210 723 286 747 l 164 823 m 444 146 q 504 359 504 203 q 504 372 504 359 q 463 534 503 473 q 339 595 424 595 q 251 576 288 595 q 195 518 215 556 q 165 432 174 480 q 156 318 156 383 q 200 162 156 218 q 328 106 244 106 q 392 115 367 106 q 444 146 418 124 m 327 1 q 120 85 191 1 q 49 315 49 169 q 57 431 49 376 q 86 535 66 486 q 136 621 106 585 q 212 679 166 657 q 316 700 258 700 q 474 666 414 700 q 572 564 535 633 q 612 368 612 486 q 603 255 612 307 q 574 156 595 203 q 523 74 554 108 q 441 21 491 41 q 328 1 392 1 l 327 1 z "},"ô":{"ha":719,"x_min":49,"x_max":612,"o":"m 334 1013 l 589 790 l 516 718 l 332 867 l 155 718 l 85 790 l 334 1013 m 444 146 q 504 359 504 203 q 504 372 504 359 q 463 534 503 473 q 339 595 424 595 q 251 576 288 595 q 195 518 215 556 q 165 432 174 480 q 156 318 156 383 q 200 162 156 218 q 328 106 244 106 q 392 115 367 106 q 444 146 418 124 m 327 1 q 120 85 191 1 q 49 315 49 169 q 57 431 49 376 q 86 535 66 486 q 136 621 106 585 q 212 679 166 657 q 316 700 258 700 q 474 666 414 700 q 572 564 535 633 q 612 368 612 486 q 603 255 612 307 q 574 156 595 203 q 523 74 554 108 q 441 21 491 41 q 328 1 392 1 l 327 1 z "},"õ":{"ha":719,"x_min":45,"x_max":637,"o":"m 236 931 q 301 918 270 931 q 351 890 332 905 q 394 862 370 875 q 437 849 417 849 q 501 871 473 849 q 536 935 530 893 l 637 900 q 566 791 620 837 q 446 745 511 745 q 385 758 414 745 q 335 786 355 771 q 291 814 316 802 q 244 827 267 827 q 182 813 207 827 q 139 749 157 798 l 45 800 q 85 867 64 840 q 132 907 107 894 q 181 926 157 921 q 236 931 205 931 m 444 146 q 504 359 504 203 q 504 372 504 359 q 463 534 503 473 q 339 595 424 595 q 251 576 288 595 q 195 518 215 556 q 165 432 174 480 q 156 318 156 383 q 200 162 156 218 q 328 106 244 106 q 392 115 367 106 q 444 146 418 124 m 327 1 q 120 85 191 1 q 49 315 49 169 q 57 431 49 376 q 86 535 66 486 q 136 621 106 585 q 212 679 166 657 q 316 700 258 700 q 474 666 414 700 q 572 564 535 633 q 612 368 612 486 q 603 255 612 307 q 574 156 595 203 q 523 74 554 108 q 441 21 491 41 q 328 1 392 1 l 327 1 z "},"ö":{"ha":719,"x_min":49,"x_max":612,"o":"m 125 951 l 285 949 l 285 797 l 125 799 l 125 951 m 401 949 l 560 947 l 560 795 l 401 797 l 401 949 m 444 146 q 504 359 504 203 q 504 372 504 359 q 463 534 503 473 q 339 595 424 595 q 251 576 288 595 q 195 518 215 556 q 165 432 174 480 q 156 318 156 383 q 200 162 156 218 q 328 106 244 106 q 392 115 367 106 q 444 146 418 124 m 327 1 q 120 85 191 1 q 49 315 49 169 q 57 431 49 376 q 86 535 66 486 q 136 621 106 585 q 212 679 166 657 q 316 700 258 700 q 474 666 414 700 q 572 564 535 633 q 612 368 612 486 q 603 255 612 307 q 574 156 595 203 q 523 74 554 108 q 441 21 491 41 q 328 1 392 1 l 327 1 z "},"÷":{"ha":719,"x_min":65,"x_max":602,"o":"m 68 296 l 65 403 q 311 407 195 407 q 388 406 352 407 q 480 405 424 406 q 591 403 537 404 l 602 403 l 602 296 l 589 296 q 444 299 529 297 q 309 301 359 301 q 68 296 249 301 m 241 175 l 410 175 l 410 -8 l 241 -8 l 241 175 m 239 696 l 410 696 l 410 513 l 239 513 l 239 696 z "},"ø":{"ha":719,"x_min":7,"x_max":673,"o":"m 163 241 l 444 557 q 339 595 404 595 q 251 576 288 595 q 195 518 215 556 q 165 432 174 480 q 156 318 156 383 q 163 241 156 273 m 580 545 q 612 368 612 471 q 603 255 612 307 q 574 156 595 203 q 523 74 554 108 q 441 21 491 41 q 328 1 392 1 l 327 1 q 144 62 212 1 l 82 -6 l 7 64 l 81 148 q 49 315 49 219 q 57 431 49 376 q 86 535 66 486 q 136 621 106 585 q 212 679 166 657 q 316 700 258 700 q 515 637 446 700 l 592 724 l 673 648 l 580 545 m 444 146 q 504 359 504 203 l 504 372 q 496 452 504 418 l 217 144 q 328 106 260 106 q 392 115 367 106 q 444 146 418 124 z "},"ù":{"ha":719,"x_min":58,"x_max":670,"o":"m 458 822 l 412 722 q 225 813 337 746 q 58 935 113 880 l 142 1034 q 300 908 208 972 q 458 822 391 844 m 614 -7 q 576 23 590 11 q 547 57 562 35 q 524 107 531 80 q 423 30 476 58 q 300 1 370 3 l 294 1 q 153 30 195 1 q 77 145 77 82 q 77 262 77 186 q 76 395 77 339 q 75 514 76 452 q 70 617 73 576 q 62 674 67 658 l 170 692 q 177 641 174 675 q 181 550 180 608 q 182 446 182 492 q 183 310 182 401 q 183 170 183 220 q 217 118 189 139 q 289 106 234 106 q 397 134 355 109 q 413 144 399 136 q 433 155 427 152 q 451 168 438 159 q 470 185 463 178 q 486 206 477 193 q 501 233 495 219 l 501 692 l 608 692 l 608 162 q 670 73 610 121 l 614 -7 z "},"ú":{"ha":719,"x_min":62,"x_max":670,"o":"m 195 823 q 354 909 262 846 q 512 1036 446 973 l 595 937 q 429 814 541 881 q 241 723 317 747 l 195 823 m 614 -7 q 576 23 590 11 q 547 57 562 35 q 524 107 531 80 q 423 30 476 58 q 300 1 370 3 l 294 1 q 153 30 195 1 q 77 145 77 82 q 77 262 77 186 q 76 395 77 339 q 75 514 76 452 q 70 617 73 576 q 62 674 67 658 l 170 692 q 177 641 174 675 q 181 550 180 608 q 182 446 182 492 q 183 310 182 401 q 183 170 183 220 q 217 118 189 139 q 289 106 234 106 q 397 134 355 109 q 413 144 399 136 q 433 155 427 152 q 451 168 438 159 q 470 185 463 178 q 486 206 477 193 q 501 233 495 219 l 501 692 l 608 692 l 608 162 q 670 73 610 121 l 614 -7 z "},"û":{"ha":719,"x_min":62,"x_max":670,"o":"m 337 1019 l 591 796 l 519 724 l 335 873 l 158 724 l 87 796 l 337 1019 m 614 -7 q 576 23 590 11 q 547 57 562 35 q 524 107 531 80 q 423 30 476 58 q 300 1 370 3 l 294 1 q 153 30 195 1 q 77 145 77 82 q 77 262 77 186 q 76 395 77 339 q 75 514 76 452 q 70 617 73 576 q 62 674 67 658 l 170 692 q 177 641 174 675 q 181 550 180 608 q 182 446 182 492 q 183 310 182 401 q 183 170 183 220 q 217 118 189 139 q 289 106 234 106 q 397 134 355 109 q 413 144 399 136 q 433 155 427 152 q 451 168 438 159 q 470 185 463 178 q 486 206 477 193 q 501 233 495 219 l 501 692 l 608 692 l 608 162 q 670 73 610 121 l 614 -7 z "},"ü":{"ha":719,"x_min":62,"x_max":670,"o":"m 134 956 l 293 954 l 293 801 l 134 803 l 134 956 m 409 954 l 568 951 l 568 799 l 409 801 l 409 954 m 614 -7 q 576 23 590 11 q 547 57 562 35 q 524 107 531 80 q 423 30 476 58 q 300 1 370 3 l 294 1 q 153 30 195 1 q 77 145 77 82 q 77 262 77 186 q 76 395 77 339 q 75 514 76 452 q 70 617 73 576 q 62 674 67 658 l 170 692 q 177 641 174 675 q 181 550 180 608 q 182 446 182 492 q 183 310 182 401 q 183 170 183 220 q 217 118 189 139 q 289 106 234 106 q 397 134 355 109 q 413 144 399 136 q 433 155 427 152 q 451 168 438 159 q 470 185 463 178 q 486 206 477 193 q 501 233 495 219 l 501 692 l 608 692 l 608 162 q 670 73 610 121 l 614 -7 z "},"ý":{"ha":719,"x_min":38,"x_max":632,"o":"m 196 823 q 355 909 263 846 q 513 1036 446 973 l 596 937 q 429 814 541 881 q 242 723 317 747 l 196 823 m 228 -151 q 250 -147 239 -151 q 271 -134 261 -143 q 289 -117 281 -125 q 305 -92 297 -108 q 319 -66 313 -77 q 332 -37 325 -56 q 343 -8 340 -18 q 353 21 347 1 q 362 46 360 41 q 124 568 243 460 q 50 589 101 589 l 50 692 q 125 687 87 692 q 425 195 260 667 q 493 447 465 312 q 525 692 521 582 l 632 692 q 623 578 632 631 q 420 -96 558 228 q 346 -214 391 -172 q 231 -255 302 -255 q 38 0 38 -255 l 144 0 q 164 -119 144 -86 q 228 -151 184 -151 z "},"þ":{"ha":719,"x_min":68,"x_max":618,"o":"m 512 357 q 477 525 512 468 q 360 582 443 582 q 283 570 314 582 q 233 537 253 558 q 186 473 213 515 l 186 178 q 248 123 229 136 q 322 100 283 100 q 512 357 512 100 m 81 501 l 81 758 q 68 879 81 829 l 179 892 q 180 884 179 892 q 183 868 182 876 q 185 849 184 860 q 186 831 186 839 l 186 625 q 359 687 256 687 q 555 601 492 687 q 618 370 618 515 q 313 -5 618 -5 q 289 -4 300 -5 q 269 -1 277 -3 q 251 3 261 0 q 237 8 241 7 q 223 15 232 10 q 211 22 214 20 q 198 30 208 24 q 186 38 189 37 l 186 -102 q 197 -269 186 -164 l 90 -275 q 80 -99 80 -198 l 81 501 z "},"ÿ":{"ha":719,"x_min":38,"x_max":632,"o":"m 128 951 l 288 949 l 288 796 l 128 798 l 128 951 m 404 949 l 563 947 l 563 794 l 404 796 l 404 949 m 228 -151 q 250 -147 239 -151 q 271 -134 261 -143 q 289 -117 281 -125 q 305 -92 297 -108 q 319 -66 313 -77 q 332 -37 325 -56 q 343 -8 340 -18 q 353 21 347 1 q 362 46 360 41 q 124 568 243 460 q 50 589 101 589 l 50 692 q 125 687 87 692 q 425 195 260 667 q 493 447 465 312 q 525 692 521 582 l 632 692 q 623 578 632 631 q 420 -96 558 228 q 346 -214 391 -172 q 231 -255 302 -255 q 38 0 38 -255 l 144 0 q 164 -119 144 -86 q 228 -151 184 -151 z "},"Ā":{"ha":719,"x_min":28,"x_max":688,"o":"m 509 1044 l 509 941 l 497 941 q 360 939 458 939 q 213 941 259 939 l 201 941 l 201 1046 l 214 1045 q 386 1044 258 1044 q 497 1044 386 1044 l 509 1044 m 486 342 l 354 741 l 228 329 q 363 340 258 336 l 486 342 m 294 882 l 410 882 l 667 117 q 688 0 686 52 l 576 0 q 572 40 576 12 q 563 83 567 69 l 515 225 q 482 224 509 225 q 445 223 456 224 q 407 222 433 223 q 367 221 381 222 q 329 219 352 220 q 289 217 305 218 q 255 213 273 215 q 222 209 237 212 q 195 203 207 206 l 155 82 q 138 0 138 35 l 28 0 q 36 50 29 14 q 50 108 43 85 l 294 882 z "},"ā":{"ha":719,"x_min":50,"x_max":660,"o":"m 470 906 l 470 803 l 458 803 q 321 802 419 802 q 174 803 220 802 l 162 804 l 162 909 l 175 907 q 347 906 219 906 q 458 906 347 906 l 470 906 m 159 211 q 185 129 159 158 q 260 99 212 99 q 337 111 300 99 q 397 138 374 123 q 443 175 421 153 q 474 209 465 197 q 491 234 483 220 l 491 298 q 332 342 420 342 q 209 305 260 341 q 159 211 159 269 m 597 216 q 606 117 597 129 q 619 105 610 112 q 641 89 627 98 q 660 74 654 79 l 604 -7 q 583 8 599 -3 q 560 25 567 19 q 543 44 553 32 q 525 71 532 56 q 515 106 519 86 q 471 66 491 82 q 419 33 451 51 q 347 5 387 14 q 260 -4 307 -4 q 113 57 174 -4 q 53 204 53 119 q 68 286 53 244 q 113 357 84 328 q 210 421 159 404 q 326 439 260 439 q 491 405 435 439 q 453 549 491 503 q 329 595 414 595 q 217 572 256 595 q 138 477 178 549 l 50 533 q 164 660 97 622 q 328 697 232 697 q 524 626 450 697 q 597 439 597 555 l 597 216 z "},"Ă":{"ha":719,"x_min":28,"x_max":688,"o":"m 351 1047 q 443 1075 405 1047 q 484 1143 480 1103 l 596 1122 q 513 990 585 1038 q 351 943 441 943 q 295 948 322 943 q 238 965 269 952 q 183 997 208 977 q 139 1051 159 1017 q 109 1128 119 1084 l 215 1149 q 351 1047 239 1047 m 486 342 l 354 741 l 228 329 q 363 340 258 336 l 486 342 m 294 882 l 410 882 l 667 117 q 688 0 686 52 l 576 0 q 572 40 576 12 q 563 83 567 69 l 515 225 q 482 224 509 225 q 445 223 456 224 q 407 222 433 223 q 367 221 381 222 q 329 219 352 220 q 289 217 305 218 q 255 213 273 215 q 222 209 237 212 q 195 203 207 206 l 155 82 q 138 0 138 35 l 28 0 q 36 50 29 14 q 50 108 43 85 l 294 882 z "},"ă":{"ha":719,"x_min":50,"x_max":660,"o":"m 321 842 q 413 869 376 842 q 454 937 451 897 l 567 917 q 484 785 555 832 q 321 738 412 738 q 266 742 293 738 q 209 759 239 747 q 154 792 178 772 q 110 845 130 812 q 80 923 90 879 l 186 943 q 321 842 210 842 m 159 211 q 185 129 159 158 q 260 99 212 99 q 337 111 300 99 q 397 138 374 123 q 443 175 421 153 q 474 209 465 197 q 491 234 483 220 l 491 298 q 332 342 420 342 q 209 305 260 341 q 159 211 159 269 m 597 216 q 606 117 597 129 q 619 105 610 112 q 641 89 627 98 q 660 74 654 79 l 604 -7 q 583 8 599 -3 q 560 25 567 19 q 543 44 553 32 q 525 71 532 56 q 515 106 519 86 q 471 66 491 82 q 419 33 451 51 q 347 5 387 14 q 260 -4 307 -4 q 113 57 174 -4 q 53 204 53 119 q 68 286 53 244 q 113 357 84 328 q 210 421 159 404 q 326 439 260 439 q 491 405 435 439 q 453 549 491 503 q 329 595 414 595 q 217 572 256 595 q 138 477 178 549 l 50 533 q 164 660 97 622 q 328 697 232 697 q 524 626 450 697 q 597 439 597 555 l 597 216 z "},"Ą":{"ha":719,"x_min":28,"x_max":688,"o":"m 294 882 l 410 882 l 667 117 q 688 0 686 52 q 601 -52 661 -21 q 500 -110 540 -83 q 460 -161 460 -136 q 484 -203 460 -189 q 543 -218 508 -218 q 555 -218 549 -218 q 567 -215 561 -217 q 578 -212 574 -214 q 589 -208 583 -211 q 598 -203 595 -204 q 607 -197 601 -201 q 615 -192 614 -193 q 623 -185 616 -191 q 630 -180 629 -180 l 683 -253 q 619 -297 659 -279 q 540 -316 578 -316 q 401 -275 448 -316 q 355 -161 355 -233 q 385 -87 355 -120 q 450 -37 414 -54 q 525 -2 486 -20 q 574 27 563 16 q 563 83 569 62 l 515 225 q 482 224 509 225 q 445 223 456 224 q 407 222 433 223 q 367 221 381 222 q 329 219 352 220 q 289 217 305 218 q 255 213 273 215 q 222 209 237 212 q 195 203 207 206 l 155 82 q 138 0 138 35 l 28 0 q 36 50 29 14 q 50 108 43 85 l 294 882 m 487 336 l 355 734 l 229 322 q 364 334 259 329 l 487 336 z "},"ą":{"ha":719,"x_min":50,"x_max":643,"o":"m 643 55 q 539 -23 593 12 q 457 -74 486 -59 q 410 -107 429 -90 q 391 -146 391 -125 q 414 -188 391 -174 q 472 -203 437 -203 q 509 -195 490 -203 q 535 -183 528 -188 q 559 -165 543 -178 l 612 -238 q 548 -282 589 -264 q 469 -301 508 -301 q 331 -260 377 -301 q 286 -146 286 -218 q 299 -95 286 -118 q 338 -52 312 -71 q 390 -17 363 -32 q 454 20 416 -1 q 518 58 493 41 q 496 106 500 86 q 453 66 469 79 q 406 33 437 52 q 340 5 376 14 q 260 -4 304 -4 q 113 57 174 -4 q 53 204 53 119 q 68 286 53 244 q 113 357 84 328 q 210 421 159 404 q 326 439 260 439 q 471 405 415 439 q 436 549 471 504 q 323 595 400 595 q 217 567 254 595 q 138 465 180 540 l 50 520 q 163 654 98 612 q 321 697 229 696 q 506 628 435 697 q 576 446 576 558 l 578 216 q 587 117 578 132 q 612 86 594 106 q 643 55 629 66 m 159 211 q 185 129 159 158 q 260 99 212 99 q 327 111 294 99 q 382 138 360 123 q 425 175 404 153 q 455 209 446 197 q 472 234 464 221 l 472 298 q 332 342 401 342 q 209 306 260 342 q 159 211 159 269 z "},"Ć":{"ha":719,"x_min":38,"x_max":660,"o":"m 220 1013 q 378 1099 287 1036 q 536 1225 470 1163 l 620 1126 q 453 1004 565 1071 q 266 913 341 937 l 220 1013 m 386 781 q 287 755 332 781 q 215 692 242 730 q 146 424 146 592 q 233 152 146 233 q 292 113 264 123 q 363 102 321 102 l 373 102 q 566 232 509 107 l 660 180 q 551 47 620 97 q 390 -2 482 -2 l 388 -2 q 159 77 241 -2 q 38 422 38 201 q 128 752 38 621 q 236 848 168 810 q 388 886 304 886 q 523 843 460 886 q 629 721 585 801 l 537 666 q 386 781 479 781 z "},"ć":{"ha":719,"x_min":48,"x_max":657,"o":"m 221 822 q 380 908 288 844 q 538 1034 471 972 l 621 935 q 454 813 566 880 q 267 722 342 746 l 221 822 m 156 357 q 164 264 156 306 q 185 197 173 223 q 217 152 197 170 q 255 123 237 133 q 296 109 272 114 q 335 103 321 104 q 371 102 350 102 l 380 102 q 498 129 454 102 q 572 205 542 155 l 657 143 q 645 126 656 142 q 626 101 635 111 q 600 73 616 91 q 563 44 583 56 q 516 20 543 32 q 456 2 490 8 q 382 -5 421 -5 q 261 6 315 -5 q 163 50 208 17 q 74 174 100 98 q 48 357 48 250 q 70 514 48 450 q 136 617 92 579 q 240 673 180 656 q 382 690 300 690 q 538 643 476 690 q 615 535 585 607 l 511 494 q 504 515 507 507 q 491 538 501 524 q 468 563 481 553 q 430 579 454 572 q 375 587 406 587 q 209 532 262 587 q 156 357 156 478 z "},"Ĉ":{"ha":719,"x_min":38,"x_max":660,"o":"m 376 1202 l 630 979 l 557 907 l 374 1057 l 197 907 l 126 979 l 376 1202 m 386 781 q 287 755 332 781 q 215 692 242 730 q 146 424 146 592 q 233 152 146 233 q 292 113 264 123 q 363 102 321 102 l 373 102 q 566 232 509 107 l 660 180 q 551 47 620 97 q 390 -2 482 -2 l 388 -2 q 159 77 241 -2 q 38 422 38 201 q 128 752 38 621 q 236 848 168 810 q 388 886 304 886 q 523 843 460 886 q 629 721 585 801 l 537 666 q 386 781 479 781 z "},"ĉ":{"ha":719,"x_min":48,"x_max":657,"o":"m 356 1010 l 610 788 l 538 715 l 354 865 l 177 715 l 106 788 l 356 1010 m 156 357 q 164 264 156 306 q 185 197 173 223 q 217 152 197 170 q 255 123 237 133 q 296 109 272 114 q 335 103 321 104 q 371 102 350 102 l 380 102 q 498 129 454 102 q 572 205 542 155 l 657 143 q 645 126 656 142 q 626 101 635 111 q 600 73 616 91 q 563 44 583 56 q 516 20 543 32 q 456 2 490 8 q 382 -5 421 -5 q 261 6 315 -5 q 163 50 208 17 q 74 174 100 98 q 48 357 48 250 q 70 514 48 450 q 136 617 92 579 q 240 673 180 656 q 382 690 300 690 q 538 643 476 690 q 615 535 585 607 l 511 494 q 504 515 507 507 q 491 538 501 524 q 468 563 481 553 q 430 579 454 572 q 375 587 406 587 q 209 532 262 587 q 156 357 156 478 z "},"Ċ":{"ha":719,"x_min":38,"x_max":660,"o":"m 298 1118 l 458 1116 l 458 964 l 298 966 l 298 1118 m 386 781 q 287 755 332 781 q 215 692 242 730 q 146 424 146 592 q 233 152 146 233 q 292 113 264 123 q 363 102 321 102 l 373 102 q 566 232 509 107 l 660 180 q 551 47 620 97 q 390 -2 482 -2 l 388 -2 q 159 77 241 -2 q 38 422 38 201 q 128 752 38 621 q 236 848 168 810 q 388 886 304 886 q 523 843 460 886 q 629 721 585 801 l 537 666 q 386 781 479 781 z "},"ċ":{"ha":719,"x_min":48,"x_max":657,"o":"m 275 951 l 434 951 l 434 799 l 275 799 l 275 951 m 156 357 q 164 264 156 306 q 185 197 173 223 q 217 152 197 170 q 255 123 237 133 q 296 109 272 114 q 335 103 321 104 q 371 102 350 102 l 380 102 q 498 129 454 102 q 572 205 542 155 l 657 143 q 645 126 656 142 q 626 101 635 111 q 600 73 616 91 q 563 44 583 56 q 516 20 543 32 q 456 2 490 8 q 382 -5 421 -5 q 261 6 315 -5 q 163 50 208 17 q 74 174 100 98 q 48 357 48 250 q 70 514 48 450 q 136 617 92 579 q 240 673 180 656 q 382 690 300 690 q 538 643 476 690 q 615 535 585 607 l 511 494 q 504 515 507 507 q 491 538 501 524 q 468 563 481 553 q 430 579 454 572 q 375 587 406 587 q 209 532 262 587 q 156 357 156 478 z "},"Č":{"ha":719,"x_min":38,"x_max":660,"o":"m 377 921 l 126 1137 l 197 1209 l 378 1061 l 557 1209 l 629 1137 l 377 921 m 386 781 q 287 755 332 781 q 215 692 242 730 q 146 424 146 592 q 233 152 146 233 q 292 113 264 123 q 363 102 321 102 l 373 102 q 566 232 509 107 l 660 180 q 551 47 620 97 q 390 -2 482 -2 l 388 -2 q 159 77 241 -2 q 38 422 38 201 q 128 752 38 621 q 236 848 168 810 q 388 886 304 886 q 523 843 460 886 q 629 721 585 801 l 537 666 q 386 781 479 781 z "},"č":{"ha":719,"x_min":48,"x_max":657,"o":"m 366 726 l 115 941 l 185 1014 l 366 866 l 546 1014 l 618 941 l 366 726 m 156 357 q 164 264 156 306 q 185 197 173 223 q 217 152 197 170 q 255 123 237 133 q 296 109 272 114 q 335 103 321 104 q 371 102 350 102 l 380 102 q 498 129 454 102 q 572 205 542 155 l 657 143 q 645 126 656 142 q 626 101 635 111 q 600 73 616 91 q 563 44 583 56 q 516 20 543 32 q 456 2 490 8 q 382 -5 421 -5 q 261 6 315 -5 q 163 50 208 17 q 74 174 100 98 q 48 357 48 250 q 70 514 48 450 q 136 617 92 579 q 240 673 180 656 q 382 690 300 690 q 538 643 476 690 q 615 535 585 607 l 511 494 q 504 515 507 507 q 491 538 501 524 q 468 563 481 553 q 430 579 454 572 q 375 587 406 587 q 209 532 262 587 q 156 357 156 478 z "},"Ď":{"ha":719,"x_min":37,"x_max":657,"o":"m 288 923 l 37 1139 l 108 1211 l 289 1063 l 469 1211 l 541 1139 l 288 923 m 210 781 l 189 781 q 159 780 166 781 q 159 722 159 763 q 159 656 159 701 q 159 587 159 611 q 156 98 159 358 q 287 96 216 96 q 368 100 334 96 q 434 119 401 105 q 491 162 467 134 q 531 235 515 191 q 544 294 539 256 q 549 361 549 332 q 531 522 549 444 q 481 647 513 600 q 416 721 448 694 q 333 765 385 749 q 210 781 282 781 m 47 85 q 48 180 47 95 q 51 386 50 266 q 52 599 52 505 l 52 649 q 43 876 52 791 q 195 884 132 884 q 418 843 332 884 q 568 709 505 801 q 634 561 611 646 q 657 385 657 476 q 643 250 657 321 q 548 71 620 135 q 379 -2 476 7 q 270 -7 327 -7 q 165 -4 244 -7 q 45 -2 87 -2 q 47 85 45 20 z "},"ď":{"ha":719,"x_min":22,"x_max":726,"o":"m 125 324 q 158 157 125 214 q 270 100 191 100 q 367 123 334 100 q 436 208 399 146 l 436 505 q 376 559 395 547 q 305 582 342 582 q 125 324 125 582 m 538 181 l 538 163 q 549 5 538 88 l 443 -8 q 436 57 436 43 q 270 -5 370 -5 q 156 19 205 -5 q 79 85 107 42 q 36 185 50 129 q 22 311 22 241 q 315 687 22 687 q 340 686 328 687 q 362 682 351 685 q 379 677 372 679 q 396 669 386 675 q 409 662 406 664 q 423 652 412 660 q 435 644 433 645 l 435 784 q 426 951 435 844 l 530 957 q 538 781 538 876 l 538 181 m 726 924 q 687 797 711 882 q 651 672 663 711 l 548 695 q 594 957 562 808 l 726 924 z "},"Đ":{"ha":719,"x_min":3,"x_max":657,"o":"m 52 625 l 52 663 q 43 893 52 807 q 195 903 139 903 q 418 860 332 903 q 568 723 505 817 q 634 572 611 659 q 657 393 657 486 q 643 255 657 328 q 548 72 620 138 q 379 -2 476 7 q 270 -7 327 -7 q 165 -4 244 -7 q 45 -2 87 -2 q 47 87 45 20 q 48 166 47 98 q 51 336 50 234 q 52 524 52 438 l 3 524 l 3 625 l 52 625 m 210 798 l 189 798 q 159 795 170 798 q 159 736 159 778 q 159 682 159 720 q 159 625 159 644 l 407 625 l 408 524 l 159 524 q 156 100 157 245 q 287 98 216 98 q 368 103 335 98 q 434 122 401 108 q 491 165 467 136 q 531 239 515 194 q 549 369 549 292 q 531 533 549 454 q 481 660 513 612 q 417 736 448 708 q 334 781 385 764 q 210 798 282 798 z "},"đ":{"ha":719,"x_min":57,"x_max":658,"o":"m 595 181 l 595 163 q 607 5 595 84 l 496 -8 q 489 57 490 37 q 315 -5 420 -5 q 120 81 182 -5 q 57 311 57 166 q 362 687 57 687 q 388 686 376 687 q 411 682 400 685 q 429 677 422 679 q 447 669 436 675 q 460 662 457 663 q 475 652 464 660 q 488 644 486 645 l 488 758 l 271 758 l 271 861 l 486 861 q 478 951 483 905 l 586 957 q 593 861 591 910 l 658 861 l 658 758 l 595 758 l 595 181 m 163 324 q 198 157 163 214 q 315 100 233 100 q 392 112 361 100 q 443 145 422 123 q 489 208 463 166 l 489 505 q 425 560 446 547 q 353 582 389 582 q 163 324 163 582 z "},"Ē":{"ha":719,"x_min":69,"x_max":640,"o":"m 484 1074 l 484 971 l 472 971 q 335 970 433 970 q 188 971 234 970 l 176 972 l 176 1077 l 189 1076 q 361 1074 233 1074 q 472 1074 361 1074 l 484 1074 m 69 877 q 208 880 107 880 q 274 880 208 880 l 349 880 q 489 879 406 880 q 592 878 573 878 l 603 878 l 603 776 l 176 776 l 176 553 l 473 553 l 473 452 l 176 452 l 176 431 q 175 234 176 352 q 174 100 174 115 l 530 101 q 567 105 547 101 q 598 114 587 110 l 610 119 l 640 18 q 617 12 633 16 q 592 4 601 7 q 567 0 583 2 q 532 -2 550 -2 l 69 -2 l 69 877 z "},"ē":{"ha":719,"x_min":53,"x_max":626,"o":"m 501 905 l 501 802 l 490 802 q 353 800 450 800 q 205 802 252 800 l 193 802 l 193 907 l 206 906 q 378 905 250 905 q 490 905 378 905 l 501 905 m 160 393 q 518 411 376 395 q 463 541 510 492 q 346 589 416 589 q 212 532 262 589 q 160 393 161 475 m 345 692 q 441 677 398 692 q 513 640 484 663 q 563 584 541 616 q 596 519 585 551 q 615 452 608 488 q 624 391 622 416 q 626 341 626 366 q 625 312 626 317 q 160 290 322 292 q 209 151 160 205 q 357 97 258 97 q 467 124 422 97 q 537 187 511 151 l 621 113 q 597 88 606 97 q 562 59 589 79 q 509 26 535 38 q 441 4 484 14 q 354 -7 399 -7 q 130 90 207 -7 q 53 350 53 186 q 130 597 53 501 q 345 692 206 692 z "},"Ĕ":{"ha":719,"x_min":69,"x_max":640,"o":"m 346 1038 q 438 1066 400 1038 q 479 1135 475 1094 l 591 1114 q 508 981 580 1029 q 346 933 437 933 q 291 938 317 933 q 233 955 264 942 q 179 988 203 968 q 134 1042 155 1008 q 104 1120 114 1076 l 210 1141 q 346 1038 234 1038 m 69 877 q 208 880 107 880 q 274 880 208 880 l 349 880 q 489 879 406 880 q 592 878 573 878 l 603 878 l 603 776 l 176 776 l 176 553 l 473 553 l 473 452 l 176 452 l 176 431 q 175 234 176 352 q 174 100 174 115 l 530 101 q 567 105 547 101 q 598 114 587 110 l 610 119 l 640 18 q 617 12 633 16 q 592 4 601 7 q 567 0 583 2 q 532 -2 550 -2 l 69 -2 l 69 877 z "},"ĕ":{"ha":719,"x_min":53,"x_max":626,"o":"m 347 836 q 439 863 401 836 q 480 931 477 891 l 593 911 q 510 779 581 826 q 347 732 438 732 q 292 736 319 732 q 235 753 265 741 q 180 786 204 766 q 136 839 156 806 q 106 917 115 873 l 212 937 q 347 836 235 836 m 160 393 q 518 411 376 395 q 463 541 510 492 q 346 589 416 589 q 212 532 262 589 q 160 393 161 475 m 345 692 q 441 677 398 692 q 513 640 484 663 q 563 584 541 616 q 596 519 585 551 q 615 452 608 488 q 624 391 622 416 q 626 341 626 366 q 625 312 626 317 q 160 290 322 292 q 209 151 160 205 q 357 97 258 97 q 467 124 422 97 q 537 187 511 151 l 621 113 q 597 88 606 97 q 562 59 589 79 q 509 26 535 38 q 441 4 484 14 q 354 -7 399 -7 q 130 90 207 -7 q 53 350 53 186 q 130 597 53 501 q 345 692 206 692 z "},"Ė":{"ha":719,"x_min":69,"x_max":640,"o":"m 262 1118 l 422 1116 l 422 964 l 262 966 l 262 1118 m 69 877 q 208 880 107 880 q 274 880 208 880 l 349 880 q 489 879 406 880 q 592 878 573 878 l 603 878 l 603 776 l 176 776 l 176 553 l 473 553 l 473 452 l 176 452 l 176 431 q 175 234 176 352 q 174 100 174 115 l 530 101 q 567 105 547 101 q 598 114 587 110 l 610 119 l 640 18 q 617 12 633 16 q 592 4 601 7 q 567 0 583 2 q 532 -2 550 -2 l 69 -2 l 69 877 z "},"ė":{"ha":719,"x_min":53,"x_max":626,"o":"m 266 951 l 425 951 l 425 799 l 266 799 l 266 951 m 160 393 q 518 411 376 395 q 463 541 510 492 q 346 589 416 589 q 212 532 262 589 q 160 393 161 475 m 345 692 q 441 677 398 692 q 513 640 484 663 q 563 584 541 616 q 596 519 585 551 q 615 452 608 488 q 624 391 622 416 q 626 341 626 366 q 625 312 626 317 q 160 290 322 292 q 209 151 160 205 q 357 97 258 97 q 467 124 422 97 q 537 187 511 151 l 621 113 q 597 88 606 97 q 562 59 589 79 q 509 26 535 38 q 441 4 484 14 q 354 -7 399 -7 q 130 90 207 -7 q 53 350 53 186 q 130 597 53 501 q 345 692 206 692 z "},"Ę":{"ha":719,"x_min":69,"x_max":646,"o":"m 69 877 q 208 880 107 880 q 274 880 208 880 l 349 880 q 489 879 406 880 q 592 878 573 878 l 603 878 l 603 776 l 176 776 l 176 553 l 473 553 l 473 452 l 176 452 l 176 431 q 175 234 176 352 q 174 100 174 115 l 530 101 q 567 105 547 101 q 598 114 587 110 l 610 119 l 640 18 q 494 -61 564 -4 q 424 -155 424 -117 q 447 -197 424 -182 q 505 -212 471 -212 q 542 -204 524 -212 q 568 -192 561 -197 q 593 -174 576 -186 l 646 -247 q 582 -291 622 -273 q 503 -310 541 -310 q 365 -269 410 -310 q 319 -155 319 -227 q 421 -2 319 -79 l 69 -2 l 69 877 z "},"ę":{"ha":719,"x_min":53,"x_max":626,"o":"m 160 393 q 338 400 228 394 q 518 414 448 406 q 466 541 515 492 q 346 589 416 589 q 212 532 262 589 q 160 393 161 475 m 345 692 q 441 677 398 692 q 513 640 484 663 q 563 584 541 616 q 596 519 585 551 q 615 452 608 488 q 624 391 622 416 q 626 341 626 366 q 625 312 626 317 q 160 290 322 292 q 207 152 160 206 q 342 97 253 97 q 461 127 414 97 q 532 194 509 157 l 614 124 q 600 104 610 117 q 514 7 562 52 q 433 -61 466 -38 q 378 -107 401 -84 q 355 -146 355 -130 q 379 -188 355 -174 q 437 -203 402 -203 q 474 -195 455 -203 q 500 -183 492 -188 q 524 -165 507 -178 l 577 -238 q 513 -282 553 -264 q 434 -301 473 -301 q 296 -260 342 -301 q 250 -146 250 -218 q 255 -116 250 -130 q 264 -92 259 -102 q 282 -70 270 -82 q 304 -51 295 -58 q 333 -30 313 -44 q 364 -6 352 -16 q 340 -7 356 -7 q 126 89 199 -7 q 53 350 53 185 q 130 597 53 501 q 345 692 206 692 z "},"Ě":{"ha":719,"x_min":69,"x_max":640,"o":"m 351 909 l 100 1124 l 171 1197 l 352 1049 l 532 1197 l 604 1124 l 351 909 m 69 877 q 208 880 107 880 q 274 880 208 880 l 349 880 q 489 879 406 880 q 592 878 573 878 l 603 878 l 603 776 l 176 776 l 176 553 l 473 553 l 473 452 l 176 452 l 176 431 q 175 234 176 352 q 174 100 174 115 l 530 101 q 567 105 547 101 q 598 114 587 110 l 610 119 l 640 18 q 617 12 633 16 q 592 4 601 7 q 567 0 583 2 q 532 -2 550 -2 l 69 -2 l 69 877 z "},"ě":{"ha":719,"x_min":53,"x_max":626,"o":"m 345 720 l 94 935 l 164 1008 l 345 860 l 525 1008 l 597 935 l 345 720 m 160 393 q 518 411 376 395 q 463 541 510 492 q 346 589 416 589 q 212 532 262 589 q 160 393 161 475 m 345 692 q 441 677 398 692 q 513 640 484 663 q 563 584 541 616 q 596 519 585 551 q 615 452 608 488 q 624 391 622 416 q 626 341 626 366 q 625 312 626 317 q 160 290 322 292 q 209 151 160 205 q 357 97 258 97 q 467 124 422 97 q 537 187 511 151 l 621 113 q 597 88 606 97 q 562 59 589 79 q 509 26 535 38 q 441 4 484 14 q 354 -7 399 -7 q 130 90 207 -7 q 53 350 53 186 q 130 597 53 501 q 345 692 206 692 z "},"Ĝ":{"ha":719,"x_min":14,"x_max":673,"o":"m 344 1194 l 598 971 l 526 899 l 342 1048 l 165 899 l 94 971 l 344 1194 m 584 497 q 673 502 623 497 l 673 410 q 659 227 673 302 q 615 106 644 151 q 552 38 587 62 q 469 2 517 15 q 366 -5 435 -5 q 235 17 294 -5 q 135 78 176 39 q 67 172 94 117 q 26 291 39 227 q 14 426 14 354 q 138 804 14 684 q 361 883 228 883 l 375 883 q 662 696 578 878 l 565 649 q 368 780 505 780 q 286 771 318 780 q 216 730 253 762 q 123 418 123 651 q 135 294 123 349 q 174 194 147 239 q 252 124 201 149 q 373 100 302 100 q 429 106 407 100 q 486 129 463 113 q 526 176 508 144 q 552 263 543 208 q 560 398 560 317 q 511 397 543 397 q 480 397 500 397 q 450 397 460 397 q 294 372 365 397 l 267 470 q 471 498 343 498 q 528 498 490 498 q 584 497 566 497 z "},"ĝ":{"ha":719,"x_min":54,"x_max":654,"o":"m 324 1019 l 578 797 l 506 724 l 322 874 l 145 724 l 75 797 l 324 1019 m 161 -52 q 195 -135 161 -113 q 301 -157 229 -157 l 372 -157 q 432 -151 404 -157 q 487 -130 460 -144 q 529 -86 513 -115 q 545 -17 545 -57 q 361 48 545 48 q 218 47 317 48 q 176 9 191 36 q 161 -52 161 -18 m 323 378 q 434 404 391 378 q 477 479 477 431 q 440 567 477 541 q 334 593 404 593 q 218 560 264 593 q 172 481 172 528 q 323 378 172 378 m 64 474 q 136 638 64 580 q 334 696 208 696 q 506 655 439 696 q 565 689 533 681 q 654 697 596 697 l 654 586 q 625 589 634 589 q 563 574 578 589 q 583 481 583 538 q 513 331 583 387 q 326 276 442 276 q 191 298 248 276 q 162 231 162 264 q 284 151 162 151 q 345 152 293 151 q 407 153 397 153 q 499 144 458 153 q 576 117 541 136 q 632 64 612 98 q 652 -16 652 31 q 575 -203 652 -142 q 368 -263 499 -263 l 298 -263 q 120 -211 186 -263 q 54 -56 54 -159 q 113 93 54 41 q 56 222 56 136 q 106 357 56 300 q 64 474 64 404 z "},"Ğ":{"ha":719,"x_min":14,"x_max":673,"o":"m 342 1035 q 434 1063 396 1035 q 475 1131 471 1090 l 587 1110 q 504 978 576 1025 q 342 931 433 931 q 287 936 313 931 q 229 952 260 940 q 175 985 199 965 q 130 1039 151 1005 q 100 1116 110 1072 l 206 1137 q 342 1035 230 1035 m 584 497 q 673 502 623 497 l 673 410 q 659 227 673 302 q 615 106 644 151 q 552 38 587 62 q 469 2 517 15 q 366 -5 435 -5 q 235 17 294 -5 q 135 78 176 39 q 67 172 94 117 q 26 291 39 227 q 14 426 14 354 q 138 804 14 684 q 361 883 228 883 l 375 883 q 662 696 578 878 l 565 649 q 368 780 505 780 q 286 771 318 780 q 216 730 253 762 q 123 418 123 651 q 135 294 123 349 q 174 194 147 239 q 252 124 201 149 q 373 100 302 100 q 429 106 407 100 q 486 129 463 113 q 526 176 508 144 q 552 263 543 208 q 560 398 560 317 q 511 397 543 397 q 480 397 500 397 q 450 397 460 397 q 294 372 365 397 l 267 470 q 471 498 343 498 q 528 498 490 498 q 584 497 566 497 z "},"ğ":{"ha":719,"x_min":54,"x_max":654,"o":"m 326 844 q 418 872 380 844 q 459 940 456 900 l 572 920 q 489 788 560 835 q 326 741 417 741 q 271 745 298 741 q 214 762 244 749 q 159 794 183 774 q 115 848 135 814 q 85 926 94 882 l 191 946 q 326 844 214 844 m 161 -52 q 195 -135 161 -113 q 301 -157 229 -157 l 372 -157 q 432 -151 404 -157 q 487 -130 460 -144 q 529 -86 513 -115 q 545 -17 545 -57 q 361 48 545 48 q 218 47 317 48 q 176 9 191 36 q 161 -52 161 -18 m 323 378 q 434 404 391 378 q 477 479 477 431 q 440 567 477 541 q 334 593 404 593 q 218 560 264 593 q 172 481 172 528 q 323 378 172 378 m 64 474 q 136 638 64 580 q 334 696 208 696 q 506 655 439 696 q 565 689 533 681 q 654 697 596 697 l 654 586 q 625 589 634 589 q 563 574 578 589 q 583 481 583 538 q 513 331 583 387 q 326 276 442 276 q 191 298 248 276 q 162 231 162 264 q 284 151 162 151 q 345 152 293 151 q 407 153 397 153 q 499 144 458 153 q 576 117 541 136 q 632 64 612 98 q 652 -16 652 31 q 575 -203 652 -142 q 368 -263 499 -263 l 298 -263 q 120 -211 186 -263 q 54 -56 54 -159 q 113 93 54 41 q 56 222 56 136 q 106 357 56 300 q 64 474 64 404 z "},"Ġ":{"ha":719,"x_min":14,"x_max":673,"o":"m 284 1120 l 444 1118 l 444 966 l 284 968 l 284 1120 m 584 497 q 673 502 623 497 l 673 410 q 659 227 673 302 q 615 106 644 151 q 552 38 587 62 q 469 2 517 15 q 366 -5 435 -5 q 235 17 294 -5 q 135 78 176 39 q 67 172 94 117 q 26 291 39 227 q 14 426 14 354 q 138 804 14 684 q 361 883 228 883 l 375 883 q 662 696 578 878 l 565 649 q 368 780 505 780 q 286 771 318 780 q 216 730 253 762 q 123 418 123 651 q 135 294 123 349 q 174 194 147 239 q 252 124 201 149 q 373 100 302 100 q 429 106 407 100 q 486 129 463 113 q 526 176 508 144 q 552 263 543 208 q 560 398 560 317 q 511 397 543 397 q 480 397 500 397 q 450 397 460 397 q 294 372 365 397 l 267 470 q 471 498 343 498 q 528 498 490 498 q 584 497 566 497 z "},"ġ":{"ha":719,"x_min":54,"x_max":654,"o":"m 257 951 l 416 951 l 416 799 l 257 799 l 257 951 m 161 -52 q 195 -135 161 -113 q 301 -157 229 -157 l 372 -157 q 432 -151 404 -157 q 487 -130 460 -144 q 529 -86 513 -115 q 545 -17 545 -57 q 361 48 545 48 q 218 47 317 48 q 176 9 191 36 q 161 -52 161 -18 m 323 378 q 434 404 391 378 q 477 479 477 431 q 440 567 477 541 q 334 593 404 593 q 218 560 264 593 q 172 481 172 528 q 323 378 172 378 m 64 474 q 136 638 64 580 q 334 696 208 696 q 506 655 439 696 q 565 689 533 681 q 654 697 596 697 l 654 586 q 625 589 634 589 q 563 574 578 589 q 583 481 583 538 q 513 331 583 387 q 326 276 442 276 q 191 298 248 276 q 162 231 162 264 q 284 151 162 151 q 345 152 293 151 q 407 153 397 153 q 499 144 458 153 q 576 117 541 136 q 632 64 612 98 q 652 -16 652 31 q 575 -203 652 -142 q 368 -263 499 -263 l 298 -263 q 120 -211 186 -263 q 54 -56 54 -159 q 113 93 54 41 q 56 222 56 136 q 106 357 56 300 q 64 474 64 404 z "},"Ģ":{"ha":719,"x_min":14,"x_max":673,"o":"m 297 -88 l 467 -88 l 472 -267 l 472 -269 q 302 -541 472 -463 l 260 -446 q 333 -379 309 -419 q 357 -271 357 -338 l 297 -271 l 297 -88 m 584 497 q 673 502 623 497 l 673 410 q 659 227 673 302 q 615 106 644 151 q 552 38 587 62 q 469 2 517 15 q 366 -5 435 -5 q 235 17 294 -5 q 135 78 176 39 q 67 172 94 117 q 26 291 39 227 q 14 426 14 354 q 138 804 14 684 q 361 883 228 883 l 375 883 q 662 696 578 878 l 565 649 q 368 780 505 780 q 286 771 318 780 q 216 730 253 762 q 123 418 123 651 q 135 294 123 349 q 174 194 147 239 q 252 124 201 149 q 373 100 302 100 q 429 106 407 100 q 486 129 463 113 q 526 176 508 144 q 552 263 543 208 q 560 398 560 317 q 511 397 543 397 q 480 397 500 397 q 450 397 460 397 q 294 372 365 397 l 267 470 q 471 498 343 498 q 528 498 490 498 q 584 497 566 497 z "},"ģ":{"ha":719,"x_min":54,"x_max":654,"o":"m 313 793 q 352 925 328 837 q 387 1046 377 1014 l 490 1023 q 444 761 477 920 l 313 793 m 161 -52 q 195 -135 161 -113 q 301 -157 229 -157 l 372 -157 q 432 -151 404 -157 q 487 -130 460 -144 q 529 -86 513 -115 q 545 -17 545 -57 q 361 48 545 48 q 218 47 317 48 q 176 9 191 36 q 161 -52 161 -18 m 323 378 q 434 404 391 378 q 477 479 477 431 q 440 567 477 541 q 334 593 404 593 q 218 560 264 593 q 172 481 172 528 q 323 378 172 378 m 64 474 q 136 638 64 580 q 334 696 208 696 q 506 655 439 696 q 565 689 533 681 q 654 697 596 697 l 654 586 q 625 589 634 589 q 563 574 578 589 q 583 481 583 538 q 513 331 583 387 q 326 276 442 276 q 191 298 248 276 q 162 231 162 264 q 284 151 162 151 q 345 152 293 151 q 407 153 397 153 q 499 144 458 153 q 576 117 541 136 q 632 64 612 98 q 652 -16 652 31 q 575 -203 652 -142 q 368 -263 499 -263 l 298 -263 q 120 -211 186 -263 q 54 -56 54 -159 q 113 93 54 41 q 56 222 56 136 q 106 357 56 300 q 64 474 64 404 z "},"Ĥ":{"ha":719,"x_min":41,"x_max":618,"o":"m 330 1208 l 585 985 l 512 913 l 328 1063 l 151 913 l 81 985 l 330 1208 m 149 879 l 149 508 q 357 527 232 527 l 511 527 q 511 730 511 629 q 511 876 511 830 l 618 876 l 618 0 l 511 0 l 511 424 l 424 424 q 149 405 238 424 q 149 161 149 275 q 150 0 150 47 l 41 0 l 41 878 l 149 879 z "},"ĥ":{"ha":719,"x_min":-73,"x_max":665,"o":"m 177 1227 l 431 1004 l 359 932 l 175 1082 l -2 932 l -73 1004 l 177 1227 m 501 391 q 495 487 501 452 q 472 547 490 522 q 423 579 454 571 q 340 588 393 588 q 245 559 292 588 q 182 496 199 530 l 182 134 q 176 0 182 62 l 68 5 q 76 138 76 73 l 75 951 l 183 951 l 183 637 q 261 677 224 663 q 345 692 298 692 q 469 678 420 692 q 555 621 519 665 q 598 541 589 581 q 608 435 608 501 l 608 391 q 607 258 608 331 q 607 151 607 184 q 620 106 607 124 q 665 68 633 89 l 606 -12 q 566 14 582 2 q 534 43 550 25 q 509 85 517 61 q 501 141 501 110 l 501 391 z "},"Ħ":{"ha":719,"x_min":0,"x_max":676,"o":"m 41 777 l 41 878 l 149 879 l 149 777 l 511 777 q 511 876 511 777 l 618 876 l 618 777 l 676 777 l 676 675 l 618 675 l 618 0 l 511 0 l 511 424 q 424 424 511 424 q 149 405 238 424 q 149 161 149 275 q 150 0 150 47 l 41 0 l 41 675 l 0 675 l 0 777 l 41 777 m 511 675 l 149 675 l 149 508 q 357 527 232 527 l 511 527 l 511 675 z "},"ħ":{"ha":719,"x_min":0,"x_max":651,"o":"m 487 391 q 481 487 487 452 q 457 547 475 522 q 409 579 439 571 q 326 588 378 588 q 231 559 277 588 q 168 496 185 530 l 168 134 q 161 0 168 62 l 54 5 q 62 138 62 73 q 61 460 62 244 q 61 757 61 677 l 0 757 l 0 859 l 61 859 l 61 950 l 168 951 l 168 859 l 417 859 l 417 757 l 169 757 l 169 637 q 247 677 210 663 q 331 692 284 692 q 455 678 406 692 q 541 621 505 665 q 584 541 574 581 q 593 435 593 501 l 593 391 q 593 258 593 331 q 593 151 593 184 q 606 106 593 124 q 651 68 619 89 l 591 -12 q 552 14 568 2 q 519 43 536 25 q 495 85 503 61 q 487 141 487 110 l 487 391 z "},"Ĩ":{"ha":719,"x_min":36,"x_max":627,"o":"m 227 1137 q 292 1124 260 1137 q 342 1096 323 1111 q 384 1067 361 1080 q 427 1055 408 1055 q 492 1077 463 1055 q 527 1141 520 1099 l 627 1105 q 556 997 610 1042 q 437 951 502 951 q 375 964 405 951 q 326 992 345 977 q 282 1020 307 1007 q 235 1033 257 1033 q 172 1018 197 1033 q 130 955 147 1004 l 36 1005 q 76 1072 54 1045 q 123 1113 98 1099 q 172 1132 148 1126 q 227 1137 196 1137 m 103 880 q 329 883 209 883 q 576 881 410 883 l 576 778 q 478 780 532 778 q 395 781 425 781 l 395 103 q 435 103 410 103 q 478 104 460 104 q 576 101 529 104 l 576 -1 q 433 3 507 3 q 384 3 418 3 q 328 3 349 3 q 237 0 310 3 q 105 -2 165 -2 l 105 99 q 235 102 177 102 l 286 102 l 286 781 q 107 776 156 779 l 103 880 z "},"ĩ":{"ha":719,"x_min":5,"x_max":698,"o":"m 196 943 q 261 930 230 943 q 311 902 292 918 q 354 874 330 887 q 397 861 377 861 q 461 883 433 861 q 496 947 490 905 l 597 912 q 526 803 580 849 q 406 758 471 758 q 345 770 374 758 q 295 799 315 783 q 251 827 276 814 q 204 840 227 840 q 142 825 167 840 q 99 762 117 810 l 5 812 q 45 879 24 852 q 92 920 67 906 q 141 938 117 933 q 196 943 165 943 m 283 687 l 361 687 q 362 142 361 687 q 385 94 364 104 q 458 84 405 84 q 565 97 511 84 q 652 134 619 109 l 698 56 q 591 5 656 22 q 458 -12 526 -12 q 319 14 367 -12 q 256 140 256 48 l 256 581 q 81 562 163 581 l 62 659 q 283 687 184 687 z "},"Ī":{"ha":719,"x_min":103,"x_max":576,"o":"m 479 1080 l 479 977 l 467 977 q 330 976 428 976 q 183 977 229 976 l 171 978 l 171 1083 l 184 1082 q 356 1080 228 1080 q 467 1080 356 1080 l 479 1080 m 103 880 q 329 883 209 883 q 576 881 410 883 l 576 778 q 478 780 532 778 q 395 781 425 781 l 395 103 q 435 103 410 103 q 478 104 460 104 q 576 101 529 104 l 576 -1 q 433 3 507 3 q 384 3 418 3 q 328 3 349 3 q 237 0 310 3 q 105 -2 165 -2 l 105 99 q 235 102 177 102 l 286 102 l 286 781 q 107 776 156 779 l 103 880 z "},"ī":{"ha":719,"x_min":62,"x_max":698,"o":"m 460 904 l 460 801 l 449 801 q 312 800 410 800 q 165 801 211 800 l 153 802 l 153 907 l 165 905 q 338 904 210 904 q 449 904 338 904 l 460 904 m 283 687 l 361 687 q 362 142 361 687 q 385 94 364 104 q 458 84 405 84 q 565 97 511 84 q 652 134 619 109 l 698 56 q 591 5 656 22 q 458 -12 526 -12 q 319 14 367 -12 q 256 140 256 48 l 256 581 q 81 562 163 581 l 62 659 q 283 687 184 687 z "},"Ĭ":{"ha":719,"x_min":100,"x_max":587,"o":"m 341 1036 q 433 1063 395 1036 q 474 1131 471 1091 l 587 1111 q 504 979 575 1026 q 341 932 432 932 q 286 936 313 932 q 229 953 259 941 q 174 986 198 966 q 130 1039 150 1006 q 100 1117 109 1073 l 205 1137 q 341 1036 229 1036 m 103 880 q 329 883 209 883 q 576 881 410 883 l 576 778 q 478 780 532 778 q 395 781 425 781 l 395 103 q 435 103 410 103 q 478 104 460 104 q 576 101 529 104 l 576 -1 q 433 3 507 3 q 384 3 418 3 q 328 3 349 3 q 237 0 310 3 q 105 -2 165 -2 l 105 99 q 235 102 177 102 l 286 102 l 286 781 q 107 776 156 779 l 103 880 z "},"ĭ":{"ha":719,"x_min":62,"x_max":698,"o":"m 321 858 q 413 886 375 858 q 454 954 450 913 l 566 933 q 483 801 555 848 q 321 754 412 754 q 266 759 292 754 q 208 775 239 763 q 154 808 178 788 q 109 862 130 828 q 79 939 89 895 l 185 960 q 321 858 209 858 m 283 687 l 361 687 q 362 142 361 687 q 385 94 364 104 q 458 84 405 84 q 565 97 511 84 q 652 134 619 109 l 698 56 q 591 5 656 22 q 458 -12 526 -12 q 319 14 367 -12 q 256 140 256 48 l 256 581 q 81 562 163 581 l 62 659 q 283 687 184 687 z "},"Į":{"ha":719,"x_min":90,"x_max":581,"o":"m 90 880 q 329 883 195 883 q 578 881 412 883 l 578 778 q 480 780 534 778 q 395 781 425 781 l 395 103 q 435 103 410 103 q 478 104 460 104 q 576 101 529 104 l 576 -1 q 507 -42 547 -19 q 446 -78 467 -65 q 401 -107 424 -91 q 369 -137 378 -123 q 359 -165 359 -151 q 382 -207 359 -193 q 440 -222 406 -222 q 477 -214 458 -222 q 503 -202 496 -207 q 528 -184 511 -197 l 581 -257 q 516 -301 557 -283 q 437 -320 476 -320 q 299 -279 345 -320 q 254 -165 254 -237 q 263 -121 254 -142 q 284 -86 273 -100 q 319 -56 296 -72 q 355 -34 342 -41 q 396 -13 369 -26 q 430 3 422 0 q 382 3 416 3 q 328 3 349 3 q 230 0 310 3 q 91 -2 151 -2 l 91 99 q 235 102 163 102 l 286 102 l 286 781 q 94 776 138 779 l 90 880 z "},"į":{"ha":719,"x_min":62,"x_max":698,"o":"m 213 951 l 372 949 l 372 797 l 213 799 l 213 951 m 283 687 l 364 687 q 365 142 364 687 q 386 94 367 104 q 458 84 406 84 q 565 97 511 84 q 652 134 619 109 l 698 56 q 593 -25 647 12 q 512 -78 539 -62 q 468 -115 486 -94 q 450 -163 450 -136 q 473 -205 450 -191 q 531 -220 496 -220 q 568 -212 549 -220 q 594 -200 587 -205 q 618 -182 602 -195 l 671 -255 q 607 -299 648 -281 q 528 -318 567 -318 q 390 -277 436 -318 q 345 -163 345 -235 q 353 -118 345 -138 q 381 -78 361 -98 q 418 -46 402 -58 q 470 -12 435 -35 l 458 -12 q 319 14 367 -12 q 256 140 256 48 l 256 581 q 81 562 163 581 l 62 659 q 283 687 184 687 z "},"İ":{"ha":719,"x_min":103,"x_max":576,"o":"m 249 1120 l 409 1118 l 409 966 l 249 968 l 249 1120 m 103 880 q 329 883 209 883 q 576 881 410 883 l 576 778 q 478 780 532 778 q 395 781 425 781 l 395 103 q 435 103 410 103 q 478 104 460 104 q 576 101 529 104 l 576 -1 q 433 3 507 3 q 384 3 418 3 q 328 3 349 3 q 237 0 310 3 q 105 -2 165 -2 l 105 99 q 235 102 177 102 l 286 102 l 286 781 q 107 776 156 779 l 103 880 z "},"ı":{"ha":719,"x_min":62,"x_max":698,"o":"m 283 687 l 361 687 q 362 142 361 687 q 385 94 364 104 q 458 84 405 84 q 565 97 511 84 q 652 134 619 109 l 698 56 q 591 5 656 22 q 458 -12 526 -12 q 319 14 367 -12 q 256 140 256 48 l 256 581 q 81 562 163 581 l 62 659 q 283 687 184 687 z "},"Ĳ":{"ha":719,"x_min":34,"x_max":685,"o":"m 258 781 q 191 781 233 781 l 191 103 l 245 102 l 245 0 q 174 1 225 1 q 98 0 146 1 q 35 0 49 0 l 35 99 q 71 103 57 103 l 83 103 l 83 781 q 59 781 66 781 q 50 780 52 781 q 44 778 47 779 q 35 776 41 777 l 34 880 q 126 883 61 883 l 214 883 l 260 883 l 258 781 m 349 879 q 395 879 366 879 q 437 878 425 878 q 549 879 472 878 q 685 880 625 880 l 684 776 q 655 776 667 776 q 625 777 642 777 q 640 435 640 610 q 639 335 640 375 q 634 244 638 294 q 622 160 630 193 q 601 93 614 127 q 567 39 587 59 q 518 7 547 20 q 450 -5 488 -5 q 369 19 404 -5 q 315 87 334 44 q 287 181 296 131 q 277 289 277 231 l 385 288 q 405 151 389 206 q 449 96 421 96 q 482 103 468 96 q 505 123 496 109 q 520 155 515 138 q 529 201 526 172 q 533 258 532 230 q 534 327 534 286 q 533 384 534 345 q 533 447 533 424 q 514 776 533 559 q 347 777 426 776 l 349 879 z "},"ĳ":{"ha":719,"x_min":33,"x_max":663,"o":"m 550 -77 l 549 586 q 538 586 549 586 q 376 566 460 586 l 357 663 q 576 691 479 691 l 656 691 l 656 -80 q 650 -137 656 -111 q 631 -186 645 -163 q 594 -227 616 -210 q 536 -253 572 -243 q 453 -262 500 -262 q 308 -248 375 -262 q 142 -182 240 -233 l 181 -81 q 439 -157 291 -157 l 450 -157 q 497 -148 477 -157 q 529 -125 518 -139 q 544 -100 539 -112 q 550 -77 549 -87 m 195 692 l 276 692 l 277 147 q 338 89 277 89 q 414 130 388 89 l 470 61 q 407 12 448 28 q 326 -4 366 -4 q 205 37 242 -4 q 168 144 168 79 l 168 586 l 160 586 q 52 572 114 586 l 33 668 q 61 675 42 670 q 86 681 81 680 q 105 685 92 682 q 126 688 119 688 q 144 690 132 689 q 168 691 157 691 q 195 692 180 692 m 505 952 l 663 950 l 663 798 l 505 800 l 505 952 m 125 956 l 284 954 l 284 802 l 125 804 l 125 956 z "},"Ĵ":{"ha":719,"x_min":27,"x_max":673,"o":"m 419 1202 l 673 979 l 601 907 l 417 1057 l 240 907 l 170 979 l 419 1202 m 281 -5 q 183 11 227 -5 q 111 56 140 28 q 63 122 83 83 q 36 202 44 161 q 27 289 28 243 l 136 288 q 145 215 137 248 q 170 154 154 182 q 214 112 186 127 q 279 96 242 96 q 343 112 317 96 q 387 154 370 127 q 413 227 404 182 q 426 323 422 272 q 429 447 429 374 q 410 776 429 559 q 351 777 393 776 q 298 777 310 777 q 256 775 274 777 q 231 772 237 773 q 214 768 224 771 q 201 765 203 766 l 176 865 q 297 880 233 879 q 470 880 345 880 q 648 880 595 880 l 647 776 q 585 776 631 776 q 522 777 538 777 q 536 435 536 610 q 534 335 536 380 q 525 243 532 290 q 507 161 518 196 q 475 93 495 125 q 429 40 456 60 q 365 7 403 19 q 281 -5 328 -5 z "},"ĵ":{"ha":719,"x_min":62,"x_max":709,"o":"m 455 1019 l 709 796 l 637 724 l 453 873 l 276 724 l 205 796 l 455 1019 m 425 -77 l 425 586 q 414 586 425 586 q 251 566 335 586 l 232 663 q 452 691 355 691 l 531 691 l 531 -80 q 526 -137 531 -111 q 506 -186 520 -163 q 469 -227 492 -210 q 411 -253 447 -243 q 328 -262 375 -262 q 262 -258 292 -262 q 197 -238 233 -253 q 126 -191 161 -223 q 62 -109 92 -158 l 147 -42 q 195 -106 171 -81 q 241 -141 218 -131 q 278 -154 263 -151 q 314 -157 294 -157 l 326 -157 q 373 -148 352 -157 q 404 -125 393 -139 q 419 -100 414 -112 q 425 -77 425 -87 z "},"Ķ":{"ha":719,"x_min":79,"x_max":680,"o":"m 306 -23 l 455 -23 l 455 -169 q 423 -287 455 -243 q 322 -361 391 -331 l 286 -275 q 331 -240 319 -259 q 344 -173 344 -220 l 306 -173 l 306 -23 m 328 492 q 529 261 401 420 q 680 40 656 102 l 589 -12 q 449 191 566 42 q 263 407 332 340 q 186 292 206 340 l 186 -3 l 79 -3 l 79 887 l 186 887 l 186 477 q 355 675 250 566 q 466 783 412 734 q 551 860 519 833 q 585 888 583 886 l 660 817 q 478 655 579 758 q 328 492 378 551 z "},"ķ":{"ha":719,"x_min":77,"x_max":652,"o":"m 314 -20 l 463 -20 l 463 -165 q 431 -283 463 -239 q 330 -357 399 -328 l 294 -271 q 339 -236 327 -256 q 352 -170 352 -217 l 314 -170 l 314 -20 m 397 384 q 475 420 446 384 q 503 505 503 457 q 498 539 503 525 q 474 575 492 559 q 427 591 456 591 q 370 576 400 591 q 199 480 274 531 l 199 419 q 333 393 252 411 q 397 384 374 384 m 199 597 q 311 660 249 631 q 421 689 374 689 q 546 650 492 689 q 606 552 600 612 q 610 496 610 526 q 604 433 610 462 q 571 369 600 409 q 495 308 541 330 q 541 253 524 286 q 570 179 557 220 q 596 117 583 138 q 652 60 614 88 l 595 -13 q 553 15 572 -2 q 523 46 534 33 q 500 84 512 60 q 485 118 488 109 q 473 154 481 127 q 470 161 471 159 q 426 225 458 196 q 353 273 393 255 q 273 303 312 292 q 199 318 234 314 q 198 87 198 189 q 198 39 198 69 q 199 0 199 9 l 92 0 l 92 833 q 77 938 92 888 l 180 968 q 199 877 199 921 l 199 597 z "},"ĸ":{"ha":719,"x_min":79,"x_max":667,"o":"m 378 410 q 415 368 386 402 q 463 313 445 334 q 512 256 481 292 q 564 193 543 220 q 607 135 585 165 q 645 78 630 104 q 667 34 660 53 l 576 -18 q 302 340 542 64 q 184 220 222 271 l 184 0 l 79 0 l 79 692 l 184 692 l 184 373 q 246 430 212 401 q 323 497 279 460 q 391 555 368 534 q 502 644 454 609 q 574 694 549 680 q 600 711 598 709 l 666 624 q 495 509 574 569 q 378 410 416 449 z "},"Ĺ":{"ha":719,"x_min":35,"x_max":668,"o":"m 35 1015 q 194 1101 102 1037 q 352 1227 286 1164 l 435 1128 q 269 1005 380 1072 q 81 914 157 939 l 35 1015 m 96 -2 l 96 880 l 205 880 l 205 102 l 558 102 q 640 117 603 104 l 668 18 q 559 -2 608 -2 l 96 -2 z "},"ĺ":{"ha":719,"x_min":56,"x_max":698,"o":"m 130 1072 q 288 1158 197 1094 q 446 1284 380 1221 l 530 1185 q 363 1062 475 1129 q 176 971 251 996 l 130 1072 m 281 965 l 360 965 q 362 144 360 965 q 385 95 364 105 q 458 85 405 85 q 565 98 511 85 q 652 135 619 111 l 698 58 q 591 6 656 24 q 458 -11 526 -11 q 319 15 367 -11 q 256 141 256 50 l 254 860 q 233 860 250 860 q 204 861 216 861 q 75 849 125 861 l 56 946 q 281 965 138 965 z "},"Ļ":{"ha":719,"x_min":96,"x_max":668,"o":"m 263 -85 l 412 -85 l 412 -231 q 380 -349 412 -304 q 279 -422 348 -393 l 243 -336 q 289 -301 276 -321 q 301 -235 301 -282 l 263 -235 l 263 -85 m 96 -2 l 96 880 l 205 880 l 205 102 l 558 102 q 640 117 603 104 l 668 18 q 559 -2 608 -2 l 96 -2 z "},"ļ":{"ha":719,"x_min":56,"x_max":698,"o":"m 405 -94 l 554 -94 l 554 -239 q 522 -357 554 -313 q 421 -431 490 -401 l 385 -345 q 430 -310 418 -330 q 443 -243 443 -291 l 405 -243 l 405 -94 m 281 965 l 360 965 q 362 144 360 965 q 385 95 364 105 q 458 85 405 85 q 565 98 511 85 q 652 135 619 111 l 698 58 q 591 6 656 24 q 458 -11 526 -11 q 319 15 367 -11 q 256 141 256 50 l 254 860 q 233 860 250 860 q 204 861 216 861 q 75 849 125 861 l 56 946 q 281 965 138 965 z "},"Ľ":{"ha":719,"x_min":96,"x_max":668,"o":"m 606 842 q 567 710 591 798 q 532 589 542 621 l 429 612 q 475 874 442 715 l 606 842 m 96 -2 l 96 880 l 205 880 l 205 102 l 558 102 q 640 117 603 104 l 668 18 q 559 -2 608 -2 l 96 -2 z "},"ľ":{"ha":719,"x_min":56,"x_max":698,"o":"m 696 944 q 674 872 685 911 q 648 781 663 833 q 622 692 633 729 l 519 715 q 565 977 531 809 l 696 944 m 281 965 l 360 965 l 362 144 q 385 95 364 105 q 458 85 405 85 q 565 98 511 85 q 652 135 619 111 l 698 58 q 591 6 656 24 q 458 -11 526 -11 q 319 15 367 -11 q 256 141 256 50 l 254 860 q 233 860 250 860 q 204 861 216 861 q 75 849 125 861 l 56 946 q 281 965 138 965 z "},"Ŀ":{"ha":719,"x_min":96,"x_max":668,"o":"m 357 555 l 504 555 l 504 400 l 357 400 l 357 555 m 96 -2 l 96 880 l 205 880 l 205 102 l 558 102 q 640 117 603 104 l 668 18 q 559 -2 608 -2 l 96 -2 z "},"ŀ":{"ha":719,"x_min":56,"x_max":698,"o":"m 507 555 l 654 555 l 654 400 l 507 400 l 507 555 m 281 965 l 360 965 q 362 144 360 965 q 385 95 364 105 q 458 85 405 85 q 565 98 511 85 q 652 135 619 111 l 698 58 q 591 6 656 24 q 458 -11 526 -11 q 319 15 367 -11 q 256 141 256 50 l 254 860 q 233 860 250 860 q 204 861 216 861 q 75 849 125 861 l 56 946 q 281 965 138 965 z "},"Ł":{"ha":719,"x_min":47,"x_max":668,"o":"m 181 460 l 81 422 l 47 510 l 181 562 l 181 880 l 290 880 l 290 604 l 462 670 l 496 581 l 290 502 l 290 102 l 558 102 q 640 117 603 104 l 668 18 q 559 -2 608 -2 l 181 -2 l 181 460 z "},"ł":{"ha":719,"x_min":48,"x_max":685,"o":"m 269 968 l 350 968 l 351 628 l 524 694 l 557 606 l 351 526 l 352 144 q 373 95 354 105 q 445 85 393 85 q 552 98 498 85 q 639 135 606 111 l 685 58 q 578 6 644 24 q 446 -11 513 -11 q 307 15 354 -11 q 273 42 286 26 q 253 76 259 58 q 245 108 248 94 q 243 141 243 123 l 242 485 l 143 446 l 109 535 l 242 586 l 241 863 q 67 844 152 863 l 48 941 q 269 968 168 968 z "},"Ń":{"ha":719,"x_min":51,"x_max":667,"o":"m 267 1001 q 426 1087 334 1023 q 584 1213 517 1151 l 667 1114 q 500 992 612 1059 q 313 901 389 925 l 267 1001 m 510 -4 q 158 679 357 332 l 158 541 q 158 233 158 429 q 159 -2 159 37 l 51 -2 l 51 880 l 159 878 q 335 581 220 787 q 511 242 449 374 q 509 513 509 374 q 517 880 509 725 l 621 880 q 616 591 616 777 q 617 352 616 515 q 618 110 618 189 q 618 52 618 90 q 618 -3 618 14 l 510 -4 z "},"ń":{"ha":719,"x_min":54,"x_max":680,"o":"m 258 819 q 416 905 325 842 q 574 1031 508 969 l 658 932 q 491 810 603 877 q 304 719 379 743 l 258 819 m 183 629 q 300 678 249 663 q 406 693 351 693 q 472 683 437 693 q 537 654 507 673 q 588 606 568 636 q 608 540 608 576 l 608 143 q 613 117 608 128 q 629 96 617 105 q 647 81 640 86 q 673 67 654 77 q 675 65 675 66 q 677 64 676 65 q 680 63 679 64 l 623 -13 q 578 12 595 1 q 541 40 561 22 q 511 83 521 58 q 501 138 501 107 l 501 519 q 466 572 501 553 q 391 591 430 591 q 313 573 360 591 q 183 515 267 555 l 183 0 l 76 -1 l 76 478 q 74 572 76 537 q 68 624 71 607 q 54 680 64 641 l 163 705 q 183 629 176 674 z "},"Ņ":{"ha":719,"x_min":51,"x_max":621,"o":"m 279 -19 l 429 -19 l 429 -165 q 396 -283 429 -239 q 296 -357 364 -327 l 259 -271 q 305 -236 292 -255 q 317 -169 317 -216 l 279 -169 l 279 -19 m 510 -4 q 158 679 357 332 l 158 541 q 158 233 158 429 q 159 -2 159 37 l 51 -2 l 51 880 l 159 878 q 335 581 220 787 q 511 242 449 374 q 509 513 509 374 q 517 880 509 725 l 621 880 q 616 591 616 777 q 617 352 616 515 q 618 110 618 189 q 618 52 618 90 q 618 -3 618 14 l 510 -4 z "},"ņ":{"ha":719,"x_min":54,"x_max":680,"o":"m 308 -26 l 457 -26 l 457 -172 q 425 -290 457 -246 q 324 -364 393 -334 l 288 -278 q 333 -243 321 -262 q 346 -176 346 -224 l 308 -176 l 308 -26 m 183 629 q 300 678 249 663 q 406 693 351 693 q 472 683 437 693 q 537 654 507 673 q 588 606 568 636 q 608 540 608 576 l 608 143 q 613 117 608 128 q 629 96 617 105 q 647 81 640 86 q 673 67 654 77 q 675 65 675 66 q 677 64 676 65 q 680 63 679 64 l 623 -13 q 578 12 595 1 q 541 40 561 22 q 511 83 521 58 q 501 138 501 107 l 501 519 q 466 572 501 553 q 391 591 430 591 q 313 573 360 591 q 183 515 267 555 l 183 0 l 76 -1 l 76 478 q 74 572 76 537 q 68 624 71 607 q 54 680 64 641 l 163 705 q 183 629 176 674 z "},"Ň":{"ha":719,"x_min":51,"x_max":621,"o":"m 333 897 l 82 1112 l 153 1185 l 334 1037 l 513 1185 l 585 1112 l 333 897 m 510 -4 q 158 679 357 332 l 158 541 q 158 233 158 429 q 159 -2 159 37 l 51 -2 l 51 880 l 159 878 q 335 581 220 787 q 511 242 449 374 q 509 513 509 374 q 517 880 509 725 l 621 880 q 616 591 616 777 q 617 352 616 515 q 618 110 618 189 q 618 52 618 90 q 618 -3 618 14 l 510 -4 z "},"ň":{"ha":719,"x_min":54,"x_max":680,"o":"m 394 719 l 143 935 l 214 1007 l 395 859 l 574 1007 l 646 935 l 394 719 m 183 629 q 300 678 249 663 q 406 693 351 693 q 472 683 437 693 q 537 654 507 673 q 588 606 568 636 q 608 540 608 576 l 608 143 q 613 117 608 128 q 629 96 617 105 q 647 81 640 86 q 673 67 654 77 q 675 65 675 66 q 677 64 676 65 q 680 63 679 64 l 623 -13 q 578 12 595 1 q 541 40 561 22 q 511 83 521 58 q 501 138 501 107 l 501 519 q 466 572 501 553 q 391 591 430 591 q 313 573 360 591 q 183 515 267 555 l 183 0 l 76 -1 l 76 478 q 74 572 76 537 q 68 624 71 607 q 54 680 64 641 l 163 705 q 183 629 176 674 z "},"Ŋ":{"ha":719,"x_min":24,"x_max":618,"o":"m 366 879 q 468 864 424 879 q 539 822 511 848 q 585 758 567 796 q 609 677 602 719 q 616 583 616 635 q 617 349 616 505 q 618 112 618 192 l 618 89 q 616 15 618 47 q 605 -53 613 -17 q 582 -115 596 -89 q 543 -167 568 -142 q 484 -209 517 -193 q 400 -234 450 -224 q 289 -243 351 -243 l 266 -243 l 266 -138 q 353 -131 315 -138 q 417 -115 391 -124 q 461 -89 444 -105 q 489 -57 479 -72 q 505 -18 499 -41 q 511 25 510 6 q 513 72 513 44 l 513 578 q 471 722 513 669 q 368 775 430 775 q 316 768 340 775 q 273 753 291 762 q 238 728 256 745 q 210 702 220 712 q 187 671 200 692 q 171 645 174 651 q 159 621 168 639 l 159 -2 l 51 -2 l 51 718 q 44 787 51 753 q 31 837 38 821 l 24 854 l 130 892 q 157 792 153 845 q 238 860 186 841 q 366 879 290 879 z "},"ŋ":{"ha":719,"x_min":55,"x_max":581,"o":"m 184 629 q 294 680 256 667 q 385 693 332 693 q 472 676 428 693 q 548 624 515 660 q 581 540 581 587 l 581 143 q 580 56 581 86 q 574 -22 579 26 q 558 -98 568 -71 q 527 -158 547 -124 q 476 -208 506 -191 q 400 -237 446 -225 q 296 -250 355 -250 l 293 -250 l 291 -144 l 293 -144 q 372 -135 340 -144 q 424 -110 404 -126 q 455 -62 444 -93 q 469 6 465 -31 q 473 101 473 43 l 473 519 q 441 572 473 553 q 370 591 409 591 q 345 589 357 591 q 313 578 332 586 q 281 563 295 570 q 236 541 267 556 q 184 515 206 526 l 184 0 l 77 -1 l 77 478 q 74 572 77 537 q 68 624 72 607 q 55 680 65 641 l 163 705 q 184 629 178 671 z "},"Ō":{"ha":719,"x_min":16,"x_max":647,"o":"m 514 1074 l 514 971 l 503 971 q 366 970 463 970 q 218 971 264 970 l 206 972 l 206 1077 l 219 1076 q 391 1074 263 1074 q 503 1074 391 1074 l 514 1074 m 342 899 q 385 896 363 899 q 438 879 408 892 q 496 847 469 867 q 552 790 524 827 q 600 707 580 754 q 633 588 620 659 q 647 431 646 517 l 647 423 q 629 271 647 345 q 585 145 611 197 q 481 31 546 71 q 334 -9 417 -9 q 209 15 268 -9 q 110 88 149 39 q 16 388 16 203 q 43 636 16 546 q 115 787 71 727 q 209 867 151 837 q 342 899 267 898 m 180 166 q 334 95 234 95 q 492 197 437 95 q 526 298 512 228 q 540 425 539 368 l 540 438 q 492 690 540 597 q 346 795 439 795 q 265 780 298 795 q 203 725 233 764 q 123 391 123 622 q 139 267 123 332 q 180 166 154 201 z "},"ō":{"ha":719,"x_min":49,"x_max":612,"o":"m 480 907 l 480 804 l 469 804 q 332 803 429 803 q 184 804 231 803 l 172 805 l 172 910 l 185 909 q 357 907 229 907 q 469 907 357 907 l 480 907 m 444 146 q 504 359 504 203 q 504 372 504 359 q 463 534 503 473 q 339 595 424 595 q 251 576 288 595 q 195 518 215 556 q 165 432 174 480 q 156 318 156 383 q 200 162 156 218 q 328 106 244 106 q 392 115 367 106 q 444 146 418 124 m 327 1 q 120 85 191 1 q 49 315 49 169 q 57 431 49 376 q 86 535 66 486 q 136 621 106 585 q 212 679 166 657 q 316 700 258 700 q 474 666 414 700 q 572 564 535 633 q 612 368 612 486 q 603 255 612 307 q 574 156 595 203 q 523 74 554 108 q 441 21 491 41 q 328 1 392 1 l 327 1 z "},"Ŏ":{"ha":719,"x_min":16,"x_max":647,"o":"m 348 1043 q 440 1071 402 1043 q 481 1139 477 1099 l 593 1118 q 510 986 582 1034 q 348 939 439 939 q 293 944 319 939 q 235 961 266 948 q 181 993 205 973 q 136 1047 157 1013 q 106 1124 116 1080 l 212 1145 q 348 1043 236 1043 m 342 899 q 385 896 363 899 q 438 879 408 892 q 496 847 469 867 q 552 790 524 827 q 600 707 580 754 q 633 588 620 659 q 647 431 646 517 l 647 423 q 629 271 647 345 q 585 145 611 197 q 481 31 546 71 q 334 -9 417 -9 q 209 15 268 -9 q 110 88 149 39 q 16 388 16 203 q 43 636 16 546 q 115 787 71 727 q 209 867 151 837 q 342 899 267 898 m 180 166 q 334 95 234 95 q 492 197 437 95 q 526 298 512 228 q 540 425 539 368 l 540 438 q 492 690 540 597 q 346 795 439 795 q 265 780 298 795 q 203 725 233 764 q 123 391 123 622 q 139 267 123 332 q 180 166 154 201 z "},"ŏ":{"ha":719,"x_min":49,"x_max":612,"o":"m 316 829 q 408 857 370 829 q 449 925 446 885 l 562 905 q 478 773 550 820 q 316 726 407 726 q 261 730 288 726 q 203 747 234 734 q 149 780 173 760 q 104 833 125 800 q 75 911 84 867 l 180 931 q 316 829 204 829 m 444 146 q 504 359 504 203 q 504 372 504 359 q 463 534 503 473 q 339 595 424 595 q 251 576 288 595 q 195 518 215 556 q 165 432 174 480 q 156 318 156 383 q 200 162 156 218 q 328 106 244 106 q 392 115 367 106 q 444 146 418 124 m 327 1 q 120 85 191 1 q 49 315 49 169 q 57 431 49 376 q 86 535 66 486 q 136 621 106 585 q 212 679 166 657 q 316 700 258 700 q 474 666 414 700 q 572 564 535 633 q 612 368 612 486 q 603 255 612 307 q 574 156 595 203 q 523 74 554 108 q 441 21 491 41 q 328 1 392 1 l 327 1 z "},"Ő":{"ha":719,"x_min":16,"x_max":685,"o":"m 368 1001 q 485 1124 427 1048 q 581 1274 544 1200 l 685 1206 q 584 1057 654 1137 q 446 923 513 977 l 368 1001 m 140 1006 q 257 1129 199 1053 q 353 1278 316 1205 l 457 1211 q 356 1062 427 1143 q 218 928 285 981 l 140 1006 m 342 899 q 385 896 363 899 q 438 879 408 892 q 496 847 469 867 q 552 790 524 827 q 600 707 580 754 q 633 588 620 659 q 647 431 646 517 l 647 423 q 629 271 647 345 q 585 145 611 197 q 481 31 546 71 q 334 -9 417 -9 q 209 15 268 -9 q 110 88 149 39 q 16 388 16 203 q 43 636 16 546 q 115 787 71 727 q 209 867 151 837 q 342 899 267 898 m 180 166 q 334 95 234 95 q 492 197 437 95 q 526 298 512 228 q 540 425 539 368 l 540 438 q 492 690 540 597 q 346 795 439 795 q 265 780 298 795 q 203 725 233 764 q 123 391 123 622 q 139 267 123 332 q 180 166 154 201 z "},"ő":{"ha":719,"x_min":49,"x_max":690,"o":"m 374 789 q 491 913 432 837 q 586 1062 549 989 l 690 994 q 589 845 660 926 q 452 711 519 765 l 374 789 m 146 794 q 263 918 204 842 q 358 1067 321 994 l 463 1000 q 361 850 432 931 q 223 716 290 770 l 146 794 m 444 146 q 504 359 504 203 q 504 372 504 359 q 463 534 503 473 q 339 595 424 595 q 251 576 288 595 q 195 518 215 556 q 165 432 174 480 q 156 318 156 383 q 200 162 156 218 q 328 106 244 106 q 392 115 367 106 q 444 146 418 124 m 327 1 q 120 85 191 1 q 49 315 49 169 q 57 431 49 376 q 86 535 66 486 q 136 621 106 585 q 212 679 166 657 q 316 700 258 700 q 474 666 414 700 q 572 564 535 633 q 612 368 612 486 q 603 255 612 307 q 574 156 595 203 q 523 74 554 108 q 441 21 491 41 q 328 1 392 1 l 327 1 z "},"Œ":{"ha":719,"x_min":7,"x_max":665,"o":"m 314 99 l 315 793 q 238 782 271 793 q 183 745 205 770 q 146 688 161 720 q 124 608 132 656 q 114 510 117 559 q 111 392 111 460 q 112 346 111 363 q 113 303 112 329 q 116 261 114 277 q 123 223 119 245 q 134 188 127 201 q 150 159 140 175 q 172 134 159 143 q 200 115 184 124 q 237 102 216 106 q 283 98 258 98 q 314 99 296 98 m 550 104 q 640 121 594 105 l 665 22 q 452 -1 581 -1 q 403 0 437 -1 q 349 0 369 0 q 263 -5 336 -5 q 157 21 203 -3 q 83 82 111 45 q 38 174 56 120 q 14 283 20 227 q 7 405 7 338 q 16 570 7 497 q 45 707 24 644 q 100 812 66 770 q 183 878 133 854 q 301 902 234 902 q 355 897 331 902 q 481 899 395 899 q 567 899 510 899 q 652 899 625 899 l 652 793 q 572 794 619 793 q 503 794 525 794 q 420 793 452 794 l 420 566 l 607 566 l 607 463 l 420 463 q 419 252 420 384 q 418 104 418 120 l 550 104 z "},"œ":{"ha":719,"x_min":16,"x_max":661,"o":"m 658 127 q 653 113 656 121 q 635 83 649 104 q 602 44 621 61 q 551 14 584 27 q 480 0 519 0 q 330 64 393 0 q 228 0 282 0 q 186 3 203 0 q 141 20 169 5 q 89 62 114 35 q 16 311 16 140 q 24 431 16 393 q 34 479 28 456 q 50 534 39 503 q 75 592 60 566 q 110 641 90 617 q 159 677 130 664 q 222 690 188 690 q 282 679 258 690 q 330 647 305 669 q 345 631 338 640 q 469 690 382 690 q 555 665 517 690 q 614 595 593 640 q 648 499 636 551 q 661 387 659 447 l 661 330 l 615 330 q 399 321 486 326 l 397 146 q 483 104 439 104 q 515 111 500 104 q 539 131 529 117 q 553 152 549 144 q 564 174 557 159 l 658 127 m 399 442 l 399 428 q 471 431 419 429 q 553 435 524 433 q 527 540 549 495 q 469 585 505 585 q 406 546 417 585 q 399 442 399 522 m 224 104 q 272 134 250 104 q 294 194 294 163 l 295 511 q 292 530 295 519 q 283 553 290 540 q 260 576 276 567 q 222 585 244 585 q 149 510 176 585 q 119 321 121 434 l 119 309 q 163 130 119 195 q 224 104 180 104 z "},"Ŕ":{"ha":719,"x_min":58,"x_max":671,"o":"m 209 1019 q 368 1105 276 1041 q 526 1231 459 1168 l 609 1132 q 442 1009 554 1076 q 255 918 330 943 l 209 1019 m 442 366 q 475 315 446 360 q 514 253 503 271 q 547 202 526 235 q 584 150 569 170 q 609 117 598 130 q 617 110 610 116 q 628 100 624 104 q 640 91 633 96 q 655 82 647 85 q 671 76 663 78 l 631 -15 q 576 6 602 -11 q 532 45 550 23 q 321 362 467 117 q 168 385 269 368 l 168 0 l 61 0 l 61 755 q 58 873 61 822 q 205 884 164 884 q 301 882 263 884 q 383 874 340 880 q 457 856 427 867 q 518 823 488 844 q 572 772 548 802 q 613 700 597 741 q 629 616 629 658 q 442 366 629 397 m 524 607 q 485 711 524 667 q 389 765 452 749 q 209 780 326 780 q 166 779 186 780 l 168 488 q 226 476 184 484 q 293 464 267 467 q 344 460 319 460 q 377 462 361 460 q 441 474 416 467 q 486 498 465 482 q 515 540 506 513 q 524 607 524 566 z "},"ŕ":{"ha":719,"x_min":73,"x_max":635,"o":"m 235 821 q 393 907 302 843 q 551 1033 485 970 l 635 934 q 468 811 580 878 q 281 720 356 745 l 235 821 m 251 593 q 353 672 297 650 q 490 695 408 695 q 602 645 570 695 q 633 494 633 594 l 633 490 l 528 490 q 527 512 528 497 q 526 534 526 528 q 524 551 526 540 q 518 567 522 562 q 509 577 515 571 q 493 585 503 583 q 471 587 484 587 q 416 580 441 587 q 360 556 390 573 q 301 502 330 538 q 248 411 273 465 l 248 0 l 142 1 l 142 518 q 142 530 142 524 q 138 542 141 536 q 134 552 136 547 q 127 562 132 556 q 120 571 122 568 q 110 581 117 574 q 99 591 102 588 q 86 602 96 594 q 73 614 77 610 l 144 709 q 164 693 149 705 q 185 677 179 682 q 203 661 191 672 q 222 641 215 650 q 237 620 229 633 q 251 593 245 607 z "},"Ŗ":{"ha":719,"x_min":58,"x_max":671,"o":"m 263 -41 l 412 -41 l 412 -186 q 380 -304 412 -260 q 279 -378 348 -349 l 243 -292 q 289 -257 276 -277 q 301 -191 301 -238 l 263 -191 l 263 -41 m 442 366 q 475 315 446 360 q 514 253 503 271 q 547 202 526 235 q 584 150 569 170 q 609 117 598 130 q 617 110 610 116 q 628 100 624 104 q 640 91 633 96 q 655 82 647 85 q 671 76 663 78 l 631 -15 q 576 6 602 -11 q 532 45 550 23 q 321 362 467 117 q 168 385 269 368 l 168 0 l 61 0 l 61 755 q 58 873 61 822 q 205 884 164 884 q 301 882 263 884 q 383 874 340 880 q 457 856 427 867 q 518 823 488 844 q 572 772 548 802 q 613 700 597 741 q 629 616 629 658 q 442 366 629 397 m 524 607 q 485 711 524 667 q 389 765 452 749 q 209 780 326 780 q 166 779 186 780 l 168 488 q 226 476 184 484 q 293 464 267 467 q 344 460 319 460 q 377 462 361 460 q 441 474 416 467 q 486 498 465 482 q 515 540 506 513 q 524 607 524 566 z "},"ŗ":{"ha":719,"x_min":73,"x_max":633,"o":"m 127 -56 l 276 -56 l 276 -202 q 244 -320 276 -276 q 143 -394 212 -364 l 106 -308 q 152 -273 140 -292 q 165 -206 165 -254 l 127 -206 l 127 -56 m 251 593 q 353 672 297 650 q 490 695 408 695 q 602 645 570 695 q 633 494 633 594 l 633 490 l 528 490 q 527 512 528 497 q 526 534 526 528 q 524 551 526 540 q 518 567 522 562 q 509 577 515 571 q 493 585 503 583 q 471 587 484 587 q 416 580 441 587 q 360 556 390 573 q 301 502 330 538 q 248 411 273 465 l 248 0 l 142 1 l 142 518 q 142 530 142 524 q 138 542 141 536 q 134 552 136 547 q 127 562 132 556 q 120 571 122 568 q 110 581 117 574 q 99 591 102 588 q 86 602 96 594 q 73 614 77 610 l 144 709 q 164 693 149 705 q 185 677 179 682 q 203 661 191 672 q 222 641 215 650 q 237 620 229 633 q 251 593 245 607 z "},"Ř":{"ha":719,"x_min":56,"x_max":671,"o":"m 307 911 l 56 1126 l 126 1199 l 307 1051 l 487 1199 l 559 1126 l 307 911 m 442 366 q 475 315 446 360 q 514 253 503 271 q 547 202 526 235 q 584 150 569 170 q 609 117 598 130 q 617 110 610 116 q 628 100 624 104 q 640 91 633 96 q 655 82 647 85 q 671 76 663 78 l 631 -15 q 576 6 602 -11 q 532 45 550 23 q 321 362 467 117 q 168 385 269 368 l 168 0 l 61 0 l 61 755 q 58 873 61 822 q 205 884 164 884 q 301 882 263 884 q 383 874 340 880 q 457 856 427 867 q 518 823 488 844 q 572 772 548 802 q 613 700 597 741 q 629 616 629 658 q 442 366 629 397 m 524 607 q 485 711 524 667 q 389 765 452 749 q 209 780 326 780 q 166 779 186 780 l 168 488 q 226 476 184 484 q 293 464 267 467 q 344 460 319 460 q 377 462 361 460 q 441 474 416 467 q 486 498 465 482 q 515 540 506 513 q 524 607 524 566 z "},"ř":{"ha":719,"x_min":73,"x_max":633,"o":"m 380 718 l 129 934 l 199 1006 l 380 859 l 560 1006 l 632 934 l 380 718 m 251 593 q 353 672 297 650 q 490 695 408 695 q 602 645 570 695 q 633 494 633 594 l 633 490 l 528 490 q 527 512 528 497 q 526 534 526 528 q 524 551 526 540 q 518 567 522 562 q 509 577 515 571 q 493 585 503 583 q 471 587 484 587 q 416 580 441 587 q 360 556 390 573 q 301 502 330 538 q 248 411 273 465 l 248 0 l 142 1 l 142 518 q 142 530 142 524 q 138 542 141 536 q 134 552 136 547 q 127 562 132 556 q 120 571 122 568 q 110 581 117 574 q 99 591 102 588 q 86 602 96 594 q 73 614 77 610 l 144 709 q 164 693 149 705 q 185 677 179 682 q 203 661 191 672 q 222 641 215 650 q 237 620 229 633 q 251 593 245 607 z "},"Ś":{"ha":719,"x_min":29,"x_max":644,"o":"m 174 1013 q 333 1099 241 1036 q 491 1225 425 1163 l 574 1126 q 408 1004 519 1071 q 220 913 296 937 l 174 1013 m 168 481 q 82 553 116 505 q 49 671 49 602 q 126 829 49 774 q 319 883 203 883 l 325 883 q 617 689 582 880 l 509 669 q 448 755 491 732 q 322 779 404 779 q 180 734 226 779 q 157 674 157 709 q 175 613 157 635 q 226 574 193 590 q 353 540 253 562 q 501 496 454 518 q 603 407 562 467 q 644 263 644 346 q 621 144 644 197 q 559 60 599 92 q 467 11 519 27 q 353 -6 415 -6 l 340 -6 q 191 19 254 -4 q 95 83 129 43 q 45 172 60 123 q 29 280 29 220 l 136 280 q 186 145 136 194 q 345 96 236 96 q 535 258 535 96 q 510 346 535 310 q 441 399 484 381 q 310 437 405 415 q 168 481 215 459 z "},"ś":{"ha":719,"x_min":80,"x_max":608,"o":"m 178 803 q 336 889 245 825 q 494 1015 428 953 l 578 916 q 411 794 523 861 q 224 703 299 727 l 178 803 m 182 386 q 103 531 103 428 q 170 656 104 614 q 332 698 235 698 q 477 674 404 698 q 590 602 551 650 l 513 527 q 437 577 487 557 q 342 597 387 597 q 247 581 284 597 q 210 534 210 565 q 219 496 210 510 q 250 473 229 483 q 318 447 279 461 q 384 424 357 433 q 444 401 412 414 q 498 375 476 388 q 543 345 520 363 q 578 305 565 326 q 600 255 591 284 q 608 191 608 226 q 564 65 608 114 q 458 0 519 16 q 340 -14 399 -14 q 146 49 213 -14 q 80 224 80 112 l 186 223 q 338 83 186 83 q 454 112 406 83 q 503 194 503 141 q 489 242 503 224 q 444 285 475 261 q 315 337 416 305 q 182 386 214 369 z "},"Ŝ":{"ha":719,"x_min":29,"x_max":644,"o":"m 326 1198 l 581 975 l 508 903 l 324 1053 l 147 903 l 77 975 l 326 1198 m 168 481 q 82 553 116 505 q 49 671 49 602 q 126 829 49 774 q 319 883 203 883 l 325 883 q 617 689 582 880 l 509 669 q 448 755 491 732 q 322 779 404 779 q 180 734 226 779 q 157 674 157 709 q 175 613 157 635 q 226 574 193 590 q 353 540 253 562 q 501 496 454 518 q 603 407 562 467 q 644 263 644 346 q 621 144 644 197 q 559 60 599 92 q 467 11 519 27 q 353 -6 415 -6 l 340 -6 q 191 19 254 -4 q 95 83 129 43 q 45 172 60 123 q 29 280 29 220 l 136 280 q 186 145 136 194 q 345 96 236 96 q 535 258 535 96 q 510 346 535 310 q 441 399 484 381 q 310 437 405 415 q 168 481 215 459 z "},"ŝ":{"ha":719,"x_min":80,"x_max":608,"o":"m 339 1012 l 593 789 l 521 717 l 337 867 l 160 717 l 90 789 l 339 1012 m 182 386 q 103 531 103 428 q 170 656 104 614 q 332 698 235 698 q 477 674 404 698 q 590 602 551 650 l 513 527 q 437 577 487 557 q 342 597 387 597 q 247 581 284 597 q 210 534 210 565 q 219 496 210 510 q 250 473 229 483 q 318 447 279 461 q 384 424 357 433 q 444 401 412 414 q 498 375 476 388 q 543 345 520 363 q 578 305 565 326 q 600 255 591 284 q 608 191 608 226 q 564 65 608 114 q 458 0 519 16 q 340 -14 399 -14 q 146 49 213 -14 q 80 224 80 112 l 186 223 q 338 83 186 83 q 454 112 406 83 q 503 194 503 141 q 489 242 503 224 q 444 285 475 261 q 315 337 416 305 q 182 386 214 369 z "},"Ş":{"ha":719,"x_min":29,"x_max":644,"o":"m 168 490 q 82 565 116 515 q 49 684 49 614 q 87 806 49 756 q 185 878 125 856 q 319 901 244 901 l 325 901 q 617 703 583 897 l 509 683 q 448 770 491 747 q 322 794 404 794 q 180 749 226 794 q 157 688 157 723 q 175 625 157 648 q 226 586 193 602 q 361 547 265 567 q 501 507 456 528 q 603 415 562 477 q 644 269 644 353 q 575 77 644 146 q 396 -4 507 7 q 395 -47 395 -18 q 473 -80 445 -50 q 500 -163 500 -111 q 461 -245 500 -212 q 376 -277 422 -277 q 244 -236 309 -277 l 270 -164 q 338 -191 314 -188 q 354 -193 347 -193 q 390 -182 374 -193 q 408 -153 407 -172 l 408 -152 q 391 -126 408 -137 q 350 -115 374 -115 q 330 -116 338 -115 q 319 -118 322 -117 q 308 -122 315 -119 q 297 -127 301 -125 l 297 -3 q 29 286 29 23 l 136 286 q 186 148 136 198 q 345 98 236 98 q 535 263 535 98 q 510 352 535 316 q 441 408 484 389 q 310 446 405 424 q 168 490 215 469 z "},"ş":{"ha":719,"x_min":62,"x_max":590,"o":"m 165 387 q 85 531 85 430 q 152 656 86 614 q 315 698 218 698 q 460 674 386 698 q 572 602 534 650 l 496 527 q 419 577 469 557 q 324 597 370 597 q 231 581 268 597 q 194 534 194 564 q 203 496 194 510 q 233 473 212 483 q 299 447 260 462 q 365 421 338 431 q 424 397 391 412 q 479 369 457 382 q 524 337 501 356 q 560 298 547 319 q 582 250 573 277 q 590 191 590 222 q 546 65 590 114 q 440 0 502 16 q 372 -11 409 -7 q 372 -55 372 -25 q 449 -88 421 -58 q 477 -171 477 -118 q 437 -252 477 -220 q 352 -285 398 -285 q 220 -243 285 -285 l 246 -172 q 251 -174 248 -172 q 330 -200 298 -200 q 367 -190 350 -200 q 385 -161 383 -179 l 385 -159 q 368 -134 385 -144 q 326 -123 351 -123 q 307 -124 315 -123 q 295 -126 298 -125 q 284 -130 292 -127 q 273 -134 277 -133 l 273 -11 q 116 63 170 1 q 62 224 62 124 l 169 223 q 321 83 169 83 q 437 112 389 83 q 485 194 485 141 q 472 246 485 228 q 427 289 459 264 q 294 342 398 309 q 165 387 191 374 z "},"Š":{"ha":719,"x_min":29,"x_max":644,"o":"m 332 911 l 81 1126 l 151 1199 l 332 1051 l 512 1199 l 584 1126 l 332 911 m 168 481 q 82 553 116 505 q 49 671 49 602 q 126 829 49 774 q 319 883 203 883 l 325 883 q 617 689 582 880 l 509 669 q 448 755 491 732 q 322 779 404 779 q 180 734 226 779 q 157 674 157 709 q 175 613 157 635 q 226 574 193 590 q 353 540 253 562 q 501 496 454 518 q 603 407 562 467 q 644 263 644 346 q 621 144 644 197 q 559 60 599 92 q 467 11 519 27 q 353 -6 415 -6 l 340 -6 q 191 19 254 -4 q 95 83 129 43 q 45 172 60 123 q 29 280 29 220 l 136 280 q 186 145 136 194 q 345 96 236 96 q 535 258 535 96 q 510 346 535 310 q 441 399 484 381 q 310 437 405 415 q 168 481 215 459 z "},"š":{"ha":719,"x_min":80,"x_max":608,"o":"m 355 718 l 104 933 l 174 1006 l 355 858 l 535 1006 l 607 933 l 355 718 m 182 386 q 103 531 103 428 q 170 656 104 614 q 332 698 235 698 q 477 674 404 698 q 590 602 551 650 l 513 527 q 437 577 487 557 q 342 597 387 597 q 247 581 284 597 q 210 534 210 565 q 219 496 210 510 q 250 473 229 483 q 318 447 279 461 q 384 424 357 433 q 444 401 412 414 q 498 375 476 388 q 543 345 520 363 q 578 305 565 326 q 600 255 591 284 q 608 191 608 226 q 564 65 608 114 q 458 0 519 16 q 340 -14 399 -14 q 146 49 213 -14 q 80 224 80 112 l 186 223 q 338 83 186 83 q 454 112 406 83 q 503 194 503 141 q 489 242 503 224 q 444 285 475 261 q 315 337 416 305 q 182 386 214 369 z "},"Ţ":{"ha":719,"x_min":26,"x_max":640,"o":"m 273 -6 l 273 791 q 119 791 196 791 q 26 791 42 791 l 26 898 q 269 898 62 898 q 545 899 475 899 q 640 888 578 899 l 617 783 q 541 791 575 791 l 382 791 l 382 -19 q 455 -52 431 -22 q 480 -135 480 -81 q 441 -216 480 -184 q 355 -249 401 -249 q 224 -208 288 -249 l 250 -136 q 254 -138 251 -136 q 334 -164 302 -164 q 370 -154 353 -164 q 388 -125 387 -143 l 388 -123 q 371 -98 388 -109 q 330 -87 354 -87 q 310 -88 318 -87 q 298 -90 302 -89 q 288 -94 295 -91 q 277 -98 281 -97 l 277 -77 q 273 -6 275 -58 z "},"ţ":{"ha":719,"x_min":39,"x_max":636,"o":"m 218 296 l 218 269 q 317 103 218 113 q 391 101 336 101 q 495 117 466 101 q 551 188 532 137 l 636 150 q 634 142 636 149 q 630 131 631 135 q 625 119 628 127 q 617 104 621 111 q 608 89 614 98 q 595 73 602 80 q 580 57 589 65 q 561 40 572 48 q 538 25 550 32 q 425 -3 497 1 l 425 -26 q 503 -59 475 -28 q 530 -142 530 -89 q 491 -223 530 -191 q 406 -256 452 -256 q 274 -214 338 -256 l 300 -142 q 368 -170 344 -166 q 384 -171 376 -171 q 420 -160 404 -171 q 438 -132 437 -150 l 438 -130 q 421 -104 438 -115 q 380 -94 404 -94 q 360 -95 368 -94 q 349 -97 352 -96 q 338 -101 345 -98 q 327 -105 331 -104 l 327 -2 q 210 26 255 2 q 136 109 164 51 q 110 267 110 163 l 110 296 q 114 429 111 333 q 118 587 116 524 l 109 587 q 53 579 81 587 l 39 678 q 109 686 61 686 l 119 686 q 119 766 119 710 q 119 845 119 821 l 227 844 q 225 690 227 782 l 308 690 l 511 691 l 523 691 l 523 591 l 308 591 q 268 590 292 591 q 227 589 243 589 q 221 413 224 509 q 218 296 218 316 z "},"Ť":{"ha":719,"x_min":26,"x_max":640,"o":"m 328 915 l 77 1131 l 148 1203 l 329 1055 l 509 1203 l 581 1131 l 328 915 m 273 -6 l 273 776 q 119 775 196 776 q 26 775 42 775 l 26 880 q 269 881 62 880 q 545 881 475 881 q 640 871 578 881 l 617 768 q 541 776 575 776 l 382 776 l 382 -6 l 273 -6 z "},"ť":{"ha":719,"x_min":65,"x_max":662,"o":"m 585 996 q 546 864 570 953 q 511 744 521 776 l 408 767 q 454 1029 421 870 l 585 996 m 243 296 l 243 269 q 343 103 243 113 q 416 101 361 101 q 521 117 492 101 q 576 188 557 137 l 662 150 q 660 142 662 149 q 655 131 657 135 q 650 119 654 127 q 643 104 647 111 q 634 89 640 98 q 621 73 628 80 q 606 57 614 65 q 587 40 597 48 q 564 25 576 32 q 418 -4 514 -4 q 348 -2 376 -4 q 288 7 319 0 q 236 26 258 14 q 196 59 215 38 q 162 109 176 79 q 136 267 136 163 l 136 296 q 139 429 137 333 q 144 587 142 524 l 134 587 q 79 579 106 587 l 65 678 q 134 686 87 686 l 144 686 q 145 766 144 710 q 145 845 145 821 l 252 844 q 251 690 252 782 l 334 690 l 536 691 l 549 691 l 549 591 l 334 591 q 293 590 318 591 q 253 589 269 589 q 247 413 250 509 q 243 296 244 316 z "},"Ŧ":{"ha":719,"x_min":26,"x_max":640,"o":"m 273 391 l 109 391 l 109 498 l 273 498 l 273 776 q 119 775 196 776 q 26 775 42 775 l 26 880 q 269 881 62 880 q 545 881 475 881 q 640 871 578 881 l 617 768 q 541 776 575 776 l 382 776 l 382 498 l 553 498 l 553 391 l 382 391 l 382 -6 l 273 -6 l 273 391 z "},"ŧ":{"ha":719,"x_min":19,"x_max":665,"o":"m 246 296 l 246 269 q 346 103 246 113 q 419 101 364 101 q 524 117 494 101 q 579 188 560 137 l 665 150 q 662 142 665 149 q 658 131 660 135 q 653 119 656 127 q 646 104 650 111 q 636 89 642 98 q 624 73 631 80 q 609 57 617 65 q 589 40 600 48 q 566 25 578 32 q 420 -4 517 -4 q 350 -2 379 -4 q 291 7 321 0 q 239 26 260 14 q 198 59 218 38 q 165 109 179 79 q 138 267 138 163 l 138 296 q 139 319 139 304 q 140 342 140 334 l 19 342 l 19 449 l 142 449 q 144 518 143 471 q 146 587 146 565 l 137 587 q 81 579 109 587 l 68 678 q 137 686 90 686 l 147 686 q 148 766 147 710 q 148 845 148 821 l 255 844 q 254 690 255 782 l 336 690 l 539 691 l 551 691 l 551 591 l 336 591 q 296 590 321 591 q 256 589 271 589 q 250 449 254 549 l 433 449 l 433 342 l 248 342 q 247 319 248 334 q 246 296 247 304 z "},"Ũ":{"ha":719,"x_min":41,"x_max":646,"o":"m 245 1135 q 311 1122 279 1135 q 361 1094 342 1109 q 403 1065 380 1078 q 446 1053 427 1053 q 511 1075 482 1053 q 546 1139 539 1097 l 646 1103 q 575 995 629 1040 q 456 949 521 949 q 394 962 424 949 q 345 990 364 975 q 301 1018 326 1005 q 254 1031 276 1031 q 191 1016 216 1031 q 149 953 166 1002 l 55 1003 q 95 1070 73 1043 q 142 1111 117 1097 q 191 1129 167 1124 q 245 1135 215 1135 m 527 890 l 633 882 q 627 775 627 841 q 628 636 627 723 q 629 515 629 550 l 629 476 q 627 357 629 402 q 618 255 625 313 q 594 155 611 197 q 550 81 577 112 q 458 16 511 35 q 334 -7 405 -4 q 202 13 256 -7 q 116 75 149 33 q 67 171 83 116 q 46 303 51 226 q 41 528 41 374 q 47 883 41 722 l 155 883 q 149 494 149 659 q 154 298 149 355 q 205 144 163 192 q 325 96 247 96 q 409 111 378 98 q 469 153 441 123 q 522 476 522 211 q 520 613 522 514 q 518 774 518 712 q 527 890 518 836 z "},"ũ":{"ha":719,"x_min":44,"x_max":670,"o":"m 235 935 q 300 922 269 935 q 350 894 331 909 q 392 866 369 879 q 435 853 416 853 q 500 875 471 853 q 535 939 528 897 l 635 904 q 564 795 618 841 q 445 749 510 749 q 383 762 413 749 q 334 790 353 775 q 290 819 315 806 q 243 831 265 831 q 180 817 205 831 q 138 753 155 802 l 44 804 q 84 871 62 844 q 131 911 106 898 q 180 930 156 925 q 235 935 204 935 m 614 -7 q 576 23 590 11 q 547 57 562 35 q 524 107 531 80 q 423 30 476 58 q 300 1 370 3 l 294 1 q 153 30 195 1 q 77 145 77 82 q 77 262 77 186 q 76 395 77 339 q 75 514 76 452 q 70 617 73 576 q 62 674 67 658 l 170 692 q 177 641 174 675 q 181 550 180 608 q 182 446 182 492 q 183 310 182 401 q 183 170 183 220 q 217 118 189 139 q 289 106 234 106 q 397 134 355 109 q 413 144 399 136 q 433 155 427 152 q 451 168 438 159 q 470 185 463 178 q 486 206 477 193 q 501 233 495 219 l 501 692 l 608 692 l 608 162 q 670 73 610 121 l 614 -7 z "},"Ū":{"ha":719,"x_min":41,"x_max":633,"o":"m 486 1078 l 486 975 l 474 975 q 337 974 435 974 q 190 975 236 974 l 178 976 l 178 1081 l 191 1080 q 363 1078 235 1078 q 474 1078 363 1078 l 486 1078 m 527 890 l 633 882 q 627 775 627 841 q 628 636 627 723 q 629 515 629 550 l 629 476 q 627 357 629 402 q 618 255 625 313 q 594 155 611 197 q 550 81 577 112 q 458 16 511 35 q 334 -7 405 -4 q 202 13 256 -7 q 116 75 149 33 q 67 171 83 116 q 46 303 51 226 q 41 528 41 374 q 47 883 41 722 l 155 883 q 149 494 149 659 q 154 298 149 355 q 205 144 163 192 q 325 96 247 96 q 409 111 378 98 q 469 153 441 123 q 522 476 522 211 q 520 613 522 514 q 518 774 518 712 q 527 890 518 836 z "},"ū":{"ha":719,"x_min":62,"x_max":670,"o":"m 499 903 l 499 800 l 488 800 q 351 799 448 799 q 203 800 250 799 l 191 801 l 191 906 l 204 905 q 376 903 248 903 q 488 903 376 903 l 499 903 m 614 -7 q 576 23 590 11 q 547 57 562 35 q 524 107 531 80 q 423 30 476 58 q 300 1 370 3 l 294 1 q 153 30 195 1 q 77 145 77 82 q 77 262 77 186 q 76 395 77 339 q 75 514 76 452 q 70 617 73 576 q 62 674 67 658 l 170 692 q 177 641 174 675 q 181 550 180 608 q 182 446 182 492 q 183 310 182 401 q 183 170 183 220 q 217 118 189 139 q 289 106 234 106 q 397 134 355 109 q 413 144 399 136 q 433 155 427 152 q 451 168 438 159 q 470 185 463 178 q 486 206 477 193 q 501 233 495 219 l 501 692 l 608 692 l 608 162 q 670 73 610 121 l 614 -7 z "},"Ŭ":{"ha":719,"x_min":41,"x_max":633,"o":"m 346 1037 q 438 1065 400 1037 q 479 1133 475 1093 l 591 1112 q 508 980 580 1027 q 346 933 437 933 q 291 938 317 933 q 233 955 264 942 q 179 987 203 967 q 134 1041 155 1007 q 104 1118 114 1074 l 210 1139 q 346 1037 234 1037 m 527 890 l 633 882 q 627 775 627 841 q 628 636 627 723 q 629 515 629 550 l 629 476 q 627 357 629 402 q 618 255 625 313 q 594 155 611 197 q 550 81 577 112 q 458 16 511 35 q 334 -7 405 -4 q 202 13 256 -7 q 116 75 149 33 q 67 171 83 116 q 46 303 51 226 q 41 528 41 374 q 47 883 41 722 l 155 883 q 149 494 149 659 q 154 298 149 355 q 205 144 163 192 q 325 96 247 96 q 409 111 378 98 q 469 153 441 123 q 522 476 522 211 q 520 613 522 514 q 518 774 518 712 q 527 890 518 836 z "},"ŭ":{"ha":719,"x_min":62,"x_max":670,"o":"m 351 825 q 443 853 406 825 q 484 921 481 881 l 597 901 q 514 769 585 816 q 351 722 442 722 q 296 726 323 722 q 239 743 269 730 q 184 775 208 755 q 140 829 160 795 q 110 907 119 863 l 216 927 q 351 825 239 825 m 614 -7 q 576 23 590 11 q 547 57 562 35 q 524 107 531 80 q 423 30 476 58 q 300 1 370 3 l 294 1 q 153 30 195 1 q 77 145 77 82 q 77 262 77 186 q 76 395 77 339 q 75 514 76 452 q 70 617 73 576 q 62 674 67 658 l 170 692 q 177 641 174 675 q 181 550 180 608 q 182 446 182 492 q 183 310 182 401 q 183 170 183 220 q 217 118 189 139 q 289 106 234 106 q 397 134 355 109 q 413 144 399 136 q 433 155 427 152 q 451 168 438 159 q 470 185 463 178 q 486 206 477 193 q 501 233 495 219 l 501 692 l 608 692 l 608 162 q 670 73 610 121 l 614 -7 z "},"Ů":{"ha":719,"x_min":41,"x_max":633,"o":"m 285 1042 q 302 1008 285 1023 q 344 994 319 994 q 385 1008 369 994 q 401 1042 401 1023 q 386 1075 401 1061 q 344 1089 370 1089 q 301 1075 318 1089 q 285 1042 285 1061 m 241 947 q 219 966 241 947 q 197 1041 197 985 q 241 1135 197 1097 q 345 1173 285 1173 q 448 1135 404 1173 q 491 1041 491 1097 q 448 947 491 985 q 345 909 404 909 q 241 947 285 909 m 527 890 l 633 882 q 627 775 627 841 q 628 636 627 723 q 629 515 629 550 l 629 476 q 627 357 629 402 q 618 255 625 313 q 594 155 611 197 q 550 81 577 112 q 458 16 511 35 q 334 -7 405 -4 q 202 13 256 -7 q 116 75 149 33 q 67 171 83 116 q 46 303 51 226 q 41 528 41 374 q 47 883 41 722 l 155 883 q 149 494 149 659 q 154 298 149 355 q 205 144 163 192 q 325 96 247 96 q 409 111 378 98 q 469 153 441 123 q 522 476 522 211 q 520 613 522 514 q 518 774 518 712 q 527 890 518 836 z "},"ů":{"ha":719,"x_min":62,"x_max":670,"o":"m 290 843 q 307 809 290 824 q 349 794 324 794 q 391 809 374 794 q 407 843 407 824 q 391 876 407 862 q 349 890 375 890 q 307 876 323 890 q 290 843 290 861 m 247 748 q 225 767 247 748 q 203 842 203 786 q 247 936 203 897 q 350 974 290 974 q 453 936 410 974 q 496 842 496 897 q 453 748 496 786 q 350 709 410 709 q 247 748 290 709 m 614 -7 q 576 23 590 11 q 547 57 562 35 q 524 107 531 80 q 423 30 476 58 q 300 1 370 3 l 294 1 q 153 30 195 1 q 77 145 77 82 q 77 262 77 186 q 76 395 77 339 q 75 514 76 452 q 70 617 73 576 q 62 674 67 658 l 170 692 q 177 641 174 675 q 181 550 180 608 q 182 446 182 492 q 183 310 182 401 q 183 170 183 220 q 217 118 189 139 q 289 106 234 106 q 397 134 355 109 q 413 144 399 136 q 433 155 427 152 q 451 168 438 159 q 470 185 463 178 q 486 206 477 193 q 501 233 495 219 l 501 692 l 608 692 l 608 162 q 670 73 610 121 l 614 -7 z "},"Ű":{"ha":719,"x_min":41,"x_max":685,"o":"m 368 975 q 485 1098 427 1022 q 581 1247 544 1174 l 685 1179 q 584 1030 654 1111 q 446 897 513 950 l 368 975 m 140 979 q 257 1103 199 1027 q 353 1252 316 1179 l 457 1185 q 356 1036 427 1116 q 218 901 285 955 l 140 979 m 527 890 l 633 882 q 627 775 627 841 q 628 636 627 723 q 629 515 629 550 l 629 476 q 627 357 629 402 q 618 255 625 313 q 594 155 611 197 q 550 81 577 112 q 458 16 511 35 q 334 -7 405 -4 q 202 13 256 -7 q 116 75 149 33 q 67 171 83 116 q 46 303 51 226 q 41 528 41 374 q 47 883 41 722 l 155 883 q 149 494 149 659 q 154 298 149 355 q 205 144 163 192 q 325 96 247 96 q 409 111 378 98 q 469 153 441 123 q 522 476 522 211 q 520 613 522 514 q 518 774 518 712 q 527 890 518 836 z "},"ű":{"ha":719,"x_min":62,"x_max":670,"o":"m 353 800 q 470 923 412 847 q 566 1072 529 999 l 670 1004 q 569 856 640 936 q 431 722 498 775 l 353 800 m 125 804 q 242 928 184 852 q 338 1077 301 1004 l 442 1010 q 341 861 412 941 q 203 726 270 780 l 125 804 m 614 -7 q 576 23 590 11 q 547 57 562 35 q 524 107 531 80 q 423 30 476 58 q 300 1 370 3 l 294 1 q 153 30 195 1 q 77 145 77 82 q 77 262 77 186 q 76 395 77 339 q 75 514 76 452 q 70 617 73 576 q 62 674 67 658 l 170 692 q 177 641 174 675 q 181 550 180 608 q 182 446 182 492 q 183 310 182 401 q 183 170 183 220 q 217 118 189 139 q 289 106 234 106 q 397 134 355 109 q 413 144 399 136 q 433 155 427 152 q 451 168 438 159 q 470 185 463 178 q 486 206 477 193 q 501 233 495 219 l 501 692 l 608 692 l 608 162 q 670 73 610 121 l 614 -7 z "},"Ų":{"ha":719,"x_min":41,"x_max":633,"o":"m 527 890 l 633 882 q 627 775 627 841 q 628 636 627 723 q 629 515 629 550 l 629 476 q 627 357 629 402 q 618 255 625 313 q 594 155 611 197 q 550 81 577 112 q 495 25 530 57 q 434 -28 459 -6 q 389 -84 409 -50 q 370 -154 370 -117 q 393 -196 370 -181 q 451 -210 416 -210 q 488 -203 469 -210 q 514 -190 507 -195 q 538 -173 522 -185 l 591 -245 q 527 -290 568 -271 q 448 -309 487 -309 q 310 -267 356 -309 q 264 -154 264 -226 q 269 -112 264 -131 q 287 -75 274 -94 q 309 -47 300 -56 q 340 -15 317 -37 q 349 -6 347 -9 q 342 -6 347 -6 q 334 -7 336 -7 q 202 13 256 -7 q 116 75 149 33 q 67 171 83 116 q 46 303 51 226 q 41 528 41 374 q 47 883 41 722 l 155 883 q 149 494 149 659 q 154 298 149 355 q 205 144 163 192 q 325 96 247 96 q 409 111 378 98 q 469 153 441 123 q 522 476 522 211 q 520 613 522 514 q 518 774 518 712 q 527 890 518 836 z "},"ų":{"ha":719,"x_min":62,"x_max":667,"o":"m 667 56 q 564 -23 617 13 q 483 -74 511 -58 q 436 -107 455 -90 q 418 -146 418 -125 q 441 -188 418 -174 q 499 -203 465 -203 q 536 -195 517 -203 q 562 -183 555 -188 q 587 -165 570 -178 l 640 -238 q 575 -282 616 -264 q 496 -301 535 -301 q 358 -260 404 -301 q 313 -146 313 -218 q 326 -95 313 -118 q 365 -52 339 -71 q 417 -17 391 -32 q 481 20 443 -1 q 545 58 520 41 q 524 107 533 75 q 423 30 476 58 q 300 1 370 3 l 294 1 q 153 30 195 1 q 77 145 77 82 q 77 262 77 186 q 76 395 77 339 q 75 514 76 452 q 70 617 73 576 q 62 674 67 658 l 170 692 q 177 641 174 675 q 181 550 180 608 q 182 446 182 492 q 183 310 182 401 q 183 170 183 220 q 217 118 189 139 q 289 106 234 106 q 397 134 355 109 q 413 144 399 136 q 433 155 427 152 q 451 168 438 159 q 470 185 463 178 q 486 206 477 193 q 501 233 495 219 l 502 692 l 609 692 l 608 162 q 628 104 609 136 q 667 56 646 73 z "},"Ŵ":{"ha":719,"x_min":4,"x_max":696,"o":"m 341 1216 l 595 994 l 523 921 l 339 1071 l 162 921 l 92 994 l 341 1216 m 225 0 l 136 0 q 68 434 120 64 q 4 872 17 804 l 109 894 q 159 579 144 702 q 180 366 174 457 q 197 202 186 275 q 260 456 229 308 q 295 649 291 604 q 408 657 385 649 q 427 555 411 644 q 452 424 444 466 q 475 314 460 381 q 505 203 491 248 q 516 350 511 261 q 535 561 520 439 q 589 892 550 683 l 696 870 q 625 409 676 774 q 566 0 574 44 l 474 0 q 353 416 375 291 q 225 0 322 267 z "},"ŵ":{"ha":719,"x_min":4,"x_max":671,"o":"m 330 1020 l 585 798 l 512 725 l 328 875 l 151 725 l 81 798 l 330 1020 m 4 662 l 104 713 q 164 539 144 645 q 182 414 175 481 q 191 308 189 347 q 195 193 193 269 q 198 101 197 117 q 289 174 258 101 q 321 380 321 248 l 321 559 l 416 559 l 416 353 q 417 309 416 330 q 422 267 418 288 q 428 231 425 245 q 437 194 431 216 q 445 162 443 171 q 455 129 448 153 q 465 100 463 104 q 545 191 513 100 q 576 462 576 281 q 559 692 576 597 l 665 692 q 671 481 671 641 q 610 119 671 238 q 439 0 550 0 l 426 0 l 403 0 q 385 64 400 11 q 364 142 370 117 q 152 -2 299 0 l 148 -2 l 144 -2 q 103 6 121 -1 q 101 72 103 10 q 96 185 98 134 q 88 307 93 237 q 75 436 83 376 q 56 536 66 496 q 33 602 49 564 q 4 662 16 641 z "},"Ŷ":{"ha":719,"x_min":22,"x_max":656,"o":"m 328 1232 l 582 1010 l 509 937 l 326 1087 l 149 937 l 78 1010 l 328 1232 m 271 -4 l 271 92 q 273 242 271 119 q 275 408 275 365 q 145 625 238 460 q 22 852 52 790 l 117 901 q 222 708 149 840 q 334 515 295 576 q 460 721 380 581 q 562 909 541 861 l 656 856 q 503 582 581 707 q 451 502 479 545 q 406 433 422 458 q 384 400 389 408 q 383 351 384 385 q 382 299 382 318 q 379 85 379 150 l 379 -4 l 271 -4 z "},"ŷ":{"ha":719,"x_min":38,"x_max":632,"o":"m 337 1020 l 591 798 l 519 725 l 335 875 l 158 725 l 87 798 l 337 1020 m 228 -151 q 250 -147 239 -151 q 271 -134 261 -143 q 289 -117 281 -125 q 305 -92 297 -108 q 319 -66 313 -77 q 332 -37 325 -56 q 343 -8 340 -18 q 353 21 347 1 q 362 46 360 41 q 124 568 243 460 q 50 589 101 589 l 50 692 q 125 687 87 692 q 425 195 260 667 q 493 447 465 312 q 525 692 521 582 l 632 692 q 623 578 632 631 q 420 -96 558 228 q 346 -214 391 -172 q 231 -255 302 -255 q 38 0 38 -255 l 144 0 q 164 -119 144 -86 q 228 -151 184 -151 z "},"Ÿ":{"ha":719,"x_min":22,"x_max":656,"o":"m 104 1106 l 263 1104 l 263 951 l 104 954 l 104 1106 m 379 1104 l 538 1102 l 538 949 l 379 951 l 379 1104 m 271 -4 l 271 92 q 273 242 271 119 q 275 408 275 365 q 145 625 238 460 q 22 852 52 790 l 117 901 q 222 708 149 840 q 334 515 295 576 q 460 721 380 581 q 562 909 541 861 l 656 856 q 503 582 581 707 q 451 502 479 545 q 406 433 422 458 q 384 400 389 408 q 383 351 384 385 q 382 299 382 318 q 379 85 379 150 l 379 -4 l 271 -4 z "},"Ź":{"ha":719,"x_min":19,"x_max":656,"o":"m 212 1009 q 370 1095 279 1031 q 528 1221 462 1159 l 612 1122 q 445 1000 557 1067 q 258 909 333 933 l 212 1009 m 83 -3 l 19 56 l 512 780 q 261 778 431 780 q 60 777 91 777 l 60 880 q 290 882 95 880 q 555 883 486 883 q 589 882 572 883 q 616 879 606 880 q 637 874 626 877 q 650 872 648 872 q 637 779 646 825 l 178 102 l 509 102 q 573 105 551 102 q 629 119 595 108 l 656 18 q 549 -2 599 -2 l 384 -2 q 195 -3 298 -2 q 88 -3 91 -3 l 83 -3 z "},"ź":{"ha":719,"x_min":48,"x_max":646,"o":"m 197 810 q 355 896 264 832 q 513 1022 447 960 l 597 923 q 430 801 542 867 q 243 709 318 734 l 197 810 m 65 593 l 83 695 q 272 692 115 692 l 596 692 l 612 614 q 581 578 612 613 q 493 481 551 544 q 374 355 436 418 q 292 270 319 298 q 228 194 264 241 q 167 106 191 148 l 532 105 q 646 83 580 105 l 619 -15 q 604 -10 615 -14 q 588 -6 592 -7 q 574 -3 584 -5 q 555 -1 565 -1 q 533 0 546 0 l 48 0 l 48 14 q 63 128 48 97 q 97 189 78 159 q 142 250 115 218 q 187 302 169 282 q 242 362 205 323 q 296 419 280 402 q 457 584 383 515 l 436 584 q 358 585 415 584 q 270 585 301 585 q 65 593 113 585 z "},"Ż":{"ha":719,"x_min":19,"x_max":656,"o":"m 290 1115 l 450 1113 l 450 960 l 290 962 l 290 1115 m 83 -3 l 19 56 l 512 780 q 261 778 431 780 q 60 777 91 777 l 60 880 q 290 882 95 880 q 555 883 486 883 q 589 882 572 883 q 616 879 606 880 q 637 874 626 877 q 650 872 648 872 q 637 779 646 825 l 178 102 l 509 102 q 573 105 551 102 q 629 119 595 108 l 656 18 q 549 -2 599 -2 l 384 -2 q 195 -3 298 -2 q 88 -3 91 -3 l 83 -3 z "},"ż":{"ha":719,"x_min":48,"x_max":646,"o":"m 261 951 l 420 951 l 420 799 l 261 799 l 261 951 m 65 593 l 83 695 q 272 692 115 692 l 596 692 l 612 614 q 581 578 612 613 q 493 481 551 544 q 374 355 436 418 q 292 270 319 298 q 228 194 264 241 q 167 106 191 148 l 532 105 q 646 83 580 105 l 619 -15 q 604 -10 615 -14 q 588 -6 592 -7 q 574 -3 584 -5 q 555 -1 565 -1 q 533 0 546 0 l 48 0 l 48 14 q 63 128 48 97 q 97 189 78 159 q 142 250 115 218 q 187 302 169 282 q 242 362 205 323 q 296 419 280 402 q 457 584 383 515 l 436 584 q 358 585 415 584 q 270 585 301 585 q 65 593 113 585 z "},"Ž":{"ha":719,"x_min":19,"x_max":656,"o":"m 353 925 l 102 1141 l 172 1213 l 353 1065 l 533 1213 l 605 1141 l 353 925 m 83 -3 l 19 56 l 512 780 q 261 778 431 780 q 60 777 91 777 l 60 880 q 290 882 95 880 q 555 883 486 883 q 589 882 572 883 q 616 879 606 880 q 637 874 626 877 q 650 872 648 872 q 637 779 646 825 l 178 102 l 509 102 q 573 105 551 102 q 629 119 595 108 l 656 18 q 549 -2 599 -2 l 384 -2 q 195 -3 298 -2 q 88 -3 91 -3 l 83 -3 z "},"ž":{"ha":719,"x_min":48,"x_max":646,"o":"m 370 715 l 119 931 l 190 1004 l 371 856 l 551 1004 l 623 931 l 370 715 m 65 593 l 83 695 q 272 692 115 692 l 596 692 l 612 614 q 581 578 612 613 q 493 481 551 544 q 374 355 436 418 q 292 270 319 298 q 228 194 264 241 q 167 106 191 148 l 532 105 q 646 83 580 105 l 619 -15 q 604 -10 615 -14 q 588 -6 592 -7 q 574 -3 584 -5 q 555 -1 565 -1 q 533 0 546 0 l 48 0 l 48 14 q 63 128 48 97 q 97 189 78 159 q 142 250 115 218 q 187 302 169 282 q 242 362 205 323 q 296 419 280 402 q 457 584 383 515 l 436 584 q 358 585 415 584 q 270 585 301 585 q 65 593 113 585 z "},"ſ":{"ha":719,"x_min":100,"x_max":608,"o":"m 588 852 q 465 859 552 859 q 416 850 436 859 q 385 831 395 842 q 368 799 374 819 q 361 762 362 779 q 359 719 359 745 l 359 687 q 359 576 359 658 q 360 400 359 495 q 360 214 360 304 q 361 61 361 123 l 361 0 l 255 0 q 252 583 255 383 l 100 583 l 100 686 l 254 686 q 253 703 254 692 q 252 722 252 715 q 254 766 252 745 q 260 811 255 786 q 275 857 266 837 q 299 897 283 877 q 336 931 315 918 q 389 953 357 945 q 460 962 420 962 q 608 952 556 962 l 588 852 z "},"ƀ":{"ha":719,"x_min":0,"x_max":638,"o":"m 638 311 q 624 185 638 241 q 579 85 609 129 q 498 19 549 42 q 379 -5 448 -5 q 206 57 275 -5 q 199 -8 205 37 l 87 5 q 100 165 100 90 l 100 181 q 99 465 100 260 q 99 766 99 669 l 0 766 l 0 871 l 96 871 q 89 951 94 907 l 197 958 q 204 871 200 930 l 429 871 l 429 766 l 206 766 l 206 644 q 240 668 229 661 q 278 684 252 675 q 336 692 304 692 q 638 311 638 692 m 532 324 q 345 587 532 587 q 322 584 334 587 q 303 579 311 581 q 283 569 294 576 q 266 559 271 562 q 249 545 261 556 q 234 532 237 534 q 219 517 232 530 l 206 505 l 206 208 q 279 123 245 146 q 379 100 313 100 q 497 157 462 100 q 532 324 532 214 z "},"Ɛ":{"ha":719,"x_min":36,"x_max":637,"o":"m 637 109 q 557 53 584 68 q 340 0 463 0 q 200 17 253 0 q 106 72 147 34 q 51 157 65 111 q 36 264 36 204 q 178 495 36 460 q 100 560 126 512 q 75 668 75 608 q 149 824 75 768 q 363 880 222 880 l 371 880 q 418 878 396 880 q 460 874 440 877 q 495 868 480 871 q 526 860 509 866 q 552 851 543 854 q 576 841 561 848 q 595 831 591 833 q 614 820 600 829 q 631 810 629 811 l 578 715 q 364 776 478 776 q 229 746 281 776 q 177 668 177 717 q 395 547 177 547 l 398 547 l 410 547 l 410 444 q 385 445 401 444 q 359 445 368 445 q 229 423 285 445 q 185 393 203 414 q 157 349 166 373 q 143 304 147 326 q 139 263 139 283 q 195 147 139 190 q 340 104 250 104 q 571 193 475 104 l 637 109 z "},"Ƒ":{"ha":719,"x_min":12,"x_max":651,"o":"m 12 -54 q 99 -19 62 -54 q 136 66 136 16 l 135 881 l 543 880 q 651 857 609 878 l 613 758 q 594 767 601 764 q 566 773 587 770 q 514 777 545 777 l 467 777 q 241 776 365 777 l 241 553 q 317 554 281 553 q 394 555 353 555 q 418 554 406 555 q 440 553 431 553 q 458 551 450 552 q 474 549 467 550 q 485 547 480 548 q 492 546 489 547 l 494 545 l 507 542 l 482 444 q 392 453 443 453 l 329 453 q 241 452 285 453 q 242 250 241 408 q 244 62 244 91 q 178 -98 244 -35 q 17 -166 113 -162 l 12 -54 z "},"ƒ":{"ha":719,"x_min":59,"x_max":686,"o":"m 224 103 q 221 583 224 383 l 125 583 l 125 686 l 222 686 q 222 703 222 692 q 221 722 221 715 q 224 784 221 756 q 240 847 228 812 q 274 906 253 882 q 335 945 296 929 q 429 962 375 962 q 585 935 523 962 q 686 831 646 909 l 600 779 q 540 843 576 827 q 434 859 505 859 q 385 850 405 859 q 353 831 364 842 q 336 799 342 819 q 329 762 330 779 q 328 719 328 745 l 328 687 q 394 687 350 687 q 463 686 438 686 q 572 673 534 684 l 553 574 q 486 583 526 583 l 328 583 q 329 417 328 537 q 330 200 330 297 q 331 103 331 104 q 324 3 331 47 q 299 -83 317 -41 q 252 -152 281 -124 q 173 -196 222 -179 q 59 -212 124 -212 l 67 -113 q 190 -66 156 -113 q 224 103 224 -20 z "},"Ƥ":{"ha":719,"x_min":17,"x_max":661,"o":"m 551 610 q 539 691 551 657 q 504 745 526 726 q 457 772 482 764 q 402 781 432 781 q 352 779 378 781 q 314 777 325 777 l 314 692 l 313 416 q 369 415 347 415 q 443 424 412 415 q 500 455 475 433 q 538 515 526 476 q 551 610 551 554 m 313 -7 l 205 -6 l 205 775 q 180 771 191 774 q 159 759 170 768 q 141 735 148 750 q 130 693 134 720 q 125 629 125 666 l 17 629 q 27 724 17 682 q 53 793 37 766 q 94 839 70 820 q 145 866 119 857 q 203 878 172 875 q 278 882 233 880 q 387 883 323 883 q 593 812 524 883 q 661 614 661 741 q 592 389 661 467 q 403 312 522 312 q 313 314 354 312 q 313 126 313 216 q 313 -7 313 37 z "},"Ǎ":{"ha":719,"x_min":28,"x_max":688,"o":"m 350 980 l 99 1196 l 170 1268 l 351 1120 l 530 1268 l 602 1196 l 350 980 m 486 342 l 354 741 l 228 329 q 363 340 258 336 l 486 342 m 294 882 l 410 882 l 667 117 q 688 0 686 52 l 576 0 q 572 40 576 12 q 563 83 567 69 l 515 225 q 482 224 509 225 q 445 223 456 224 q 407 222 433 223 q 367 221 381 222 q 329 219 352 220 q 289 217 305 218 q 255 213 273 215 q 222 209 237 212 q 195 203 207 206 l 155 82 q 138 0 138 35 l 28 0 q 36 50 29 14 q 50 108 43 85 l 294 882 z "},"ǎ":{"ha":719,"x_min":50,"x_max":660,"o":"m 321 783 l 70 998 l 140 1071 l 321 923 l 501 1071 l 573 998 l 321 783 m 159 211 q 185 129 159 158 q 260 99 212 99 q 337 111 300 99 q 397 138 374 123 q 443 175 421 153 q 474 209 465 197 q 491 234 483 220 l 491 298 q 332 342 420 342 q 209 305 260 341 q 159 211 159 269 m 597 216 q 606 117 597 129 q 619 105 610 112 q 641 89 627 98 q 660 74 654 79 l 604 -7 q 583 8 599 -3 q 560 25 567 19 q 543 44 553 32 q 525 71 532 56 q 515 106 519 86 q 471 66 491 82 q 419 33 451 51 q 347 5 387 14 q 260 -4 307 -4 q 113 57 174 -4 q 53 204 53 119 q 68 286 53 244 q 113 357 84 328 q 210 421 159 404 q 326 439 260 439 q 491 405 435 439 q 453 549 491 503 q 329 595 414 595 q 217 572 256 595 q 138 477 178 549 l 50 533 q 164 660 97 622 q 328 697 232 697 q 524 626 450 697 q 597 439 597 555 l 597 216 z "},"Ǐ":{"ha":719,"x_min":92,"x_max":595,"o":"m 342 903 l 92 1118 l 162 1191 l 343 1043 l 523 1191 l 595 1118 l 342 903 m 103 880 q 329 883 209 883 q 576 881 410 883 l 576 778 q 478 780 532 778 q 395 781 425 781 l 395 103 q 435 103 410 103 q 478 104 460 104 q 576 101 529 104 l 576 -1 q 433 3 507 3 q 384 3 418 3 q 328 3 349 3 q 237 0 310 3 q 105 -2 165 -2 l 105 99 q 235 102 177 102 l 286 102 l 286 781 q 107 776 156 779 l 103 880 z "},"ǐ":{"ha":719,"x_min":59,"x_max":698,"o":"m 310 783 l 59 998 l 130 1071 l 311 923 l 490 1071 l 562 998 l 310 783 m 283 687 l 361 687 q 362 142 361 687 q 385 94 364 104 q 458 84 405 84 q 565 97 511 84 q 652 134 619 109 l 698 56 q 591 5 656 22 q 458 -12 526 -12 q 319 14 367 -12 q 256 140 256 48 l 256 581 q 81 562 163 581 l 62 659 q 283 687 184 687 z "},"Ǒ":{"ha":719,"x_min":16,"x_max":647,"o":"m 353 909 l 102 1124 l 173 1197 l 354 1049 l 534 1197 l 606 1124 l 353 909 m 342 899 q 385 896 363 899 q 438 879 408 892 q 496 847 469 867 q 552 790 524 827 q 600 707 580 754 q 633 588 620 659 q 647 431 646 517 l 647 423 q 629 271 647 345 q 585 145 611 197 q 481 31 546 71 q 334 -9 417 -9 q 209 15 268 -9 q 110 88 149 39 q 16 388 16 203 q 43 636 16 546 q 115 787 71 727 q 209 867 151 837 q 342 899 267 898 m 180 166 q 334 95 234 95 q 492 197 437 95 q 526 298 512 228 q 540 425 539 368 l 540 438 q 492 690 540 597 q 346 795 439 795 q 265 780 298 795 q 203 725 233 764 q 123 391 123 622 q 139 267 123 332 q 180 166 154 201 z "},"ǒ":{"ha":719,"x_min":49,"x_max":612,"o":"m 315 783 l 64 998 l 135 1071 l 316 923 l 496 1071 l 568 998 l 315 783 m 444 146 q 504 359 504 203 q 504 372 504 359 q 463 534 503 473 q 339 595 424 595 q 251 576 288 595 q 195 518 215 556 q 165 432 174 480 q 156 318 156 383 q 200 162 156 218 q 328 106 244 106 q 392 115 367 106 q 444 146 418 124 m 327 1 q 120 85 191 1 q 49 315 49 169 q 57 431 49 376 q 86 535 66 486 q 136 621 106 585 q 212 679 166 657 q 316 700 258 700 q 474 666 414 700 q 572 564 535 633 q 612 368 612 486 q 603 255 612 307 q 574 156 595 203 q 523 74 554 108 q 441 21 491 41 q 328 1 392 1 l 327 1 z "},"Ǔ":{"ha":719,"x_min":41,"x_max":633,"o":"m 335 884 l 84 1100 l 155 1173 l 336 1025 l 515 1173 l 587 1100 l 335 884 m 527 890 l 633 882 q 627 775 627 841 q 628 636 627 723 q 629 515 629 550 l 629 476 q 627 357 629 402 q 618 255 625 313 q 594 155 611 197 q 550 81 577 112 q 458 16 511 35 q 334 -7 405 -4 q 202 13 256 -7 q 116 75 149 33 q 67 171 83 116 q 46 303 51 226 q 41 528 41 374 q 47 883 41 722 l 155 883 q 149 494 149 659 q 154 298 149 355 q 205 144 163 192 q 325 96 247 96 q 409 111 378 98 q 469 153 441 123 q 522 476 522 211 q 520 613 522 514 q 518 774 518 712 q 527 890 518 836 z "},"ǔ":{"ha":719,"x_min":62,"x_max":670,"o":"m 347 736 l 96 951 l 166 1024 l 347 876 l 527 1024 l 599 951 l 347 736 m 614 -7 q 576 23 590 11 q 547 57 562 35 q 524 107 531 80 q 423 30 476 58 q 300 1 370 3 l 294 1 q 153 30 195 1 q 77 145 77 82 q 77 262 77 186 q 76 395 77 339 q 75 514 76 452 q 70 617 73 576 q 62 674 67 658 l 170 692 q 177 641 174 675 q 181 550 180 608 q 182 446 182 492 q 183 310 182 401 q 183 170 183 220 q 217 118 189 139 q 289 106 234 106 q 397 134 355 109 q 413 144 399 136 q 433 155 427 152 q 451 168 438 159 q 470 185 463 178 q 486 206 477 193 q 501 233 495 219 l 501 692 l 608 692 l 608 162 q 670 73 610 121 l 614 -7 z "},"Ǖ":{"ha":719,"x_min":41,"x_max":633,"o":"m 484 1264 l 484 1161 l 473 1161 q 336 1160 433 1160 q 189 1161 235 1160 l 176 1162 l 176 1267 l 189 1265 q 361 1264 233 1264 q 473 1264 361 1264 l 484 1264 m 124 1120 l 283 1118 l 283 966 l 124 968 l 124 1120 m 399 1118 l 559 1116 l 559 964 l 399 966 l 399 1118 m 527 890 l 633 882 q 627 775 627 841 q 628 636 627 723 q 629 515 629 550 l 629 476 q 627 357 629 402 q 618 255 625 313 q 594 155 611 197 q 550 81 577 112 q 458 16 511 35 q 334 -7 405 -4 q 202 13 256 -7 q 116 75 149 33 q 67 171 83 116 q 46 303 51 226 q 41 528 41 374 q 47 883 41 722 l 155 883 q 149 494 149 659 q 154 298 149 355 q 205 144 163 192 q 325 96 247 96 q 409 111 378 98 q 469 153 441 123 q 522 476 522 211 q 520 613 522 514 q 518 774 518 712 q 527 890 518 836 z "},"ǖ":{"ha":719,"x_min":62,"x_max":670,"o":"m 497 1114 l 497 1010 l 486 1010 q 349 1009 446 1009 q 201 1010 248 1009 l 189 1011 l 189 1116 l 202 1115 q 374 1114 246 1114 q 486 1114 374 1114 l 497 1114 m 134 956 l 293 954 l 293 801 l 134 803 l 134 956 m 409 954 l 568 951 l 568 799 l 409 801 l 409 954 m 614 -7 q 576 23 590 11 q 547 57 562 35 q 524 107 531 80 q 423 30 476 58 q 300 1 370 3 l 294 1 q 153 30 195 1 q 77 145 77 82 q 77 262 77 186 q 76 395 77 339 q 75 514 76 452 q 70 617 73 576 q 62 674 67 658 l 170 692 q 177 641 174 675 q 181 550 180 608 q 182 446 182 492 q 183 310 182 401 q 183 170 183 220 q 217 118 189 139 q 289 106 234 106 q 397 134 355 109 q 413 144 399 136 q 433 155 427 152 q 451 168 438 159 q 470 185 463 178 q 486 206 477 193 q 501 233 495 219 l 501 692 l 608 692 l 608 162 q 670 73 610 121 l 614 -7 z "},"Ǘ":{"ha":719,"x_min":41,"x_max":633,"o":"m 184 1241 q 342 1327 251 1263 q 500 1453 434 1391 l 584 1354 q 417 1232 529 1299 q 230 1141 305 1165 l 184 1241 m 124 1120 l 283 1118 l 283 966 l 124 968 l 124 1120 m 399 1118 l 559 1116 l 559 964 l 399 966 l 399 1118 m 527 890 l 633 882 q 627 775 627 841 q 628 636 627 723 q 629 515 629 550 l 629 476 q 627 357 629 402 q 618 255 625 313 q 594 155 611 197 q 550 81 577 112 q 458 16 511 35 q 334 -7 405 -4 q 202 13 256 -7 q 116 75 149 33 q 67 171 83 116 q 46 303 51 226 q 41 528 41 374 q 47 883 41 722 l 155 883 q 149 494 149 659 q 154 298 149 355 q 205 144 163 192 q 325 96 247 96 q 409 111 378 98 q 469 153 441 123 q 522 476 522 211 q 520 613 522 514 q 518 774 518 712 q 527 890 518 836 z "},"ǘ":{"ha":719,"x_min":62,"x_max":670,"o":"m 167 1076 q 326 1162 234 1098 q 484 1288 417 1225 l 567 1189 q 400 1066 512 1133 q 213 975 288 1000 l 167 1076 m 134 956 l 293 954 l 293 801 l 134 803 l 134 956 m 409 954 l 568 951 l 568 799 l 409 801 l 409 954 m 614 -7 q 576 23 590 11 q 547 57 562 35 q 524 107 531 80 q 423 30 476 58 q 300 1 370 3 l 294 1 q 153 30 195 1 q 77 145 77 82 q 77 262 77 186 q 76 395 77 339 q 75 514 76 452 q 70 617 73 576 q 62 674 67 658 l 170 692 q 177 641 174 675 q 181 550 180 608 q 182 446 182 492 q 183 310 182 401 q 183 170 183 220 q 217 118 189 139 q 289 106 234 106 q 397 134 355 109 q 413 144 399 136 q 433 155 427 152 q 451 168 438 159 q 470 185 463 178 q 486 206 477 193 q 501 233 495 219 l 501 692 l 608 692 l 608 162 q 670 73 610 121 l 614 -7 z "},"Ǚ":{"ha":719,"x_min":41,"x_max":633,"o":"m 340 1119 l 90 1335 l 160 1407 l 341 1259 l 521 1407 l 593 1335 l 340 1119 m 124 1120 l 283 1118 l 283 966 l 124 968 l 124 1120 m 399 1118 l 559 1116 l 559 964 l 399 966 l 399 1118 m 527 890 l 633 882 q 627 775 627 841 q 628 636 627 723 q 629 515 629 550 l 629 476 q 627 357 629 402 q 618 255 625 313 q 594 155 611 197 q 550 81 577 112 q 458 16 511 35 q 334 -7 405 -4 q 202 13 256 -7 q 116 75 149 33 q 67 171 83 116 q 46 303 51 226 q 41 528 41 374 q 47 883 41 722 l 155 883 q 149 494 149 659 q 154 298 149 355 q 205 144 163 192 q 325 96 247 96 q 409 111 378 98 q 469 153 441 123 q 522 476 522 211 q 520 613 522 514 q 518 774 518 712 q 527 890 518 836 z "},"ǚ":{"ha":719,"x_min":62,"x_max":670,"o":"m 351 965 l 100 1181 l 170 1253 l 351 1105 l 531 1253 l 603 1181 l 351 965 m 134 956 l 293 954 l 293 801 l 134 803 l 134 956 m 409 954 l 568 951 l 568 799 l 409 801 l 409 954 m 614 -7 q 576 23 590 11 q 547 57 562 35 q 524 107 531 80 q 423 30 476 58 q 300 1 370 3 l 294 1 q 153 30 195 1 q 77 145 77 82 q 77 262 77 186 q 76 395 77 339 q 75 514 76 452 q 70 617 73 576 q 62 674 67 658 l 170 692 q 177 641 174 675 q 181 550 180 608 q 182 446 182 492 q 183 310 182 401 q 183 170 183 220 q 217 118 189 139 q 289 106 234 106 q 397 134 355 109 q 413 144 399 136 q 433 155 427 152 q 451 168 438 159 q 470 185 463 178 q 486 206 477 193 q 501 233 495 219 l 501 692 l 608 692 l 608 162 q 670 73 610 121 l 614 -7 z "},"Ǜ":{"ha":719,"x_min":41,"x_max":633,"o":"m 496 1241 l 450 1141 q 262 1232 374 1165 q 96 1354 151 1299 l 179 1453 q 337 1327 245 1391 q 496 1241 429 1263 m 124 1120 l 283 1118 l 283 966 l 124 968 l 124 1120 m 399 1118 l 559 1116 l 559 964 l 399 966 l 399 1118 m 527 890 l 633 882 q 627 775 627 841 q 628 636 627 723 q 629 515 629 550 l 629 476 q 627 357 629 402 q 618 255 625 313 q 594 155 611 197 q 550 81 577 112 q 458 16 511 35 q 334 -7 405 -4 q 202 13 256 -7 q 116 75 149 33 q 67 171 83 116 q 46 303 51 226 q 41 528 41 374 q 47 883 41 722 l 155 883 q 149 494 149 659 q 154 298 149 355 q 205 144 163 192 q 325 96 247 96 q 409 111 378 98 q 469 153 441 123 q 522 476 522 211 q 520 613 522 514 q 518 774 518 712 q 527 890 518 836 z "},"ǜ":{"ha":719,"x_min":62,"x_max":670,"o":"m 493 1065 l 447 965 q 260 1056 372 989 q 93 1179 148 1123 l 176 1278 q 334 1152 243 1215 q 493 1065 426 1088 m 134 956 l 293 954 l 293 801 l 134 803 l 134 956 m 409 954 l 568 951 l 568 799 l 409 801 l 409 954 m 614 -7 q 576 23 590 11 q 547 57 562 35 q 524 107 531 80 q 423 30 476 58 q 300 1 370 3 l 294 1 q 153 30 195 1 q 77 145 77 82 q 77 262 77 186 q 76 395 77 339 q 75 514 76 452 q 70 617 73 576 q 62 674 67 658 l 170 692 q 177 641 174 675 q 181 550 180 608 q 182 446 182 492 q 183 310 182 401 q 183 170 183 220 q 217 118 189 139 q 289 106 234 106 q 397 134 355 109 q 413 144 399 136 q 433 155 427 152 q 451 168 438 159 q 470 185 463 178 q 486 206 477 193 q 501 233 495 219 l 501 692 l 608 692 l 608 162 q 670 73 610 121 l 614 -7 z "},"Ǟ":{"ha":719,"x_min":28,"x_max":688,"o":"m 494 1239 l 494 1136 l 482 1136 q 345 1135 443 1135 q 198 1136 244 1135 l 186 1137 l 186 1242 l 199 1240 q 371 1239 243 1239 q 482 1239 371 1239 l 494 1239 m 134 1090 l 293 1088 l 293 935 l 134 937 l 134 1090 m 409 1088 l 568 1086 l 568 933 l 409 935 l 409 1088 m 486 342 l 354 741 l 228 329 q 363 340 258 336 l 486 342 m 294 882 l 410 882 l 667 117 q 688 0 686 52 l 576 0 q 572 40 576 12 q 563 83 567 69 l 515 225 q 482 224 509 225 q 445 223 456 224 q 407 222 433 223 q 367 221 381 222 q 329 219 352 220 q 289 217 305 218 q 255 213 273 215 q 222 209 237 212 q 195 203 207 206 l 155 82 q 138 0 138 35 l 28 0 q 36 50 29 14 q 50 108 43 85 l 294 882 z "}}}
